G04 #@! TF.GenerationSoftware,KiCad,Pcbnew,(6.0.10)*
G04 #@! TF.CreationDate,2023-01-19T22:05:10+01:00*
G04 #@! TF.ProjectId,SofleKeyboard,536f666c-654b-4657-9962-6f6172642e6b,rev?*
G04 #@! TF.SameCoordinates,Original*
G04 #@! TF.FileFunction,Soldermask,Bot*
G04 #@! TF.FilePolarity,Negative*
%FSLAX46Y46*%
G04 Gerber Fmt 4.6, Leading zero omitted, Abs format (unit mm)*
G04 Created by KiCad (PCBNEW (6.0.10)) date 2023-01-19 22:05:10*
%MOMM*%
%LPD*%
G01*
G04 APERTURE LIST*
G04 Aperture macros list*
%AMRoundRect*
0 Rectangle with rounded corners*
0 $1 Rounding radius*
0 $2 $3 $4 $5 $6 $7 $8 $9 X,Y pos of 4 corners*
0 Add a 4 corners polygon primitive as box body*
4,1,4,$2,$3,$4,$5,$6,$7,$8,$9,$2,$3,0*
0 Add four circle primitives for the rounded corners*
1,1,$1+$1,$2,$3*
1,1,$1+$1,$4,$5*
1,1,$1+$1,$6,$7*
1,1,$1+$1,$8,$9*
0 Add four rect primitives between the rounded corners*
20,1,$1+$1,$2,$3,$4,$5,0*
20,1,$1+$1,$4,$5,$6,$7,0*
20,1,$1+$1,$6,$7,$8,$9,0*
20,1,$1+$1,$8,$9,$2,$3,0*%
%AMFreePoly0*
4,1,31,0.586777,0.680194,0.641421,0.641421,1.141421,0.141421,1.188777,0.066056,1.198742,-0.022393,1.169345,-0.106406,1.141421,-0.141421,0.641421,-0.641421,0.566056,-0.688777,0.500000,-0.700000,0.000000,-0.700000,-0.086777,-0.680194,-0.156366,-0.624698,-0.194986,-0.544504,-0.200000,-0.500000,-0.200000,-0.338588,-0.236777,-0.330194,-0.306366,-0.274698,-0.344986,-0.194504,-0.350000,-0.150000,
-0.350000,0.150000,-0.330194,0.236777,-0.274698,0.306366,-0.200000,0.342339,-0.200000,0.500000,-0.180194,0.586777,-0.124698,0.656366,-0.044504,0.694986,0.000000,0.700000,0.500000,0.700000,0.586777,0.680194,0.586777,0.680194,$1*%
%AMFreePoly1*
4,1,26,0.336777,0.680194,0.406366,0.624698,0.444986,0.544504,0.450000,0.500000,0.450000,-0.500000,0.430194,-0.586777,0.374698,-0.656366,0.294504,-0.694986,0.250000,-0.700000,-0.650000,-0.700000,-0.736777,-0.680194,-0.806366,-0.624698,-0.844986,-0.544504,-0.844986,-0.455496,-0.806366,-0.375302,-0.791421,-0.358579,-0.432842,0.000000,-0.791421,0.358579,-0.838777,0.433944,-0.848742,0.522393,
-0.819345,0.606406,-0.756406,0.669345,-0.672393,0.698742,-0.650000,0.700000,0.250000,0.700000,0.336777,0.680194,0.336777,0.680194,$1*%
G04 Aperture macros list end*
%ADD10C,1.797000*%
%ADD11C,1.924000*%
%ADD12C,5.100000*%
%ADD13RoundRect,0.200000X-0.475000X0.650000X-0.475000X-0.650000X0.475000X-0.650000X0.475000X0.650000X0*%
%ADD14RoundRect,0.200000X-0.650000X-0.475000X0.650000X-0.475000X0.650000X0.475000X-0.650000X0.475000X0*%
%ADD15RoundRect,0.200000X-0.736362X0.325417X-0.086362X-0.800417X0.736362X-0.325417X0.086362X0.800417X0*%
%ADD16RoundRect,0.200000X0.493892X0.635764X-0.755748X0.277435X-0.493892X-0.635764X0.755748X-0.277435X0*%
%ADD17C,3.400000*%
%ADD18C,2.300000*%
%ADD19C,2.100000*%
%ADD20C,4.500000*%
%ADD21RoundRect,0.200000X0.700000X0.500000X-0.700000X0.500000X-0.700000X-0.500000X0.700000X-0.500000X0*%
%ADD22RoundRect,0.200000X-1.150000X-1.000000X1.150000X-1.000000X1.150000X1.000000X-1.150000X1.000000X0*%
%ADD23RoundRect,0.200000X-0.783013X0.356218X-0.083013X-0.856218X0.783013X-0.356218X0.083013X0.856218X0*%
%ADD24RoundRect,0.200000X1.441025X-0.495929X0.291025X1.495929X-1.441025X0.495929X-0.291025X-1.495929X0*%
%ADD25RoundRect,0.200000X0.500000X-0.700000X0.500000X0.700000X-0.500000X0.700000X-0.500000X-0.700000X0*%
%ADD26RoundRect,0.200000X-1.000000X1.150000X-1.000000X-1.150000X1.000000X-1.150000X1.000000X1.150000X0*%
%ADD27RoundRect,0.200000X-0.762000X0.762000X-0.762000X-0.762000X0.762000X-0.762000X0.762000X0.762000X0*%
%ADD28RoundRect,0.200000X0.762000X0.762000X-0.762000X0.762000X-0.762000X-0.762000X0.762000X-0.762000X0*%
%ADD29RoundRect,0.200000X-0.500000X0.750000X-0.500000X-0.750000X0.500000X-0.750000X0.500000X0.750000X0*%
%ADD30RoundRect,0.200000X0.500000X-0.750000X0.500000X0.750000X-0.500000X0.750000X-0.500000X-0.750000X0*%
%ADD31RoundRect,0.200000X0.687359X-0.583128X0.273903X0.858765X-0.687359X0.583128X-0.273903X-0.858765X0*%
%ADD32RoundRect,0.200000X0.750000X0.500000X-0.750000X0.500000X-0.750000X-0.500000X0.750000X-0.500000X0*%
%ADD33RoundRect,0.200000X0.762000X-0.762000X0.762000X0.762000X-0.762000X0.762000X-0.762000X-0.762000X0*%
%ADD34RoundRect,0.200000X0.535065X0.673577X-0.810702X0.287685X-0.535065X-0.673577X0.810702X-0.287685X0*%
%ADD35RoundRect,0.200000X-0.829814X-1.278245X1.381088X-0.644279X0.829814X1.278245X-1.381088X0.644279X0*%
%ADD36RoundRect,0.200000X-0.800000X0.800000X-0.800000X-0.800000X0.800000X-0.800000X0.800000X0.800000X0*%
%ADD37C,2.000000*%
%ADD38RoundRect,0.200000X-0.571500X0.317500X-0.571500X-0.317500X0.571500X-0.317500X0.571500X0.317500X0*%
%ADD39FreePoly0,0.000000*%
%ADD40FreePoly1,0.000000*%
%ADD41FreePoly0,180.000000*%
%ADD42FreePoly1,180.000000*%
G04 APERTURE END LIST*
D10*
X99935000Y-73075000D03*
X105015000Y-73075000D03*
X98015000Y-73075000D03*
X92935000Y-73075000D03*
D11*
X89800000Y-81300000D03*
X89800000Y-87500000D03*
X93000000Y-81300000D03*
X93000000Y-87500000D03*
X96200000Y-81300000D03*
X96200000Y-87500000D03*
X99700000Y-81300000D03*
X99700000Y-87500000D03*
D10*
X103000000Y-91000000D03*
X96175000Y-89875000D03*
D12*
X129975000Y-57075000D03*
X206150000Y-67950000D03*
X129960000Y-95170000D03*
X206170000Y-106030000D03*
X105120000Y-120760000D03*
D11*
X90000000Y-79325000D03*
X90000000Y-72825000D03*
D13*
X129000000Y-44225000D03*
X129000000Y-47775000D03*
X131000000Y-44225000D03*
X131000000Y-47775000D03*
X149000000Y-41225000D03*
X149000000Y-44775000D03*
X169250000Y-43650000D03*
X169250000Y-47200000D03*
X189000000Y-54475000D03*
X189000000Y-58025000D03*
X207750000Y-54250000D03*
X207750000Y-57800000D03*
X129000000Y-62825000D03*
X129000000Y-66375000D03*
X130900000Y-62825000D03*
X130900000Y-66375000D03*
X149000000Y-60725000D03*
X149000000Y-64275000D03*
X169500000Y-61875000D03*
X169500000Y-65425000D03*
X188000000Y-74225000D03*
X188000000Y-77775000D03*
X207000000Y-73725000D03*
X207000000Y-77275000D03*
X129000000Y-82225000D03*
X129000000Y-85775000D03*
X131000000Y-82225000D03*
X131000000Y-85775000D03*
X149000000Y-79790000D03*
X149000000Y-83340000D03*
X169725000Y-81650000D03*
X169725000Y-85200000D03*
X188500000Y-90825000D03*
X188500000Y-94375000D03*
X207000000Y-93225000D03*
X207000000Y-96775000D03*
X129000000Y-101225000D03*
X129000000Y-104775000D03*
X131000000Y-101225000D03*
X131000000Y-104775000D03*
X149000000Y-98725000D03*
X149000000Y-102275000D03*
X169250000Y-100375000D03*
X169250000Y-103925000D03*
X189000000Y-110725000D03*
X189000000Y-114275000D03*
X206500000Y-112225000D03*
X206500000Y-115775000D03*
D14*
X96000000Y-92775000D03*
X99550000Y-92775000D03*
D15*
X91387500Y-116737805D03*
X93162500Y-119812195D03*
D16*
X116206240Y-117010744D03*
X112793760Y-117989256D03*
D13*
X130000000Y-120725000D03*
X130000000Y-124275000D03*
X149700000Y-122225000D03*
X149700000Y-125775000D03*
D17*
X123040000Y-55080000D03*
D18*
X115420000Y-50000000D03*
D19*
X116000000Y-50000000D03*
D17*
X117960000Y-55080000D03*
D19*
X125000000Y-50000000D03*
D18*
X125580000Y-50000000D03*
D20*
X120500000Y-50000000D03*
D17*
X116690000Y-52540001D03*
X124310000Y-52540000D03*
D21*
X124000000Y-45700000D03*
X124000000Y-42500000D03*
X117000000Y-42500000D03*
X117000000Y-45700000D03*
D22*
X127500000Y-52580000D03*
X114800000Y-55120000D03*
D19*
X135000000Y-47500000D03*
D17*
X136960000Y-52580000D03*
D20*
X139500000Y-47500000D03*
D17*
X142040000Y-52580000D03*
X135690000Y-50040001D03*
X143310000Y-50040000D03*
D19*
X144000000Y-47500000D03*
D18*
X144580000Y-47500000D03*
X134420000Y-47500000D03*
D21*
X143000000Y-43200000D03*
X143000000Y-40000000D03*
X136000000Y-40000000D03*
X136000000Y-43200000D03*
D22*
X146500000Y-50080000D03*
X133800000Y-52620000D03*
D17*
X161140000Y-47650000D03*
X154790000Y-45110001D03*
X156060000Y-47650000D03*
X162410000Y-45110000D03*
D19*
X163100000Y-42570000D03*
D18*
X163680000Y-42570000D03*
D19*
X154100000Y-42570000D03*
D20*
X158600000Y-42570000D03*
D18*
X153520000Y-42570000D03*
D21*
X162100000Y-38270000D03*
X162100000Y-35070000D03*
X155100000Y-35070000D03*
X155100000Y-38270000D03*
D22*
X165600000Y-45150000D03*
X152900000Y-47690000D03*
D19*
X182100000Y-47500000D03*
D17*
X175060000Y-52580000D03*
D18*
X172520000Y-47500000D03*
D20*
X177600000Y-47500000D03*
D17*
X181410000Y-50040000D03*
D18*
X182680000Y-47500000D03*
D19*
X173100000Y-47500000D03*
D17*
X173790000Y-50040001D03*
X180140000Y-52580000D03*
D21*
X181100000Y-43200000D03*
X181100000Y-40000000D03*
X174100000Y-40000000D03*
X174100000Y-43200000D03*
D22*
X184600000Y-50080000D03*
X171900000Y-52620000D03*
D18*
X191620000Y-58400000D03*
D17*
X200510000Y-60940000D03*
D18*
X201780000Y-58400000D03*
D17*
X192890000Y-60940001D03*
D20*
X196700000Y-58400000D03*
D19*
X192200000Y-58400000D03*
X201200000Y-58400000D03*
D17*
X199240000Y-63480000D03*
X194160000Y-63480000D03*
D21*
X200200000Y-54100000D03*
X200200000Y-50900000D03*
X193200000Y-50900000D03*
X193200000Y-54100000D03*
D22*
X203700000Y-60980000D03*
X191000000Y-63520000D03*
D18*
X125580000Y-69100000D03*
D19*
X125000000Y-69100000D03*
D18*
X115420000Y-69100000D03*
D17*
X117960000Y-74180000D03*
X123040000Y-74180000D03*
X116690000Y-71640001D03*
D19*
X116000000Y-69100000D03*
D17*
X124310000Y-71640000D03*
D20*
X120500000Y-69100000D03*
D21*
X124000000Y-64800000D03*
X124000000Y-61600000D03*
X117000000Y-61600000D03*
X117000000Y-64800000D03*
D22*
X127500000Y-71680000D03*
X114800000Y-74220000D03*
D18*
X134420000Y-66600000D03*
D17*
X135690000Y-69140001D03*
X136960000Y-71680000D03*
X142040000Y-71680000D03*
D18*
X144580000Y-66600000D03*
D20*
X139500000Y-66600000D03*
D19*
X135000000Y-66600000D03*
X144000000Y-66600000D03*
D17*
X143310000Y-69140000D03*
D21*
X143000000Y-62300000D03*
X143000000Y-59100000D03*
X136000000Y-59100000D03*
X136000000Y-62300000D03*
D22*
X146500000Y-69180000D03*
X133800000Y-71720000D03*
D19*
X163100000Y-61660000D03*
D20*
X158600000Y-61660000D03*
D19*
X154100000Y-61660000D03*
D17*
X154790000Y-64200001D03*
D18*
X163680000Y-61660000D03*
D17*
X162410000Y-64200000D03*
D18*
X153520000Y-61660000D03*
D17*
X156060000Y-66740000D03*
X161140000Y-66740000D03*
D21*
X162100000Y-57360000D03*
X162100000Y-54160000D03*
X155100000Y-54160000D03*
X155100000Y-57360000D03*
D22*
X165600000Y-64240000D03*
X152900000Y-66780000D03*
D17*
X175060000Y-71580000D03*
D20*
X177600000Y-66500000D03*
D18*
X182680000Y-66500000D03*
D19*
X173100000Y-66500000D03*
D17*
X173790000Y-69040001D03*
X181410000Y-69040000D03*
D19*
X182100000Y-66500000D03*
D18*
X172520000Y-66500000D03*
D17*
X180140000Y-71580000D03*
D21*
X181100000Y-62200000D03*
X181100000Y-59000000D03*
X174100000Y-59000000D03*
X174100000Y-62200000D03*
D22*
X184600000Y-69080000D03*
X171900000Y-71620000D03*
D18*
X191620000Y-77300000D03*
D17*
X200510000Y-79840000D03*
X194160000Y-82380000D03*
X199240000Y-82380000D03*
D20*
X196700000Y-77300000D03*
D19*
X201200000Y-77300000D03*
D17*
X192890000Y-79840001D03*
D18*
X201780000Y-77300000D03*
D19*
X192200000Y-77300000D03*
D21*
X200200000Y-73000000D03*
X200200000Y-69800000D03*
X193200000Y-69800000D03*
X193200000Y-73000000D03*
D22*
X203700000Y-79880000D03*
X191000000Y-82420000D03*
D19*
X220200000Y-77300000D03*
D20*
X215700000Y-77300000D03*
D18*
X220780000Y-77300000D03*
D17*
X211890000Y-79840001D03*
X218240000Y-82380000D03*
X219510000Y-79840000D03*
D18*
X210620000Y-77300000D03*
D17*
X213160000Y-82380000D03*
D19*
X211200000Y-77300000D03*
D21*
X219200000Y-73000000D03*
X219200000Y-69800000D03*
X212200000Y-69800000D03*
X212200000Y-73000000D03*
D22*
X222700000Y-79880000D03*
X210000000Y-82420000D03*
D20*
X120500000Y-88100000D03*
D19*
X116000000Y-88100000D03*
D18*
X115420000Y-88100000D03*
D17*
X124310000Y-90640000D03*
D18*
X125580000Y-88100000D03*
D17*
X123040000Y-93180000D03*
X117960000Y-93180000D03*
X116690000Y-90640001D03*
D19*
X125000000Y-88100000D03*
D21*
X124000000Y-83800000D03*
X124000000Y-80600000D03*
X117000000Y-80600000D03*
X117000000Y-83800000D03*
D22*
X127500000Y-90680000D03*
X114800000Y-93220000D03*
D20*
X139500000Y-85600000D03*
D17*
X143310000Y-88140000D03*
X136960000Y-90680000D03*
D18*
X144580000Y-85600000D03*
D19*
X135000000Y-85600000D03*
D18*
X134420000Y-85600000D03*
D17*
X142040000Y-90680000D03*
X135690000Y-88140001D03*
D19*
X144000000Y-85600000D03*
D21*
X143000000Y-81300000D03*
X143000000Y-78100000D03*
X136000000Y-78100000D03*
X136000000Y-81300000D03*
D22*
X146500000Y-88180000D03*
X133800000Y-90720000D03*
D20*
X158600000Y-80760000D03*
D18*
X163680000Y-80760000D03*
X153520000Y-80760000D03*
D19*
X163100000Y-80760000D03*
D17*
X161140000Y-85840000D03*
X156060000Y-85840000D03*
X154790000Y-83300001D03*
D19*
X154100000Y-80760000D03*
D17*
X162410000Y-83300000D03*
D21*
X162100000Y-76460000D03*
X162100000Y-73260000D03*
X155100000Y-73260000D03*
X155100000Y-76460000D03*
D22*
X165600000Y-83340000D03*
X152900000Y-85880000D03*
D17*
X181410000Y-88140000D03*
D19*
X173100000Y-85600000D03*
X182100000Y-85600000D03*
D20*
X177600000Y-85600000D03*
D18*
X172520000Y-85600000D03*
D17*
X175060000Y-90680000D03*
D18*
X182680000Y-85600000D03*
D17*
X173790000Y-88140001D03*
X180140000Y-90680000D03*
D21*
X181100000Y-81300000D03*
X181100000Y-78100000D03*
X174100000Y-78100000D03*
X174100000Y-81300000D03*
D22*
X184600000Y-88180000D03*
X171900000Y-90720000D03*
D18*
X191620000Y-96500000D03*
D17*
X200510000Y-99040000D03*
X199240000Y-101580000D03*
X194160000Y-101580000D03*
X192890000Y-99040001D03*
D20*
X196700000Y-96500000D03*
D18*
X201780000Y-96500000D03*
D19*
X201200000Y-96500000D03*
X192200000Y-96500000D03*
D21*
X200200000Y-92200000D03*
X200200000Y-89000000D03*
X193200000Y-89000000D03*
X193200000Y-92200000D03*
D22*
X203700000Y-99080000D03*
X191000000Y-101620000D03*
D17*
X213160000Y-101580000D03*
D18*
X210620000Y-96500000D03*
D20*
X215700000Y-96500000D03*
D19*
X220200000Y-96500000D03*
D18*
X220780000Y-96500000D03*
D17*
X219510000Y-99040000D03*
X218240000Y-101580000D03*
D19*
X211200000Y-96500000D03*
D17*
X211890000Y-99040001D03*
D21*
X219200000Y-92200000D03*
X219200000Y-89000000D03*
X212200000Y-89000000D03*
X212200000Y-92200000D03*
D22*
X222700000Y-99080000D03*
X210000000Y-101620000D03*
D17*
X117960000Y-112180000D03*
D20*
X120500000Y-107100000D03*
D17*
X123040000Y-112180000D03*
X116690000Y-109640001D03*
D19*
X116000000Y-107100000D03*
D18*
X125580000Y-107100000D03*
D17*
X124310000Y-109640000D03*
D18*
X115420000Y-107100000D03*
D19*
X125000000Y-107100000D03*
D21*
X124000000Y-102800000D03*
X124000000Y-99600000D03*
X117000000Y-99600000D03*
X117000000Y-102800000D03*
D22*
X127500000Y-109680000D03*
X114800000Y-112220000D03*
D17*
X136960000Y-109780000D03*
X143310000Y-107240000D03*
D19*
X135000000Y-104700000D03*
D17*
X142040000Y-109780000D03*
D20*
X139500000Y-104700000D03*
D18*
X144580000Y-104700000D03*
X134420000Y-104700000D03*
D19*
X144000000Y-104700000D03*
D17*
X135690000Y-107240001D03*
D21*
X143000000Y-100400000D03*
X143000000Y-97200000D03*
X136000000Y-97200000D03*
X136000000Y-100400000D03*
D22*
X146500000Y-107280000D03*
X133800000Y-109820000D03*
D19*
X154100000Y-99760000D03*
D18*
X163680000Y-99760000D03*
D19*
X163100000Y-99760000D03*
D20*
X158600000Y-99760000D03*
D17*
X154790000Y-102300001D03*
D18*
X153520000Y-99760000D03*
D17*
X161140000Y-104840000D03*
X162410000Y-102300000D03*
X156060000Y-104840000D03*
D21*
X162100000Y-95460000D03*
X162100000Y-92260000D03*
X155100000Y-92260000D03*
X155100000Y-95460000D03*
D22*
X165600000Y-102340000D03*
X152900000Y-104880000D03*
D20*
X177600000Y-104700000D03*
D17*
X180140000Y-109780000D03*
D18*
X172520000Y-104700000D03*
D17*
X181410000Y-107240000D03*
X173790000Y-107240001D03*
D19*
X182100000Y-104700000D03*
X173100000Y-104700000D03*
D17*
X175060000Y-109780000D03*
D18*
X182680000Y-104700000D03*
D21*
X181100000Y-100400000D03*
X181100000Y-97200000D03*
X174100000Y-97200000D03*
X174100000Y-100400000D03*
D22*
X184600000Y-107280000D03*
X171900000Y-109820000D03*
D17*
X192890000Y-118040001D03*
D20*
X196700000Y-115500000D03*
D17*
X199240000Y-120580000D03*
D19*
X201200000Y-115500000D03*
D17*
X200510000Y-118040000D03*
D18*
X191620000Y-115500000D03*
D17*
X194160000Y-120580000D03*
D18*
X201780000Y-115500000D03*
D19*
X192200000Y-115500000D03*
D21*
X200200000Y-111200000D03*
X200200000Y-108000000D03*
X193200000Y-108000000D03*
X193200000Y-111200000D03*
D22*
X203700000Y-118080000D03*
X191000000Y-120620000D03*
D17*
X213210000Y-120580000D03*
X211940000Y-118040001D03*
D20*
X215750000Y-115500000D03*
D18*
X220830000Y-115500000D03*
D17*
X219560000Y-118040000D03*
D19*
X220250000Y-115500000D03*
D18*
X210670000Y-115500000D03*
D19*
X211250000Y-115500000D03*
D17*
X218290000Y-120580000D03*
D21*
X219250000Y-111200000D03*
X219250000Y-108000000D03*
X212250000Y-108000000D03*
X212250000Y-111200000D03*
D22*
X222750000Y-118080000D03*
X210050000Y-120620000D03*
D20*
X96710000Y-133400000D03*
D19*
X94460000Y-129502886D03*
D17*
X99839409Y-128660295D03*
X102379409Y-133059705D03*
D19*
X98960000Y-137297114D03*
D18*
X94170000Y-129000591D03*
X99250000Y-137799409D03*
D17*
X100814705Y-135429556D03*
X97004705Y-128830443D03*
D23*
X91236091Y-132518911D03*
X88464809Y-134118911D03*
X91964809Y-140181089D03*
X94736091Y-138581089D03*
D24*
X95444346Y-126047822D03*
X103994050Y-135776345D03*
D18*
X139500000Y-128780000D03*
D17*
X136959999Y-119890000D03*
X136960000Y-127510000D03*
D18*
X139500000Y-118620000D03*
D19*
X139500000Y-128200000D03*
D17*
X134420000Y-126240000D03*
D19*
X139500000Y-119200000D03*
D17*
X134420000Y-121160000D03*
D20*
X139500000Y-123700000D03*
D25*
X143800000Y-127200000D03*
X147000000Y-127200000D03*
X147000000Y-120200000D03*
X143800000Y-120200000D03*
D26*
X136920000Y-130700000D03*
X134380000Y-118000000D03*
D20*
X158600000Y-121400000D03*
D17*
X156059999Y-117590000D03*
D18*
X158600000Y-116320000D03*
D19*
X158600000Y-125900000D03*
X158600000Y-116900000D03*
D17*
X153520000Y-123940000D03*
X156060000Y-125210000D03*
X153520000Y-118860000D03*
D18*
X158600000Y-126480000D03*
D25*
X162900000Y-124900000D03*
X166100000Y-124900000D03*
X166100000Y-117900000D03*
X162900000Y-117900000D03*
D26*
X156020000Y-128400000D03*
X153480000Y-115700000D03*
D12*
X91500000Y-91000000D03*
D27*
X107900000Y-81100000D03*
D28*
X107900000Y-78600000D03*
X107900000Y-76000000D03*
D10*
X95165000Y-75575000D03*
X97705000Y-75575000D03*
X100245000Y-75575000D03*
X102785000Y-75575000D03*
D13*
X169500000Y-118725000D03*
X169500000Y-122275000D03*
D12*
X107000000Y-91000000D03*
D19*
X98915576Y-95421582D03*
X100277836Y-117774620D03*
X96414164Y-95862648D03*
X102779248Y-117333554D03*
X93912753Y-96303714D03*
X105280660Y-116892488D03*
X107782071Y-116451421D03*
X91411341Y-96744781D03*
X95275013Y-118656753D03*
X103918399Y-94539449D03*
X101416988Y-94980515D03*
X97776424Y-118215687D03*
D29*
X111400000Y-60050000D03*
X114600000Y-60050000D03*
X114600000Y-64950000D03*
X111400000Y-64950000D03*
D30*
X152600000Y-56240000D03*
X149400000Y-56240000D03*
X149400000Y-51340000D03*
X152600000Y-51340000D03*
D29*
X183900000Y-57550000D03*
X187100000Y-57550000D03*
X187100000Y-62450000D03*
X183900000Y-62450000D03*
D31*
X109713330Y-128914071D03*
X106637293Y-129796111D03*
X105286670Y-125085929D03*
X108362707Y-124203889D03*
D29*
X146400000Y-113050000D03*
X149600000Y-113050000D03*
X149600000Y-117950000D03*
X146400000Y-117950000D03*
X183900000Y-116050000D03*
X187100000Y-116050000D03*
X187100000Y-120950000D03*
X183900000Y-120950000D03*
D32*
X108950000Y-83900000D03*
X108950000Y-87100000D03*
X104050000Y-87100000D03*
X104050000Y-83900000D03*
D27*
X185000000Y-100550000D03*
D11*
X185000000Y-98050000D03*
X185000000Y-95450000D03*
D27*
X166500000Y-113550000D03*
D11*
X166500000Y-111050000D03*
X166500000Y-108450000D03*
D33*
X112500000Y-80500000D03*
D11*
X112500000Y-83000000D03*
X112500000Y-85600000D03*
D19*
X173100000Y-123800000D03*
D17*
X180140000Y-128880000D03*
D19*
X182100000Y-123800000D03*
D17*
X173790000Y-126340001D03*
X175060000Y-128880000D03*
D18*
X172520000Y-123800000D03*
D20*
X177600000Y-123800000D03*
D17*
X181410000Y-126340000D03*
D18*
X182680000Y-123800000D03*
D21*
X181100000Y-119500000D03*
X181100000Y-116300000D03*
X174100000Y-116300000D03*
X174100000Y-119500000D03*
D22*
X184600000Y-126380000D03*
X171900000Y-128920000D03*
D20*
X118100000Y-127900000D03*
D17*
X122462526Y-129291426D03*
X117058633Y-133483328D03*
D19*
X122425678Y-126659632D03*
D17*
X121941842Y-132083091D03*
X115137712Y-131391784D03*
D18*
X122983209Y-126499762D03*
X113216791Y-129300238D03*
D19*
X113774322Y-129140368D03*
D34*
X120279175Y-122801844D03*
X119397136Y-119725807D03*
X112668304Y-121655268D03*
X113550343Y-124731305D03*
D35*
X125539976Y-128450594D03*
X114032072Y-134392793D03*
D17*
X213260000Y-63480000D03*
D18*
X220880000Y-58400000D03*
D17*
X211990000Y-60940001D03*
D19*
X211300000Y-58400000D03*
D17*
X219610000Y-60940000D03*
D20*
X215800000Y-58400000D03*
D18*
X210720000Y-58400000D03*
D19*
X220300000Y-58400000D03*
D17*
X218340000Y-63480000D03*
D21*
X219300000Y-54100000D03*
X219300000Y-50900000D03*
X212300000Y-50900000D03*
X212300000Y-54100000D03*
D22*
X222800000Y-60980000D03*
X210100000Y-63520000D03*
D36*
X91285000Y-42075000D03*
D37*
X91285000Y-44615000D03*
X91285000Y-47155000D03*
X91285000Y-49695000D03*
X91285000Y-52235000D03*
X91285000Y-54775000D03*
X91285000Y-57315000D03*
X91285000Y-59855000D03*
X91285000Y-62395000D03*
X91285000Y-64935000D03*
X91285000Y-67475000D03*
X91285000Y-70015000D03*
X106525000Y-70015000D03*
X106525000Y-67475000D03*
X106525000Y-64935000D03*
X106525000Y-62395000D03*
X106525000Y-59855000D03*
X106525000Y-57315000D03*
X106525000Y-54775000D03*
X106525000Y-52235000D03*
X106525000Y-49695000D03*
X106525000Y-47155000D03*
X106525000Y-44615000D03*
X106525000Y-42075000D03*
D12*
X168060000Y-57060000D03*
X168060000Y-95180000D03*
D38*
X100246000Y-77903000D03*
X100246000Y-78903760D03*
X97665000Y-77903000D03*
X97665000Y-78903760D03*
X95166000Y-77903000D03*
X95166000Y-78903760D03*
X102786000Y-77903000D03*
X102786000Y-78903760D03*
D39*
X93275000Y-70015000D03*
D40*
X94725000Y-70015000D03*
D39*
X93275000Y-44615000D03*
D40*
X94725000Y-44615000D03*
D39*
X93275000Y-57315000D03*
D40*
X94725000Y-57315000D03*
D39*
X93275000Y-49695000D03*
D40*
X94725000Y-49695000D03*
D39*
X93275000Y-54775000D03*
D40*
X94725000Y-54775000D03*
D41*
X104525000Y-59855000D03*
D42*
X103075000Y-59855000D03*
D41*
X104525000Y-52235000D03*
D42*
X103075000Y-52235000D03*
D41*
X104525000Y-44615000D03*
D42*
X103075000Y-44615000D03*
D41*
X104525000Y-49695000D03*
D42*
X103075000Y-49695000D03*
D39*
X93275000Y-42075000D03*
D40*
X94725000Y-42075000D03*
D39*
X93275000Y-62395000D03*
D40*
X94725000Y-62395000D03*
D41*
X104525000Y-70015000D03*
D42*
X103075000Y-70015000D03*
D41*
X104525000Y-54775000D03*
D42*
X103075000Y-54775000D03*
D39*
X93275000Y-64949000D03*
D40*
X94725000Y-64949000D03*
D41*
X104525000Y-47155000D03*
D42*
X103075000Y-47155000D03*
D39*
X93275000Y-67475000D03*
D40*
X94725000Y-67475000D03*
D39*
X93275000Y-52235000D03*
D40*
X94725000Y-52235000D03*
D41*
X104525000Y-42075000D03*
D42*
X103075000Y-42075000D03*
D39*
X93275000Y-59855000D03*
D40*
X94725000Y-59855000D03*
D41*
X104525000Y-64935000D03*
D42*
X103075000Y-64935000D03*
D41*
X104525000Y-67475000D03*
D42*
X103075000Y-67475000D03*
D41*
X104525000Y-62395000D03*
D42*
X103075000Y-62395000D03*
D41*
X104525000Y-57315000D03*
D42*
X103075000Y-57315000D03*
D39*
X93275000Y-47155000D03*
D40*
X94725000Y-47155000D03*
M02*
