%TF.GenerationSoftware,KiCad,Pcbnew,(6.0.10)*%
%TF.CreationDate,2023-01-19T22:05:44+01:00*%
%TF.ProjectId,SofleKeyboard,536f666c-654b-4657-9962-6f6172642e6b,rev?*%
%TF.SameCoordinates,Original*%
%TF.FileFunction,Drillmap*%
%TF.FilePolarity,Positive*%
%FSLAX45Y45*%
G04 Gerber Fmt 4.5, Leading zero omitted, Abs format (unit mm)*
G04 Created by KiCad (PCBNEW (6.0.10)) date 2023-01-19 22:05:44*
%MOMM*%
%LPD*%
G01*
G04 APERTURE LIST*
%ADD10C,0.200000*%
%ADD11C,0.030000*%
%ADD12C,0.035000*%
%ADD13C,0.076200*%
%ADD14C,0.081280*%
%ADD15C,0.100000*%
%ADD16C,0.110000*%
%ADD17C,0.270000*%
G04 APERTURE END LIST*
D10*
X17116067Y-3374614D02*
X17485685Y-3422008D01*
X17895784Y-3498170D01*
X18336586Y-3598354D01*
X19271187Y-3851789D01*
X20211265Y-4144328D01*
X21078601Y-4437983D01*
X21794973Y-4694767D01*
X22461935Y-4945779D01*
X22466765Y-12450945D01*
X21486558Y-12708691D01*
X20969573Y-12843817D01*
X20452470Y-12972827D01*
X19948602Y-13088005D01*
X19471321Y-13181638D01*
X19246823Y-13217965D01*
X19033980Y-13246011D01*
X18834459Y-13264815D01*
X18649930Y-13273410D01*
X14965209Y-13273500D01*
X14568609Y-13280144D01*
X14180524Y-13299865D01*
X13800637Y-13332343D01*
X13428629Y-13377260D01*
X13064185Y-13434299D01*
X12706985Y-13503140D01*
X12356714Y-13583465D01*
X12013053Y-13674956D01*
X11675686Y-13777294D01*
X11344295Y-13890161D01*
X11018563Y-14013239D01*
X10698171Y-14146209D01*
X10382804Y-14288753D01*
X10072144Y-14440552D01*
X9765873Y-14601288D01*
X9410000Y-14790000D01*
X8280000Y-12830000D01*
X8418867Y-12525577D01*
X8499509Y-12270518D01*
X8568201Y-12039860D01*
X8625939Y-11830250D01*
X8673722Y-11638336D01*
X8712546Y-11460764D01*
X8743410Y-11294182D01*
X8767310Y-11135239D01*
X8785246Y-10980580D01*
X8798213Y-10826854D01*
X8813233Y-10508789D01*
X8827549Y-9736339D01*
X8827544Y-9736339D01*
X8831584Y-3905921D01*
X8831683Y-3901138D01*
X8831978Y-3896402D01*
X8832469Y-3891720D01*
X8833154Y-3887097D01*
X8834031Y-3882540D01*
X8835100Y-3878053D01*
X8836359Y-3873644D01*
X8837807Y-3869318D01*
X8839443Y-3865082D01*
X8841265Y-3860940D01*
X8843272Y-3856899D01*
X8845464Y-3852966D01*
X8847838Y-3849145D01*
X8850393Y-3845443D01*
X8853128Y-3841866D01*
X8856042Y-3838420D01*
X8859133Y-3835111D01*
X8862401Y-3831944D01*
X8865844Y-3828926D01*
X8869460Y-3826062D01*
X8873249Y-3823359D01*
X8877209Y-3820822D01*
X8881339Y-3818458D01*
X8885638Y-3816272D01*
X8890104Y-3814271D01*
X8894736Y-3812460D01*
X8899533Y-3810845D01*
X8904493Y-3809432D01*
X8909616Y-3808227D01*
X8914900Y-3807237D01*
X8920343Y-3806466D01*
X8925945Y-3805921D01*
X9219850Y-3785171D01*
X9504514Y-3769952D01*
X10062030Y-3745449D01*
X10342838Y-3730837D01*
X10630317Y-3711102D01*
X10928444Y-3683577D01*
X11241198Y-3645601D01*
X11581843Y-3601616D01*
X11965701Y-3556514D01*
X12454629Y-3504787D01*
X13020659Y-3453020D01*
X13635827Y-3407799D01*
X13953099Y-3389702D01*
X14272167Y-3375711D01*
X14589537Y-3366649D01*
X14901713Y-3363340D01*
X16796706Y-3360738D01*
X17116067Y-3374614D01*
D11*
X8655000Y-12605000D02*
X8685000Y-12635000D01*
X8685000Y-12605000D02*
X8655000Y-12635000D01*
X8831481Y-13231481D02*
X8861481Y-13261481D01*
X8861481Y-13231481D02*
X8831481Y-13261481D01*
X8852500Y-11612500D02*
X8882500Y-11642500D01*
X8882500Y-11612500D02*
X8852500Y-11642500D01*
X8905000Y-11975000D02*
X8935000Y-12005000D01*
X8935000Y-11975000D02*
X8905000Y-12005000D01*
X8952500Y-9432500D02*
X8982500Y-9462500D01*
X8982500Y-9432500D02*
X8952500Y-9462500D01*
X8955000Y-13335000D02*
X8985000Y-13365000D01*
X8985000Y-13335000D02*
X8955000Y-13365000D01*
X9025000Y-10745000D02*
X9055000Y-10775000D01*
X9055000Y-10745000D02*
X9025000Y-10775000D01*
X9032500Y-12252500D02*
X9062500Y-12282500D01*
X9062500Y-12252500D02*
X9032500Y-12282500D01*
X9052500Y-12772500D02*
X9082500Y-12802500D01*
X9082500Y-12772500D02*
X9052500Y-12802500D01*
X9112500Y-8432500D02*
X9142500Y-8462500D01*
X9142500Y-8432500D02*
X9112500Y-8462500D01*
X9112500Y-9962500D02*
X9142500Y-9992500D01*
X9142500Y-9962500D02*
X9112500Y-9992500D01*
X9112500Y-11862500D02*
X9142500Y-11892500D01*
X9142500Y-11862500D02*
X9112500Y-11892500D01*
X9167500Y-8207500D02*
X9197500Y-8237500D01*
X9197500Y-8207500D02*
X9167500Y-8237500D01*
X9202500Y-12622500D02*
X9232500Y-12652500D01*
X9232500Y-12622500D02*
X9202500Y-12652500D01*
X9232500Y-5082500D02*
X9262500Y-5112500D01*
X9262500Y-5082500D02*
X9232500Y-5112500D01*
X9232500Y-5592500D02*
X9262500Y-5622500D01*
X9262500Y-5592500D02*
X9232500Y-5622500D01*
X9232500Y-5842500D02*
X9262500Y-5872500D01*
X9262500Y-5842500D02*
X9232500Y-5872500D01*
X9232500Y-6102500D02*
X9262500Y-6132500D01*
X9262500Y-6102500D02*
X9232500Y-6132500D01*
X9242500Y-6362500D02*
X9272500Y-6392500D01*
X9272500Y-6362500D02*
X9242500Y-6392500D01*
X9242500Y-6602500D02*
X9272500Y-6632500D01*
X9272500Y-6602500D02*
X9242500Y-6632500D01*
X9242500Y-6862500D02*
X9272500Y-6892500D01*
X9272500Y-6862500D02*
X9242500Y-6892500D01*
X9252500Y-4322500D02*
X9282500Y-4352500D01*
X9282500Y-4322500D02*
X9252500Y-4352500D01*
X9262500Y-4042500D02*
X9292500Y-4072500D01*
X9292500Y-4042500D02*
X9262500Y-4072500D01*
X9282500Y-9772500D02*
X9312500Y-9802500D01*
X9312500Y-9772500D02*
X9282500Y-9802500D01*
X9325000Y-13925000D02*
X9355000Y-13955000D01*
X9355000Y-13925000D02*
X9325000Y-13955000D01*
X9332500Y-7102500D02*
X9362500Y-7132500D01*
X9362500Y-7102500D02*
X9332500Y-7132500D01*
X9402500Y-9412500D02*
X9432500Y-9442500D01*
X9432500Y-9412500D02*
X9402500Y-9442500D01*
X9425000Y-12075000D02*
X9455000Y-12105000D01*
X9455000Y-12075000D02*
X9425000Y-12105000D01*
X9437829Y-9217171D02*
X9467829Y-9247171D01*
X9467829Y-9217171D02*
X9437829Y-9247171D01*
X9455000Y-10355000D02*
X9485000Y-10385000D01*
X9485000Y-10355000D02*
X9455000Y-10385000D01*
X9529125Y-12003503D02*
X9559125Y-12033503D01*
X9559125Y-12003503D02*
X9529125Y-12033503D01*
X9552500Y-9852500D02*
X9582500Y-9882500D01*
X9582500Y-9852500D02*
X9552500Y-9882500D01*
X9578900Y-4752700D02*
X9608900Y-4782700D01*
X9608900Y-4752700D02*
X9578900Y-4782700D01*
X9578900Y-5260700D02*
X9608900Y-5290700D01*
X9608900Y-5260700D02*
X9578900Y-5290700D01*
X9578900Y-5514700D02*
X9608900Y-5544700D01*
X9608900Y-5514700D02*
X9578900Y-5544700D01*
X9578900Y-5768700D02*
X9608900Y-5798700D01*
X9608900Y-5768700D02*
X9578900Y-5798700D01*
X9578900Y-6022700D02*
X9608900Y-6052700D01*
X9608900Y-6022700D02*
X9578900Y-6052700D01*
X9578900Y-6276700D02*
X9608900Y-6306700D01*
X9608900Y-6276700D02*
X9578900Y-6306700D01*
X9578900Y-6530700D02*
X9608900Y-6560700D01*
X9608900Y-6530700D02*
X9578900Y-6560700D01*
X9578900Y-6784700D02*
X9608900Y-6814700D01*
X9608900Y-6784700D02*
X9578900Y-6814700D01*
X9578900Y-7038700D02*
X9608900Y-7068700D01*
X9608900Y-7038700D02*
X9578900Y-7068700D01*
X9632500Y-11522500D02*
X9662500Y-11552500D01*
X9662500Y-11522500D02*
X9632500Y-11552500D01*
X9652500Y-11222500D02*
X9682500Y-11252500D01*
X9682500Y-11222500D02*
X9652500Y-11252500D01*
X9682500Y-13832500D02*
X9712500Y-13862500D01*
X9712500Y-13832500D02*
X9682500Y-13862500D01*
X9692500Y-5413100D02*
X9722500Y-5443100D01*
X9722500Y-5413100D02*
X9692500Y-5443100D01*
X9722500Y-14212500D02*
X9752500Y-14242500D01*
X9752500Y-14212500D02*
X9722500Y-14242500D01*
X9752500Y-4842500D02*
X9782500Y-4872500D01*
X9782500Y-4842500D02*
X9752500Y-4872500D01*
X9762500Y-4262500D02*
X9792500Y-4292500D01*
X9792500Y-4262500D02*
X9762500Y-4292500D01*
X9762500Y-4562500D02*
X9792500Y-4592500D01*
X9792500Y-4562500D02*
X9762500Y-4592500D01*
X9762500Y-10072500D02*
X9792500Y-10102500D01*
X9792500Y-10072500D02*
X9762500Y-10102500D01*
X9772500Y-5159100D02*
X9802500Y-5189100D01*
X9802500Y-5159100D02*
X9772500Y-5189100D01*
X9842500Y-8262500D02*
X9872500Y-8292500D01*
X9872500Y-8262500D02*
X9842500Y-8292500D01*
X9872500Y-10982500D02*
X9902500Y-11012500D01*
X9902500Y-10982500D02*
X9872500Y-11012500D01*
X9876981Y-12178319D02*
X9906981Y-12208319D01*
X9906981Y-12178319D02*
X9876981Y-12208319D01*
X9882500Y-3912500D02*
X9912500Y-3942500D01*
X9912500Y-3912500D02*
X9882500Y-3942500D01*
X9882500Y-5642500D02*
X9912500Y-5672500D01*
X9912500Y-5642500D02*
X9882500Y-5672500D01*
X9882500Y-5842500D02*
X9912500Y-5872500D01*
X9912500Y-5842500D02*
X9882500Y-5872500D01*
X9882500Y-6102500D02*
X9912500Y-6132500D01*
X9912500Y-6102500D02*
X9882500Y-6132500D01*
X9882500Y-6352500D02*
X9912500Y-6382500D01*
X9912500Y-6352500D02*
X9882500Y-6382500D01*
X9882500Y-6602500D02*
X9912500Y-6632500D01*
X9912500Y-6602500D02*
X9882500Y-6632500D01*
X9882500Y-6862500D02*
X9912500Y-6892500D01*
X9912500Y-6862500D02*
X9882500Y-6892500D01*
X9882500Y-7802500D02*
X9912500Y-7832500D01*
X9912500Y-7802500D02*
X9882500Y-7832500D01*
X9882500Y-7908495D02*
X9912500Y-7938495D01*
X9912500Y-7908495D02*
X9882500Y-7938495D01*
X9892500Y-5072500D02*
X9922500Y-5102500D01*
X9922500Y-5072500D02*
X9892500Y-5102500D01*
X9892500Y-10082500D02*
X9922500Y-10112500D01*
X9922500Y-10082500D02*
X9892500Y-10112500D01*
X9902500Y-5342500D02*
X9932500Y-5372500D01*
X9932500Y-5342500D02*
X9902500Y-5372500D01*
X9902500Y-10372500D02*
X9932500Y-10402500D01*
X9932500Y-10372500D02*
X9902500Y-10402500D01*
X9902500Y-10682500D02*
X9932500Y-10712500D01*
X9932500Y-10682500D02*
X9902500Y-10712500D01*
X9902500Y-11302500D02*
X9932500Y-11332500D01*
X9932500Y-11302500D02*
X9902500Y-11332500D01*
X9930300Y-5514700D02*
X9960300Y-5544700D01*
X9960300Y-5514700D02*
X9930300Y-5544700D01*
X9992500Y-4842500D02*
X10022500Y-4872500D01*
X10022500Y-4842500D02*
X9992500Y-4872500D01*
X10002500Y-4262500D02*
X10032500Y-4292500D01*
X10032500Y-4262500D02*
X10002500Y-4292500D01*
X10002500Y-4562500D02*
X10032500Y-4592500D01*
X10032500Y-4562500D02*
X10002500Y-4592500D01*
X10042500Y-8462500D02*
X10072500Y-8492500D01*
X10072500Y-8462500D02*
X10042500Y-8492500D01*
X10042500Y-13932500D02*
X10072500Y-13962500D01*
X10072500Y-13932500D02*
X10042500Y-13962500D01*
X10052500Y-7982500D02*
X10082500Y-8012500D01*
X10082500Y-7982500D02*
X10052500Y-8012500D01*
X10096700Y-6276700D02*
X10126700Y-6306700D01*
X10126700Y-6276700D02*
X10096700Y-6306700D01*
X10105000Y-8810000D02*
X10135000Y-8840000D01*
X10135000Y-8810000D02*
X10105000Y-8840000D01*
X10112500Y-4012500D02*
X10142500Y-4042500D01*
X10142500Y-4012500D02*
X10112500Y-4042500D01*
X10112500Y-10442500D02*
X10142500Y-10472500D01*
X10142500Y-10442500D02*
X10112500Y-10472500D01*
X10138700Y-5768700D02*
X10168700Y-5798700D01*
X10168700Y-5768700D02*
X10138700Y-5798700D01*
X10142500Y-7222500D02*
X10172500Y-7252500D01*
X10172500Y-7222500D02*
X10142500Y-7252500D01*
X10155000Y-12615000D02*
X10185000Y-12645000D01*
X10185000Y-12615000D02*
X10155000Y-12645000D01*
X10162500Y-10692500D02*
X10192500Y-10722500D01*
X10192500Y-10692500D02*
X10162500Y-10722500D01*
X10162500Y-14212500D02*
X10192500Y-14242500D01*
X10192500Y-14212500D02*
X10162500Y-14242500D01*
X10163100Y-4143100D02*
X10193100Y-4173100D01*
X10193100Y-4143100D02*
X10163100Y-4173100D01*
X10163100Y-4397100D02*
X10193100Y-4427100D01*
X10193100Y-4397100D02*
X10163100Y-4427100D01*
X10163100Y-5159100D02*
X10193100Y-5189100D01*
X10193100Y-5159100D02*
X10163100Y-5189100D01*
X10163100Y-5413100D02*
X10193100Y-5443100D01*
X10193100Y-5413100D02*
X10163100Y-5443100D01*
X10163100Y-5921100D02*
X10193100Y-5951100D01*
X10193100Y-5921100D02*
X10163100Y-5951100D01*
X10163100Y-6175100D02*
X10193100Y-6205100D01*
X10193100Y-6175100D02*
X10163100Y-6205100D01*
X10163100Y-6429100D02*
X10193100Y-6459100D01*
X10193100Y-6429100D02*
X10163100Y-6459100D01*
X10163100Y-6683100D02*
X10193100Y-6713100D01*
X10193100Y-6683100D02*
X10163100Y-6713100D01*
X10163100Y-6937100D02*
X10193100Y-6967100D01*
X10193100Y-6937100D02*
X10163100Y-6967100D01*
X10205000Y-9875000D02*
X10235000Y-9905000D01*
X10235000Y-9875000D02*
X10205000Y-9905000D01*
X10242500Y-10982500D02*
X10272500Y-11012500D01*
X10272500Y-10982500D02*
X10242500Y-11012500D01*
X10272500Y-10392500D02*
X10302500Y-10422500D01*
X10302500Y-10392500D02*
X10272500Y-10422500D01*
X10282500Y-5852500D02*
X10312500Y-5882500D01*
X10312500Y-5852500D02*
X10282500Y-5882500D01*
X10292500Y-7392500D02*
X10322500Y-7422500D01*
X10322500Y-7392500D02*
X10292500Y-7422500D01*
X10315000Y-8895000D02*
X10345000Y-8925000D01*
X10345000Y-8895000D02*
X10315000Y-8925000D01*
X10322500Y-10532500D02*
X10352500Y-10562500D01*
X10352500Y-10532500D02*
X10322500Y-10562500D01*
X10360900Y-12418300D02*
X10390900Y-12448300D01*
X10390900Y-12418300D02*
X10360900Y-12448300D01*
X10395000Y-8479950D02*
X10425000Y-8509950D01*
X10425000Y-8479950D02*
X10395000Y-8509950D01*
X10412254Y-12738607D02*
X10442254Y-12768607D01*
X10442254Y-12738607D02*
X10412254Y-12768607D01*
X10455000Y-13785000D02*
X10485000Y-13815000D01*
X10485000Y-13785000D02*
X10455000Y-13815000D01*
X10472500Y-8082500D02*
X10502500Y-8112500D01*
X10502500Y-8082500D02*
X10472500Y-8112500D01*
X10512500Y-7872500D02*
X10542500Y-7902500D01*
X10542500Y-7872500D02*
X10512500Y-7902500D01*
X10532500Y-4072500D02*
X10562500Y-4102500D01*
X10562500Y-4072500D02*
X10532500Y-4102500D01*
X10532500Y-4312500D02*
X10562500Y-4342500D01*
X10562500Y-4312500D02*
X10532500Y-4342500D01*
X10532500Y-4562500D02*
X10562500Y-4592500D01*
X10562500Y-4562500D02*
X10532500Y-4592500D01*
X10532500Y-5082500D02*
X10562500Y-5112500D01*
X10562500Y-5082500D02*
X10532500Y-5112500D01*
X10532500Y-5332500D02*
X10562500Y-5362500D01*
X10562500Y-5332500D02*
X10532500Y-5362500D01*
X10532500Y-5582500D02*
X10562500Y-5612500D01*
X10562500Y-5582500D02*
X10532500Y-5612500D01*
X10532500Y-7452500D02*
X10562500Y-7482500D01*
X10562500Y-7452500D02*
X10532500Y-7482500D01*
X10542500Y-4832500D02*
X10572500Y-4862500D01*
X10572500Y-4832500D02*
X10542500Y-4862500D01*
X10632500Y-8070000D02*
X10662500Y-8100000D01*
X10662500Y-8070000D02*
X10632500Y-8100000D01*
X10632500Y-10992500D02*
X10662500Y-11022500D01*
X10662500Y-10992500D02*
X10632500Y-11022500D01*
X10642500Y-10072500D02*
X10672500Y-10102500D01*
X10672500Y-10072500D02*
X10642500Y-10102500D01*
X10662500Y-10582500D02*
X10692500Y-10612500D01*
X10692500Y-10582500D02*
X10662500Y-10612500D01*
X10691100Y-12583400D02*
X10721100Y-12613400D01*
X10721100Y-12583400D02*
X10691100Y-12613400D01*
X10702500Y-8352500D02*
X10732500Y-8382500D01*
X10732500Y-8352500D02*
X10702500Y-8382500D01*
X10702500Y-8732500D02*
X10732500Y-8762500D01*
X10732500Y-8732500D02*
X10702500Y-8762500D01*
X10738602Y-12479702D02*
X10768602Y-12509702D01*
X10768602Y-12479702D02*
X10738602Y-12509702D01*
X10802500Y-6782500D02*
X10832500Y-6812500D01*
X10832500Y-6782500D02*
X10802500Y-6812500D01*
X10811026Y-12831026D02*
X10841026Y-12861026D01*
X10841026Y-12831026D02*
X10811026Y-12861026D01*
X10822500Y-10802500D02*
X10852500Y-10832500D01*
X10852500Y-10802500D02*
X10822500Y-10832500D01*
X10872500Y-7072500D02*
X10902500Y-7102500D01*
X10902500Y-7072500D02*
X10872500Y-7102500D01*
X10872500Y-9452500D02*
X10902500Y-9482500D01*
X10902500Y-9452500D02*
X10872500Y-9482500D01*
X10875000Y-8575000D02*
X10905000Y-8605000D01*
X10905000Y-8575000D02*
X10875000Y-8605000D01*
X10885000Y-11830000D02*
X10915000Y-11860000D01*
X10915000Y-11830000D02*
X10885000Y-11860000D01*
X10892500Y-10602500D02*
X10922500Y-10632500D01*
X10922500Y-10602500D02*
X10892500Y-10632500D01*
X10915000Y-11335000D02*
X10945000Y-11365000D01*
X10945000Y-11335000D02*
X10915000Y-11365000D01*
X10915000Y-13735000D02*
X10945000Y-13765000D01*
X10945000Y-13735000D02*
X10915000Y-13765000D01*
X10935000Y-8935000D02*
X10965000Y-8965000D01*
X10965000Y-8935000D02*
X10935000Y-8965000D01*
X10942550Y-5675000D02*
X10972550Y-5705000D01*
X10972550Y-5675000D02*
X10942550Y-5705000D01*
X10955000Y-12235000D02*
X10985000Y-12265000D01*
X10985000Y-12235000D02*
X10955000Y-12265000D01*
X10955000Y-13015000D02*
X10985000Y-13045000D01*
X10985000Y-13015000D02*
X10955000Y-13045000D01*
X10972500Y-7362500D02*
X11002500Y-7392500D01*
X11002500Y-7362500D02*
X10972500Y-7392500D01*
X10985000Y-7695000D02*
X11015000Y-7725000D01*
X11015000Y-7695000D02*
X10985000Y-7725000D01*
X11005000Y-4965000D02*
X11035000Y-4995000D01*
X11035000Y-4965000D02*
X11005000Y-4995000D01*
X11025000Y-6175000D02*
X11055000Y-6205000D01*
X11055000Y-6175000D02*
X11025000Y-6205000D01*
X11042998Y-12552998D02*
X11072998Y-12582998D01*
X11072998Y-12552998D02*
X11042998Y-12582998D01*
X11054806Y-11674806D02*
X11084806Y-11704806D01*
X11084806Y-11674806D02*
X11054806Y-11704806D01*
X11055000Y-7635000D02*
X11085000Y-7665000D01*
X11085000Y-7635000D02*
X11055000Y-7665000D01*
X11055000Y-7925000D02*
X11085000Y-7955000D01*
X11085000Y-7925000D02*
X11055000Y-7955000D01*
X11055000Y-8375000D02*
X11085000Y-8405000D01*
X11085000Y-8375000D02*
X11055000Y-8405000D01*
X11055000Y-9775000D02*
X11085000Y-9805000D01*
X11085000Y-9775000D02*
X11055000Y-9805000D01*
X11055000Y-11315000D02*
X11085000Y-11345000D01*
X11085000Y-11315000D02*
X11055000Y-11345000D01*
X11055000Y-11876455D02*
X11085000Y-11906455D01*
X11085000Y-11876455D02*
X11055000Y-11906455D01*
X11075000Y-5435000D02*
X11105000Y-5465000D01*
X11105000Y-5435000D02*
X11075000Y-5465000D01*
X11085000Y-4285000D02*
X11115000Y-4315000D01*
X11115000Y-4285000D02*
X11085000Y-4315000D01*
X11085000Y-4485000D02*
X11115000Y-4515000D01*
X11115000Y-4485000D02*
X11085000Y-4515000D01*
X11085000Y-4735000D02*
X11115000Y-4765000D01*
X11115000Y-4735000D02*
X11085000Y-4765000D01*
X11085000Y-7215000D02*
X11115000Y-7245000D01*
X11115000Y-7215000D02*
X11085000Y-7245000D01*
X11135000Y-4055000D02*
X11165000Y-4085000D01*
X11165000Y-4055000D02*
X11135000Y-4085000D01*
X11145000Y-6335000D02*
X11175000Y-6365000D01*
X11175000Y-6335000D02*
X11145000Y-6365000D01*
X11145000Y-8695000D02*
X11175000Y-8725000D01*
X11175000Y-8695000D02*
X11145000Y-8725000D01*
X11145000Y-9310000D02*
X11175000Y-9340000D01*
X11175000Y-9310000D02*
X11145000Y-9340000D01*
X11152050Y-6981331D02*
X11182050Y-7011331D01*
X11182050Y-6981331D02*
X11152050Y-7011331D01*
X11152500Y-11879201D02*
X11182500Y-11909201D01*
X11182500Y-11879201D02*
X11152500Y-11909201D01*
X11185000Y-10535000D02*
X11215000Y-10565000D01*
X11215000Y-10535000D02*
X11185000Y-10565000D01*
X11185000Y-10785000D02*
X11215000Y-10815000D01*
X11215000Y-10785000D02*
X11185000Y-10815000D01*
X11185000Y-11335000D02*
X11215000Y-11365000D01*
X11215000Y-11335000D02*
X11185000Y-11365000D01*
X11192500Y-9602500D02*
X11222500Y-9632500D01*
X11222500Y-9602500D02*
X11192500Y-9632500D01*
X11212500Y-10032500D02*
X11242500Y-10062500D01*
X11242500Y-10032500D02*
X11212500Y-10062500D01*
X11235000Y-5685000D02*
X11265000Y-5715000D01*
X11265000Y-5685000D02*
X11235000Y-5715000D01*
X11235000Y-5995000D02*
X11265000Y-6025000D01*
X11265000Y-5995000D02*
X11235000Y-6025000D01*
X11245000Y-12045000D02*
X11275000Y-12075000D01*
X11275000Y-12045000D02*
X11245000Y-12075000D01*
X11245000Y-12745000D02*
X11275000Y-12775000D01*
X11275000Y-12745000D02*
X11245000Y-12775000D01*
X11285000Y-7535000D02*
X11315000Y-7565000D01*
X11315000Y-7535000D02*
X11285000Y-7565000D01*
X11305000Y-12325000D02*
X11335000Y-12355000D01*
X11335000Y-12325000D02*
X11305000Y-12355000D01*
X11335000Y-3935000D02*
X11365000Y-3965000D01*
X11365000Y-3935000D02*
X11335000Y-3965000D01*
X11335000Y-6905000D02*
X11365000Y-6935000D01*
X11365000Y-6905000D02*
X11335000Y-6935000D01*
X11335000Y-10675000D02*
X11365000Y-10705000D01*
X11365000Y-10675000D02*
X11335000Y-10705000D01*
X11335000Y-11355000D02*
X11365000Y-11385000D01*
X11365000Y-11355000D02*
X11335000Y-11385000D01*
X11345000Y-12615000D02*
X11375000Y-12645000D01*
X11375000Y-12615000D02*
X11345000Y-12645000D01*
X11385000Y-4235000D02*
X11415000Y-4265000D01*
X11415000Y-4235000D02*
X11385000Y-4265000D01*
X11385000Y-4485000D02*
X11415000Y-4515000D01*
X11415000Y-4485000D02*
X11385000Y-4515000D01*
X11385000Y-4635000D02*
X11415000Y-4665000D01*
X11415000Y-4635000D02*
X11385000Y-4665000D01*
X11385000Y-7655000D02*
X11415000Y-7685000D01*
X11415000Y-7655000D02*
X11385000Y-7685000D01*
X11395000Y-6785000D02*
X11425000Y-6815000D01*
X11425000Y-6785000D02*
X11395000Y-6815000D01*
X11435000Y-6335000D02*
X11465000Y-6365000D01*
X11465000Y-6335000D02*
X11435000Y-6365000D01*
X11445000Y-6115000D02*
X11475000Y-6145000D01*
X11475000Y-6115000D02*
X11445000Y-6145000D01*
X11452500Y-10092500D02*
X11482500Y-10122500D01*
X11482500Y-10092500D02*
X11452500Y-10122500D01*
X11465000Y-7564391D02*
X11495000Y-7594391D01*
X11495000Y-7564391D02*
X11465000Y-7594391D01*
X11465000Y-9525000D02*
X11495000Y-9555000D01*
X11495000Y-9525000D02*
X11465000Y-9555000D01*
X11472500Y-5752500D02*
X11502500Y-5782500D01*
X11502500Y-5752500D02*
X11472500Y-5782500D01*
X11485000Y-7985000D02*
X11515000Y-8015000D01*
X11515000Y-7985000D02*
X11485000Y-8015000D01*
X11485000Y-8135000D02*
X11515000Y-8165000D01*
X11515000Y-8135000D02*
X11485000Y-8165000D01*
X11486194Y-11345000D02*
X11516194Y-11375000D01*
X11516194Y-11345000D02*
X11486194Y-11375000D01*
X11505000Y-5655000D02*
X11535000Y-5685000D01*
X11535000Y-5655000D02*
X11505000Y-5685000D01*
X11545000Y-4235000D02*
X11575000Y-4265000D01*
X11575000Y-4235000D02*
X11545000Y-4265000D01*
X11565000Y-9945000D02*
X11595000Y-9975000D01*
X11595000Y-9945000D02*
X11565000Y-9975000D01*
X11585000Y-6335000D02*
X11615000Y-6365000D01*
X11615000Y-6335000D02*
X11585000Y-6365000D01*
X11585000Y-8635000D02*
X11615000Y-8665000D01*
X11615000Y-8635000D02*
X11585000Y-8665000D01*
X11595000Y-5625000D02*
X11625000Y-5655000D01*
X11625000Y-5625000D02*
X11595000Y-5655000D01*
X11605000Y-9455000D02*
X11635000Y-9485000D01*
X11635000Y-9455000D02*
X11605000Y-9485000D01*
X11662500Y-5812500D02*
X11692500Y-5842500D01*
X11692500Y-5812500D02*
X11662500Y-5842500D01*
X11685000Y-4405000D02*
X11715000Y-4435000D01*
X11715000Y-4405000D02*
X11685000Y-4435000D01*
X11685000Y-6295000D02*
X11715000Y-6325000D01*
X11715000Y-6295000D02*
X11685000Y-6325000D01*
X11685000Y-8195000D02*
X11715000Y-8225000D01*
X11715000Y-8195000D02*
X11685000Y-8225000D01*
X11685000Y-10105000D02*
X11715000Y-10135000D01*
X11715000Y-10105000D02*
X11685000Y-10135000D01*
X11722500Y-10522500D02*
X11752500Y-10552500D01*
X11752500Y-10522500D02*
X11722500Y-10552500D01*
X11735000Y-3935000D02*
X11765000Y-3965000D01*
X11765000Y-3935000D02*
X11735000Y-3965000D01*
X11736074Y-11686074D02*
X11766074Y-11716074D01*
X11766074Y-11686074D02*
X11736074Y-11716074D01*
X11752500Y-6682500D02*
X11782500Y-6712500D01*
X11782500Y-6682500D02*
X11752500Y-6712500D01*
X12035000Y-12085000D02*
X12065000Y-12115000D01*
X12065000Y-12085000D02*
X12035000Y-12115000D01*
X12055000Y-11623624D02*
X12085000Y-11653624D01*
X12085000Y-11623624D02*
X12055000Y-11653624D01*
X12165000Y-12115000D02*
X12195000Y-12145000D01*
X12195000Y-12115000D02*
X12165000Y-12145000D01*
X12235000Y-3935000D02*
X12265000Y-3965000D01*
X12265000Y-3935000D02*
X12235000Y-3965000D01*
X12375000Y-4395000D02*
X12405000Y-4425000D01*
X12405000Y-4395000D02*
X12375000Y-4425000D01*
X12375000Y-6295000D02*
X12405000Y-6325000D01*
X12405000Y-6295000D02*
X12375000Y-6325000D01*
X12375000Y-8205000D02*
X12405000Y-8235000D01*
X12405000Y-8205000D02*
X12375000Y-8235000D01*
X12375000Y-10115000D02*
X12405000Y-10145000D01*
X12405000Y-10115000D02*
X12375000Y-10145000D01*
X12462500Y-11612500D02*
X12492500Y-11642500D01*
X12492500Y-11612500D02*
X12462500Y-11642500D01*
X12472500Y-11962500D02*
X12502500Y-11992500D01*
X12502500Y-11962500D02*
X12472500Y-11992500D01*
X12475000Y-6305000D02*
X12505000Y-6335000D01*
X12505000Y-6305000D02*
X12475000Y-6335000D01*
X12485000Y-8235000D02*
X12515000Y-8265000D01*
X12515000Y-8235000D02*
X12485000Y-8265000D01*
X12485000Y-13275000D02*
X12515000Y-13305000D01*
X12515000Y-13275000D02*
X12485000Y-13305000D01*
X12495000Y-7815000D02*
X12525000Y-7845000D01*
X12525000Y-7815000D02*
X12495000Y-7845000D01*
X12495000Y-10115000D02*
X12525000Y-10145000D01*
X12525000Y-10115000D02*
X12495000Y-10145000D01*
X12505000Y-11755000D02*
X12535000Y-11785000D01*
X12535000Y-11755000D02*
X12505000Y-11785000D01*
X12540000Y-4390000D02*
X12570000Y-4420000D01*
X12570000Y-4390000D02*
X12540000Y-4420000D01*
X12565000Y-6195000D02*
X12595000Y-6225000D01*
X12595000Y-6195000D02*
X12565000Y-6225000D01*
X12585000Y-4185000D02*
X12615000Y-4215000D01*
X12615000Y-4185000D02*
X12585000Y-4215000D01*
X12592500Y-6442500D02*
X12622500Y-6472500D01*
X12622500Y-6442500D02*
X12592500Y-6472500D01*
X12635000Y-8235000D02*
X12665000Y-8265000D01*
X12665000Y-8235000D02*
X12635000Y-8265000D01*
X12635000Y-8585000D02*
X12665000Y-8615000D01*
X12665000Y-8585000D02*
X12635000Y-8615000D01*
X12662500Y-5732500D02*
X12692500Y-5762500D01*
X12692500Y-5732500D02*
X12662500Y-5762500D01*
X12665000Y-5975000D02*
X12695000Y-6005000D01*
X12695000Y-5975000D02*
X12665000Y-6005000D01*
X12665000Y-11635000D02*
X12695000Y-11665000D01*
X12695000Y-11635000D02*
X12665000Y-11665000D01*
X12675000Y-10135000D02*
X12705000Y-10165000D01*
X12705000Y-10135000D02*
X12675000Y-10165000D01*
X12682500Y-10502500D02*
X12712500Y-10532500D01*
X12712500Y-10502500D02*
X12682500Y-10532500D01*
X12685000Y-3935000D02*
X12715000Y-3965000D01*
X12715000Y-3935000D02*
X12685000Y-3965000D01*
X12705000Y-12255000D02*
X12735000Y-12285000D01*
X12735000Y-12255000D02*
X12705000Y-12285000D01*
X12705000Y-12995000D02*
X12735000Y-13025000D01*
X12735000Y-12995000D02*
X12705000Y-13025000D01*
X12712500Y-6612500D02*
X12742500Y-6642500D01*
X12742500Y-6612500D02*
X12712500Y-6642500D01*
X12752500Y-6792500D02*
X12782500Y-6822500D01*
X12782500Y-6792500D02*
X12752500Y-6822500D01*
X12805000Y-7645000D02*
X12835000Y-7675000D01*
X12835000Y-7645000D02*
X12805000Y-7675000D01*
X12815000Y-9805000D02*
X12845000Y-9835000D01*
X12845000Y-9805000D02*
X12815000Y-9835000D01*
X12835000Y-8035000D02*
X12865000Y-8065000D01*
X12865000Y-8035000D02*
X12835000Y-8065000D01*
X12885000Y-4905000D02*
X12915000Y-4935000D01*
X12915000Y-4905000D02*
X12885000Y-4935000D01*
X12885000Y-6735000D02*
X12915000Y-6765000D01*
X12915000Y-6735000D02*
X12885000Y-6765000D01*
X12885000Y-8715000D02*
X12915000Y-8745000D01*
X12915000Y-8715000D02*
X12885000Y-8745000D01*
X12885000Y-10615000D02*
X12915000Y-10645000D01*
X12915000Y-10615000D02*
X12885000Y-10645000D01*
X12905000Y-11665000D02*
X12935000Y-11695000D01*
X12935000Y-11665000D02*
X12905000Y-11695000D01*
X12905000Y-13255000D02*
X12935000Y-13285000D01*
X12935000Y-13255000D02*
X12905000Y-13285000D01*
X12955000Y-12245000D02*
X12985000Y-12275000D01*
X12985000Y-12245000D02*
X12955000Y-12275000D01*
X12965000Y-3985000D02*
X12995000Y-4015000D01*
X12995000Y-3985000D02*
X12965000Y-4015000D01*
X12977500Y-4407500D02*
X13007500Y-4437500D01*
X13007500Y-4407500D02*
X12977500Y-4437500D01*
X12982500Y-8207500D02*
X13012500Y-8237500D01*
X13012500Y-8207500D02*
X12982500Y-8237500D01*
X12982500Y-11552500D02*
X13012500Y-11582500D01*
X13012500Y-11552500D02*
X12982500Y-11582500D01*
X12985000Y-4135000D02*
X13015000Y-4165000D01*
X13015000Y-4135000D02*
X12985000Y-4165000D01*
X12985000Y-6265000D02*
X13015000Y-6295000D01*
X13015000Y-6265000D02*
X12985000Y-6295000D01*
X12985000Y-11935000D02*
X13015000Y-11965000D01*
X13015000Y-11935000D02*
X12985000Y-11965000D01*
X12992500Y-10107500D02*
X13022500Y-10137500D01*
X13022500Y-10107500D02*
X12992500Y-10137500D01*
X12995000Y-7465000D02*
X13025000Y-7495000D01*
X13025000Y-7465000D02*
X12995000Y-7495000D01*
X12995000Y-12725000D02*
X13025000Y-12755000D01*
X13025000Y-12725000D02*
X12995000Y-12755000D01*
X13086000Y-12464000D02*
X13116000Y-12494000D01*
X13116000Y-12464000D02*
X13086000Y-12494000D01*
X13092500Y-10342500D02*
X13122500Y-10372500D01*
X13122500Y-10342500D02*
X13092500Y-10372500D01*
X13095000Y-6765000D02*
X13125000Y-6795000D01*
X13125000Y-6765000D02*
X13095000Y-6795000D01*
X13099071Y-3869950D02*
X13129071Y-3899950D01*
X13129071Y-3869950D02*
X13099071Y-3899950D01*
X13101000Y-8669000D02*
X13131000Y-8699000D01*
X13131000Y-8669000D02*
X13101000Y-8699000D01*
X13102500Y-11282500D02*
X13132500Y-11312500D01*
X13132500Y-11282500D02*
X13102500Y-11312500D01*
X13106000Y-10584000D02*
X13136000Y-10614000D01*
X13136000Y-10584000D02*
X13106000Y-10614000D01*
X13111000Y-4869000D02*
X13141000Y-4899000D01*
X13141000Y-4869000D02*
X13111000Y-4899000D01*
X13122500Y-11032500D02*
X13152500Y-11062500D01*
X13152500Y-11032500D02*
X13122500Y-11062500D01*
X13135000Y-7335000D02*
X13165000Y-7365000D01*
X13165000Y-7335000D02*
X13135000Y-7365000D01*
X13135000Y-8035000D02*
X13165000Y-8065000D01*
X13165000Y-8035000D02*
X13135000Y-8065000D01*
X13165000Y-8975000D02*
X13195000Y-9005000D01*
X13195000Y-8975000D02*
X13165000Y-9005000D01*
X13185000Y-8435000D02*
X13215000Y-8465000D01*
X13215000Y-8435000D02*
X13185000Y-8465000D01*
X13205000Y-6215000D02*
X13235000Y-6245000D01*
X13235000Y-6215000D02*
X13205000Y-6245000D01*
X13205000Y-6605000D02*
X13235000Y-6635000D01*
X13235000Y-6605000D02*
X13205000Y-6635000D01*
X13205000Y-12525000D02*
X13235000Y-12555000D01*
X13235000Y-12525000D02*
X13205000Y-12555000D01*
X13235000Y-3885000D02*
X13265000Y-3915000D01*
X13265000Y-3885000D02*
X13235000Y-3915000D01*
X13245000Y-10045000D02*
X13275000Y-10075000D01*
X13275000Y-10045000D02*
X13245000Y-10075000D01*
X13285000Y-5405000D02*
X13315000Y-5435000D01*
X13315000Y-5405000D02*
X13285000Y-5435000D01*
X13285000Y-6455000D02*
X13315000Y-6485000D01*
X13315000Y-6455000D02*
X13285000Y-6485000D01*
X13285000Y-7425000D02*
X13315000Y-7455000D01*
X13315000Y-7425000D02*
X13285000Y-7455000D01*
X13285000Y-11555000D02*
X13315000Y-11585000D01*
X13315000Y-11555000D02*
X13285000Y-11585000D01*
X13292500Y-10342500D02*
X13322500Y-10372500D01*
X13322500Y-10342500D02*
X13292500Y-10372500D01*
X13295000Y-11155000D02*
X13325000Y-11185000D01*
X13325000Y-11155000D02*
X13295000Y-11185000D01*
X13345000Y-4545000D02*
X13375000Y-4575000D01*
X13375000Y-4545000D02*
X13345000Y-4575000D01*
X13345000Y-9265000D02*
X13375000Y-9295000D01*
X13375000Y-9265000D02*
X13345000Y-9295000D01*
X13355000Y-8365000D02*
X13385000Y-8395000D01*
X13385000Y-8365000D02*
X13355000Y-8395000D01*
X13365000Y-5585000D02*
X13395000Y-5615000D01*
X13395000Y-5585000D02*
X13365000Y-5615000D01*
X13375000Y-6455000D02*
X13405000Y-6485000D01*
X13405000Y-6455000D02*
X13375000Y-6485000D01*
X13375000Y-7355000D02*
X13405000Y-7385000D01*
X13405000Y-7355000D02*
X13375000Y-7385000D01*
X13385000Y-4135000D02*
X13415000Y-4165000D01*
X13415000Y-4135000D02*
X13385000Y-4165000D01*
X13385000Y-8085000D02*
X13415000Y-8115000D01*
X13415000Y-8085000D02*
X13385000Y-8115000D01*
X13395000Y-6215000D02*
X13425000Y-6245000D01*
X13425000Y-6215000D02*
X13395000Y-6245000D01*
X13395000Y-11145000D02*
X13425000Y-11175000D01*
X13425000Y-11145000D02*
X13395000Y-11175000D01*
X13405000Y-9205000D02*
X13435000Y-9235000D01*
X13435000Y-9205000D02*
X13405000Y-9235000D01*
X13435000Y-3885000D02*
X13465000Y-3915000D01*
X13465000Y-3885000D02*
X13435000Y-3915000D01*
X13435000Y-5425000D02*
X13465000Y-5455000D01*
X13465000Y-5425000D02*
X13435000Y-5455000D01*
X13435000Y-8385000D02*
X13465000Y-8415000D01*
X13465000Y-8385000D02*
X13435000Y-8415000D01*
X13435000Y-10025000D02*
X13465000Y-10055000D01*
X13465000Y-10025000D02*
X13435000Y-10055000D01*
X13455000Y-11585000D02*
X13485000Y-11615000D01*
X13485000Y-11585000D02*
X13455000Y-11615000D01*
X13475000Y-13135000D02*
X13505000Y-13165000D01*
X13505000Y-13135000D02*
X13475000Y-13165000D01*
X13482500Y-6027500D02*
X13512500Y-6057500D01*
X13512500Y-6027500D02*
X13482500Y-6057500D01*
X13505000Y-7345000D02*
X13535000Y-7375000D01*
X13535000Y-7345000D02*
X13505000Y-7375000D01*
X13512500Y-10262500D02*
X13542500Y-10292500D01*
X13542500Y-10262500D02*
X13512500Y-10292500D01*
X13585000Y-7955000D02*
X13615000Y-7985000D01*
X13615000Y-7955000D02*
X13585000Y-7985000D01*
X13585000Y-9885000D02*
X13615000Y-9915000D01*
X13615000Y-9885000D02*
X13585000Y-9915000D01*
X13595000Y-4145000D02*
X13625000Y-4175000D01*
X13625000Y-4145000D02*
X13595000Y-4175000D01*
X13595000Y-6055000D02*
X13625000Y-6085000D01*
X13625000Y-6055000D02*
X13595000Y-6085000D01*
X13635000Y-5605000D02*
X13665000Y-5635000D01*
X13665000Y-5605000D02*
X13635000Y-5635000D01*
X13635000Y-6485000D02*
X13665000Y-6515000D01*
X13665000Y-6485000D02*
X13635000Y-6515000D01*
X13665000Y-9365000D02*
X13695000Y-9395000D01*
X13695000Y-9365000D02*
X13665000Y-9395000D01*
X13935000Y-7135000D02*
X13965000Y-7165000D01*
X13965000Y-7135000D02*
X13935000Y-7165000D01*
X13935000Y-7335000D02*
X13965000Y-7365000D01*
X13965000Y-7335000D02*
X13935000Y-7365000D01*
X14025000Y-11555000D02*
X14055000Y-11585000D01*
X14055000Y-11555000D02*
X14025000Y-11585000D01*
X14105000Y-12025000D02*
X14135000Y-12055000D01*
X14135000Y-12025000D02*
X14105000Y-12055000D01*
X14235000Y-6485000D02*
X14265000Y-6515000D01*
X14265000Y-6485000D02*
X14235000Y-6515000D01*
X14275000Y-4145000D02*
X14305000Y-4175000D01*
X14305000Y-4145000D02*
X14275000Y-4175000D01*
X14275000Y-6055000D02*
X14305000Y-6085000D01*
X14305000Y-6055000D02*
X14275000Y-6085000D01*
X14275000Y-7975000D02*
X14305000Y-8005000D01*
X14305000Y-7975000D02*
X14275000Y-8005000D01*
X14275000Y-9885000D02*
X14305000Y-9915000D01*
X14305000Y-9885000D02*
X14275000Y-9915000D01*
X14365000Y-11675000D02*
X14395000Y-11705000D01*
X14395000Y-11675000D02*
X14365000Y-11705000D01*
X14385000Y-6045000D02*
X14415000Y-6075000D01*
X14415000Y-6045000D02*
X14385000Y-6075000D01*
X14392500Y-13062500D02*
X14422500Y-13092500D01*
X14422500Y-13062500D02*
X14392500Y-13092500D01*
X14395000Y-7965000D02*
X14425000Y-7995000D01*
X14425000Y-7965000D02*
X14395000Y-7995000D01*
X14395000Y-9855000D02*
X14425000Y-9885000D01*
X14425000Y-9855000D02*
X14395000Y-9885000D01*
X14425000Y-4305000D02*
X14455000Y-4335000D01*
X14455000Y-4305000D02*
X14425000Y-4335000D01*
X14435000Y-7385000D02*
X14465000Y-7415000D01*
X14465000Y-7385000D02*
X14435000Y-7415000D01*
X14455000Y-5645000D02*
X14485000Y-5675000D01*
X14485000Y-5645000D02*
X14455000Y-5675000D01*
X14505000Y-11995000D02*
X14535000Y-12025000D01*
X14535000Y-11995000D02*
X14505000Y-12025000D01*
X14535000Y-6135000D02*
X14565000Y-6165000D01*
X14565000Y-6135000D02*
X14535000Y-6165000D01*
X14555000Y-12705000D02*
X14585000Y-12735000D01*
X14585000Y-12705000D02*
X14555000Y-12735000D01*
X14585000Y-4285000D02*
X14615000Y-4315000D01*
X14615000Y-4285000D02*
X14585000Y-4315000D01*
X14585000Y-6485000D02*
X14615000Y-6515000D01*
X14615000Y-6485000D02*
X14585000Y-6515000D01*
X14585000Y-7785000D02*
X14615000Y-7815000D01*
X14615000Y-7785000D02*
X14585000Y-7815000D01*
X14585000Y-8085000D02*
X14615000Y-8115000D01*
X14615000Y-8085000D02*
X14585000Y-8115000D01*
X14585000Y-9685000D02*
X14615000Y-9715000D01*
X14615000Y-9685000D02*
X14585000Y-9715000D01*
X14585000Y-9885000D02*
X14615000Y-9915000D01*
X14615000Y-9885000D02*
X14585000Y-9915000D01*
X14585000Y-10085000D02*
X14615000Y-10115000D01*
X14615000Y-10085000D02*
X14585000Y-10115000D01*
X14615000Y-11435000D02*
X14645000Y-11465000D01*
X14645000Y-11435000D02*
X14615000Y-11465000D01*
X14665000Y-4585000D02*
X14695000Y-4615000D01*
X14695000Y-4585000D02*
X14665000Y-4615000D01*
X14685000Y-5885000D02*
X14715000Y-5915000D01*
X14715000Y-5885000D02*
X14685000Y-5915000D01*
X14685000Y-6085000D02*
X14715000Y-6115000D01*
X14715000Y-6085000D02*
X14685000Y-6115000D01*
X14685000Y-7135000D02*
X14715000Y-7165000D01*
X14715000Y-7135000D02*
X14685000Y-7165000D01*
X14685000Y-10285000D02*
X14715000Y-10315000D01*
X14715000Y-10285000D02*
X14685000Y-10315000D01*
X14685000Y-10485000D02*
X14715000Y-10515000D01*
X14715000Y-10485000D02*
X14685000Y-10515000D01*
X14685000Y-12875000D02*
X14715000Y-12905000D01*
X14715000Y-12875000D02*
X14685000Y-12905000D01*
X14735000Y-3635000D02*
X14765000Y-3665000D01*
X14765000Y-3635000D02*
X14735000Y-3665000D01*
X14735000Y-3935000D02*
X14765000Y-3965000D01*
X14765000Y-3935000D02*
X14735000Y-3965000D01*
X14745000Y-7555000D02*
X14775000Y-7585000D01*
X14775000Y-7555000D02*
X14745000Y-7585000D01*
X14765000Y-11775000D02*
X14795000Y-11805000D01*
X14795000Y-11775000D02*
X14765000Y-11805000D01*
X14782500Y-11132500D02*
X14812500Y-11162500D01*
X14812500Y-11132500D02*
X14782500Y-11162500D01*
X14785000Y-7785000D02*
X14815000Y-7815000D01*
X14815000Y-7785000D02*
X14785000Y-7815000D01*
X14785000Y-9285000D02*
X14815000Y-9315000D01*
X14815000Y-9285000D02*
X14785000Y-9315000D01*
X14796250Y-6146250D02*
X14826250Y-6176250D01*
X14826250Y-6146250D02*
X14796250Y-6176250D01*
X14809500Y-8039500D02*
X14839500Y-8069500D01*
X14839500Y-8039500D02*
X14809500Y-8069500D01*
X14815000Y-12005000D02*
X14845000Y-12035000D01*
X14845000Y-12005000D02*
X14815000Y-12035000D01*
X14855000Y-12905000D02*
X14885000Y-12935000D01*
X14885000Y-12905000D02*
X14855000Y-12935000D01*
X14885000Y-5785000D02*
X14915000Y-5815000D01*
X14915000Y-5785000D02*
X14885000Y-5815000D01*
X14885000Y-9685000D02*
X14915000Y-9715000D01*
X14915000Y-9685000D02*
X14885000Y-9715000D01*
X14885000Y-9975000D02*
X14915000Y-10005000D01*
X14915000Y-9975000D02*
X14885000Y-10005000D01*
X14885000Y-11535000D02*
X14915000Y-11565000D01*
X14915000Y-11535000D02*
X14885000Y-11565000D01*
X14945000Y-12755000D02*
X14975000Y-12785000D01*
X14975000Y-12755000D02*
X14945000Y-12785000D01*
X14955000Y-10765000D02*
X14985000Y-10795000D01*
X14985000Y-10765000D02*
X14955000Y-10795000D01*
X14955000Y-12085000D02*
X14985000Y-12115000D01*
X14985000Y-12085000D02*
X14955000Y-12115000D01*
X14971000Y-8319000D02*
X15001000Y-8349000D01*
X15001000Y-8319000D02*
X14971000Y-8349000D01*
X14977500Y-4107500D02*
X15007500Y-4137500D01*
X15007500Y-4107500D02*
X14977500Y-4137500D01*
X14977500Y-6412500D02*
X15007500Y-6442500D01*
X15007500Y-6412500D02*
X14977500Y-6442500D01*
X14985000Y-7085000D02*
X15015000Y-7115000D01*
X15015000Y-7085000D02*
X14985000Y-7115000D01*
X14985000Y-7285000D02*
X15015000Y-7315000D01*
X15015000Y-7285000D02*
X14985000Y-7315000D01*
X14985000Y-8485000D02*
X15015000Y-8515000D01*
X15015000Y-8485000D02*
X14985000Y-8515000D01*
X14985000Y-8685000D02*
X15015000Y-8715000D01*
X15015000Y-8685000D02*
X14985000Y-8715000D01*
X14985000Y-8985000D02*
X15015000Y-9015000D01*
X15015000Y-8985000D02*
X14985000Y-9015000D01*
X14985000Y-9285000D02*
X15015000Y-9315000D01*
X15015000Y-9285000D02*
X14985000Y-9315000D01*
X14985000Y-9985000D02*
X15015000Y-10015000D01*
X15015000Y-9985000D02*
X14985000Y-10015000D01*
X14985000Y-10385000D02*
X15015000Y-10415000D01*
X15015000Y-10385000D02*
X14985000Y-10415000D01*
X14985000Y-10585000D02*
X15015000Y-10615000D01*
X15015000Y-10585000D02*
X14985000Y-10615000D01*
X14985000Y-11985000D02*
X15015000Y-12015000D01*
X15015000Y-11985000D02*
X14985000Y-12015000D01*
X14987500Y-4462500D02*
X15017500Y-4492500D01*
X15017500Y-4462500D02*
X14987500Y-4492500D01*
X14992500Y-10212500D02*
X15022500Y-10242500D01*
X15022500Y-10212500D02*
X14992500Y-10242500D01*
X15025000Y-5605000D02*
X15055000Y-5635000D01*
X15055000Y-5605000D02*
X15025000Y-5635000D01*
X15035000Y-12565000D02*
X15065000Y-12595000D01*
X15065000Y-12565000D02*
X15035000Y-12595000D01*
X15065000Y-6155000D02*
X15095000Y-6185000D01*
X15095000Y-6155000D02*
X15065000Y-6185000D01*
X15075000Y-10935000D02*
X15105000Y-10965000D01*
X15105000Y-10935000D02*
X15075000Y-10965000D01*
X15085000Y-7685000D02*
X15115000Y-7715000D01*
X15115000Y-7685000D02*
X15085000Y-7715000D01*
X15085000Y-10505000D02*
X15115000Y-10535000D01*
X15115000Y-10505000D02*
X15085000Y-10535000D01*
X15095000Y-4205000D02*
X15125000Y-4235000D01*
X15125000Y-4205000D02*
X15095000Y-4235000D01*
X15105000Y-13005000D02*
X15135000Y-13035000D01*
X15135000Y-13005000D02*
X15105000Y-13035000D01*
X15115000Y-6975000D02*
X15145000Y-7005000D01*
X15145000Y-6975000D02*
X15115000Y-7005000D01*
X15125000Y-5115000D02*
X15155000Y-5145000D01*
X15155000Y-5115000D02*
X15125000Y-5145000D01*
X15155000Y-6225000D02*
X15185000Y-6255000D01*
X15185000Y-6225000D02*
X15155000Y-6255000D01*
X15185000Y-6895000D02*
X15215000Y-6925000D01*
X15215000Y-6895000D02*
X15185000Y-6925000D01*
X15195000Y-8845000D02*
X15225000Y-8875000D01*
X15225000Y-8845000D02*
X15195000Y-8875000D01*
X15195000Y-9445000D02*
X15225000Y-9475000D01*
X15225000Y-9445000D02*
X15195000Y-9475000D01*
X15195000Y-12695000D02*
X15225000Y-12725000D01*
X15225000Y-12695000D02*
X15195000Y-12725000D01*
X15215000Y-4885000D02*
X15245000Y-4915000D01*
X15245000Y-4885000D02*
X15215000Y-4915000D01*
X15255000Y-5455000D02*
X15285000Y-5485000D01*
X15285000Y-5455000D02*
X15255000Y-5485000D01*
X15255000Y-6845000D02*
X15285000Y-6875000D01*
X15285000Y-6845000D02*
X15255000Y-6875000D01*
X15265000Y-4975000D02*
X15295000Y-5005000D01*
X15295000Y-4975000D02*
X15265000Y-5005000D01*
X15275000Y-10695000D02*
X15305000Y-10725000D01*
X15305000Y-10695000D02*
X15275000Y-10725000D01*
X15285000Y-7685000D02*
X15315000Y-7715000D01*
X15315000Y-7685000D02*
X15285000Y-7715000D01*
X15285000Y-9585000D02*
X15315000Y-9615000D01*
X15315000Y-9585000D02*
X15285000Y-9615000D01*
X15285000Y-9785000D02*
X15315000Y-9815000D01*
X15315000Y-9785000D02*
X15285000Y-9815000D01*
X15335000Y-8755000D02*
X15365000Y-8785000D01*
X15365000Y-8755000D02*
X15335000Y-8785000D01*
X15345000Y-5815000D02*
X15375000Y-5845000D01*
X15375000Y-5815000D02*
X15345000Y-5845000D01*
X15355000Y-9255000D02*
X15385000Y-9285000D01*
X15385000Y-9255000D02*
X15355000Y-9285000D01*
X15355000Y-10655000D02*
X15385000Y-10685000D01*
X15385000Y-10655000D02*
X15355000Y-10685000D01*
X15362998Y-7322998D02*
X15392998Y-7352998D01*
X15392998Y-7322998D02*
X15362998Y-7352998D01*
X15385000Y-3915000D02*
X15415000Y-3945000D01*
X15415000Y-3915000D02*
X15385000Y-3945000D01*
X15385000Y-4905000D02*
X15415000Y-4935000D01*
X15415000Y-4905000D02*
X15385000Y-4935000D01*
X15415000Y-12865000D02*
X15445000Y-12895000D01*
X15445000Y-12865000D02*
X15415000Y-12895000D01*
X15465000Y-7475000D02*
X15495000Y-7505000D01*
X15495000Y-7475000D02*
X15465000Y-7505000D01*
X15485000Y-5985000D02*
X15515000Y-6015000D01*
X15515000Y-5985000D02*
X15485000Y-6015000D01*
X15485000Y-9785000D02*
X15515000Y-9815000D01*
X15515000Y-9785000D02*
X15485000Y-9815000D01*
X15495000Y-3655000D02*
X15525000Y-3685000D01*
X15525000Y-3655000D02*
X15495000Y-3685000D01*
X15495000Y-5575000D02*
X15525000Y-5605000D01*
X15525000Y-5575000D02*
X15495000Y-5605000D01*
X16042500Y-12462500D02*
X16072500Y-12492500D01*
X16072500Y-12462500D02*
X16042500Y-12492500D01*
X16185000Y-5565000D02*
X16215000Y-5595000D01*
X16215000Y-5565000D02*
X16185000Y-5595000D01*
X16185000Y-5985000D02*
X16215000Y-6015000D01*
X16215000Y-5985000D02*
X16185000Y-6015000D01*
X16185000Y-7495000D02*
X16215000Y-7525000D01*
X16215000Y-7495000D02*
X16185000Y-7525000D01*
X16185000Y-7885000D02*
X16215000Y-7915000D01*
X16215000Y-7885000D02*
X16185000Y-7915000D01*
X16185000Y-9375000D02*
X16215000Y-9405000D01*
X16215000Y-9375000D02*
X16185000Y-9405000D01*
X16195000Y-3665000D02*
X16225000Y-3695000D01*
X16225000Y-3665000D02*
X16195000Y-3695000D01*
X16195000Y-11585000D02*
X16225000Y-11615000D01*
X16225000Y-11585000D02*
X16195000Y-11615000D01*
X16285000Y-7185000D02*
X16315000Y-7215000D01*
X16315000Y-7185000D02*
X16285000Y-7215000D01*
X16285000Y-12785000D02*
X16315000Y-12815000D01*
X16315000Y-12785000D02*
X16285000Y-12815000D01*
X16295000Y-5565000D02*
X16325000Y-5595000D01*
X16325000Y-5565000D02*
X16295000Y-5595000D01*
X16295000Y-9765000D02*
X16325000Y-9795000D01*
X16325000Y-9765000D02*
X16295000Y-9795000D01*
X16305000Y-11495000D02*
X16335000Y-11525000D01*
X16335000Y-11495000D02*
X16305000Y-11525000D01*
X16325000Y-9525000D02*
X16355000Y-9555000D01*
X16355000Y-9525000D02*
X16325000Y-9555000D01*
X16335000Y-7625000D02*
X16365000Y-7655000D01*
X16365000Y-7625000D02*
X16335000Y-7655000D01*
X16335000Y-10655000D02*
X16365000Y-10685000D01*
X16365000Y-10655000D02*
X16335000Y-10685000D01*
X16375000Y-11775000D02*
X16405000Y-11805000D01*
X16405000Y-11775000D02*
X16375000Y-11805000D01*
X16385000Y-11085000D02*
X16415000Y-11115000D01*
X16415000Y-11085000D02*
X16385000Y-11115000D01*
X16405000Y-5725000D02*
X16435000Y-5755000D01*
X16435000Y-5725000D02*
X16405000Y-5755000D01*
X16455000Y-11712550D02*
X16485000Y-11742550D01*
X16485000Y-11712550D02*
X16455000Y-11742550D01*
X16465000Y-12475000D02*
X16495000Y-12505000D01*
X16495000Y-12475000D02*
X16465000Y-12505000D01*
X16485000Y-6885000D02*
X16515000Y-6915000D01*
X16515000Y-6885000D02*
X16485000Y-6915000D01*
X16505000Y-5935000D02*
X16535000Y-5965000D01*
X16535000Y-5935000D02*
X16505000Y-5965000D01*
X16505000Y-7435000D02*
X16535000Y-7465000D01*
X16535000Y-7435000D02*
X16505000Y-7465000D01*
X16535000Y-3735000D02*
X16565000Y-3765000D01*
X16565000Y-3735000D02*
X16535000Y-3765000D01*
X16535000Y-9135000D02*
X16565000Y-9165000D01*
X16565000Y-9135000D02*
X16535000Y-9165000D01*
X16555000Y-7725000D02*
X16585000Y-7755000D01*
X16585000Y-7725000D02*
X16555000Y-7755000D01*
X16585000Y-8835000D02*
X16615000Y-8865000D01*
X16615000Y-8835000D02*
X16585000Y-8865000D01*
X16585000Y-10405000D02*
X16615000Y-10435000D01*
X16615000Y-10405000D02*
X16585000Y-10435000D01*
X16605000Y-9995000D02*
X16635000Y-10025000D01*
X16635000Y-9995000D02*
X16605000Y-10025000D01*
X16605000Y-12625000D02*
X16635000Y-12655000D01*
X16635000Y-12625000D02*
X16605000Y-12655000D01*
X16655000Y-6675000D02*
X16685000Y-6705000D01*
X16685000Y-6675000D02*
X16655000Y-6705000D01*
X16715000Y-7025000D02*
X16745000Y-7055000D01*
X16745000Y-7025000D02*
X16715000Y-7055000D01*
X16715000Y-12855000D02*
X16745000Y-12885000D01*
X16745000Y-12855000D02*
X16715000Y-12885000D01*
X16735000Y-7635000D02*
X16765000Y-7665000D01*
X16765000Y-7635000D02*
X16735000Y-7665000D01*
X16735000Y-11575000D02*
X16765000Y-11605000D01*
X16765000Y-11575000D02*
X16735000Y-11605000D01*
X16775000Y-4345000D02*
X16805000Y-4375000D01*
X16805000Y-4345000D02*
X16775000Y-4375000D01*
X16785000Y-6085000D02*
X16815000Y-6115000D01*
X16815000Y-6085000D02*
X16785000Y-6115000D01*
X16785000Y-10385000D02*
X16815000Y-10415000D01*
X16815000Y-10385000D02*
X16785000Y-10415000D01*
X16803750Y-9916250D02*
X16833750Y-9946250D01*
X16833750Y-9916250D02*
X16803750Y-9946250D01*
X16815000Y-6315000D02*
X16845000Y-6345000D01*
X16845000Y-6315000D02*
X16815000Y-6345000D01*
X16815000Y-12455000D02*
X16845000Y-12485000D01*
X16845000Y-12455000D02*
X16815000Y-12485000D01*
X16825000Y-10635000D02*
X16855000Y-10665000D01*
X16855000Y-10635000D02*
X16825000Y-10665000D01*
X16825000Y-12805000D02*
X16855000Y-12835000D01*
X16855000Y-12805000D02*
X16825000Y-12835000D01*
X16827500Y-6172500D02*
X16857500Y-6202500D01*
X16857500Y-6172500D02*
X16827500Y-6202500D01*
X16840000Y-4280000D02*
X16870000Y-4310000D01*
X16870000Y-4280000D02*
X16840000Y-4310000D01*
X16873750Y-8066250D02*
X16903750Y-8096250D01*
X16903750Y-8066250D02*
X16873750Y-8096250D01*
X16885000Y-11075000D02*
X16915000Y-11105000D01*
X16915000Y-11075000D02*
X16885000Y-11105000D01*
X16888700Y-3845800D02*
X16918700Y-3875800D01*
X16918700Y-3845800D02*
X16888700Y-3875800D01*
X16910000Y-4820000D02*
X16940000Y-4850000D01*
X16940000Y-4820000D02*
X16910000Y-4850000D01*
X16910000Y-10520000D02*
X16940000Y-10550000D01*
X16940000Y-10520000D02*
X16910000Y-10550000D01*
X16935000Y-6665000D02*
X16965000Y-6695000D01*
X16965000Y-6665000D02*
X16935000Y-6695000D01*
X16935000Y-11745000D02*
X16965000Y-11775000D01*
X16965000Y-11745000D02*
X16935000Y-11775000D01*
X16935000Y-12335000D02*
X16965000Y-12365000D01*
X16965000Y-12335000D02*
X16935000Y-12365000D01*
X16935000Y-13065000D02*
X16965000Y-13095000D01*
X16965000Y-13065000D02*
X16935000Y-13095000D01*
X16945000Y-11225000D02*
X16975000Y-11255000D01*
X16975000Y-11225000D02*
X16945000Y-11255000D01*
X16957500Y-8627500D02*
X16987500Y-8657500D01*
X16987500Y-8627500D02*
X16957500Y-8657500D01*
X16965000Y-7145000D02*
X16995000Y-7175000D01*
X16995000Y-7145000D02*
X16965000Y-7175000D01*
X16985000Y-7495000D02*
X17015000Y-7525000D01*
X17015000Y-7495000D02*
X16985000Y-7525000D01*
X16985000Y-7685000D02*
X17015000Y-7715000D01*
X17015000Y-7685000D02*
X16985000Y-7715000D01*
X16985000Y-7985000D02*
X17015000Y-8015000D01*
X17015000Y-7985000D02*
X16985000Y-8015000D01*
X16985000Y-8985000D02*
X17015000Y-9015000D01*
X17015000Y-8985000D02*
X16985000Y-9015000D01*
X17095000Y-7315000D02*
X17125000Y-7345000D01*
X17125000Y-7315000D02*
X17095000Y-7345000D01*
X17105000Y-4355000D02*
X17135000Y-4385000D01*
X17135000Y-4355000D02*
X17105000Y-4385000D01*
X17105000Y-5395000D02*
X17135000Y-5425000D01*
X17135000Y-5395000D02*
X17105000Y-5425000D01*
X17109950Y-11175000D02*
X17139950Y-11205000D01*
X17139950Y-11175000D02*
X17109950Y-11205000D01*
X17110000Y-3885000D02*
X17140000Y-3915000D01*
X17140000Y-3885000D02*
X17110000Y-3915000D01*
X17125000Y-9705000D02*
X17155000Y-9735000D01*
X17155000Y-9705000D02*
X17125000Y-9735000D01*
X17165000Y-11485000D02*
X17195000Y-11515000D01*
X17195000Y-11485000D02*
X17165000Y-11515000D01*
X17175000Y-6335000D02*
X17205000Y-6365000D01*
X17205000Y-6335000D02*
X17175000Y-6365000D01*
X17175000Y-11105000D02*
X17205000Y-11135000D01*
X17205000Y-11105000D02*
X17175000Y-11135000D01*
X17185000Y-8185000D02*
X17215000Y-8215000D01*
X17215000Y-8185000D02*
X17185000Y-8215000D01*
X17185000Y-13065000D02*
X17215000Y-13095000D01*
X17215000Y-13065000D02*
X17185000Y-13095000D01*
X17195000Y-5795000D02*
X17225000Y-5825000D01*
X17225000Y-5795000D02*
X17195000Y-5825000D01*
X17212500Y-9882500D02*
X17242500Y-9912500D01*
X17242500Y-9882500D02*
X17212500Y-9912500D01*
X17215000Y-7335000D02*
X17245000Y-7365000D01*
X17245000Y-7335000D02*
X17215000Y-7365000D01*
X17218900Y-4303000D02*
X17248900Y-4333000D01*
X17248900Y-4303000D02*
X17218900Y-4333000D01*
X17225000Y-6025000D02*
X17255000Y-6055000D01*
X17255000Y-6025000D02*
X17225000Y-6055000D01*
X17225000Y-9225000D02*
X17255000Y-9255000D01*
X17255000Y-9225000D02*
X17225000Y-9255000D01*
X17225000Y-11405000D02*
X17255000Y-11435000D01*
X17255000Y-11405000D02*
X17225000Y-11435000D01*
X17235000Y-5425000D02*
X17265000Y-5455000D01*
X17265000Y-5425000D02*
X17235000Y-5455000D01*
X17275000Y-11765000D02*
X17305000Y-11795000D01*
X17305000Y-11765000D02*
X17275000Y-11795000D01*
X17285000Y-7685000D02*
X17315000Y-7715000D01*
X17315000Y-7685000D02*
X17285000Y-7715000D01*
X17285000Y-11125000D02*
X17315000Y-11155000D01*
X17315000Y-11125000D02*
X17285000Y-11155000D01*
X17285000Y-13055000D02*
X17315000Y-13085000D01*
X17315000Y-13055000D02*
X17285000Y-13085000D01*
X17315000Y-9205000D02*
X17345000Y-9235000D01*
X17345000Y-9205000D02*
X17315000Y-9235000D01*
X17395000Y-4155000D02*
X17425000Y-4185000D01*
X17425000Y-4155000D02*
X17395000Y-4185000D01*
X17395000Y-6045000D02*
X17425000Y-6075000D01*
X17425000Y-6045000D02*
X17395000Y-6075000D01*
X17395000Y-7955000D02*
X17425000Y-7985000D01*
X17425000Y-7955000D02*
X17395000Y-7985000D01*
X17395000Y-9875000D02*
X17425000Y-9905000D01*
X17425000Y-9875000D02*
X17395000Y-9905000D01*
X17425000Y-6455000D02*
X17455000Y-6485000D01*
X17455000Y-6455000D02*
X17425000Y-6485000D01*
X17485000Y-8385000D02*
X17515000Y-8415000D01*
X17515000Y-8385000D02*
X17485000Y-8415000D01*
X17485000Y-12185000D02*
X17515000Y-12215000D01*
X17515000Y-12185000D02*
X17485000Y-12215000D01*
X17685000Y-5625000D02*
X17715000Y-5655000D01*
X17715000Y-5625000D02*
X17685000Y-5655000D01*
X17785000Y-8885000D02*
X17815000Y-8915000D01*
X17815000Y-8885000D02*
X17785000Y-8915000D01*
X17785000Y-9185000D02*
X17815000Y-9215000D01*
X17815000Y-9185000D02*
X17785000Y-9215000D01*
X17905000Y-7455000D02*
X17935000Y-7485000D01*
X17935000Y-7455000D02*
X17905000Y-7485000D01*
X18085000Y-4165000D02*
X18115000Y-4195000D01*
X18115000Y-4165000D02*
X18085000Y-4195000D01*
X18085000Y-6055000D02*
X18115000Y-6085000D01*
X18115000Y-6055000D02*
X18085000Y-6085000D01*
X18085000Y-6445000D02*
X18115000Y-6475000D01*
X18115000Y-6445000D02*
X18085000Y-6475000D01*
X18085000Y-7965000D02*
X18115000Y-7995000D01*
X18115000Y-7965000D02*
X18085000Y-7995000D01*
X18085000Y-8385000D02*
X18115000Y-8415000D01*
X18115000Y-8385000D02*
X18085000Y-8415000D01*
X18085000Y-11825000D02*
X18115000Y-11855000D01*
X18115000Y-11825000D02*
X18085000Y-11855000D01*
X18085000Y-12185000D02*
X18115000Y-12215000D01*
X18115000Y-12185000D02*
X18085000Y-12215000D01*
X18095000Y-9885000D02*
X18125000Y-9915000D01*
X18125000Y-9885000D02*
X18095000Y-9915000D01*
X18135000Y-5660000D02*
X18165000Y-5690000D01*
X18165000Y-5660000D02*
X18135000Y-5690000D01*
X18175000Y-4135000D02*
X18205000Y-4165000D01*
X18205000Y-4135000D02*
X18175000Y-4165000D01*
X18185000Y-4560000D02*
X18215000Y-4590000D01*
X18215000Y-4560000D02*
X18185000Y-4590000D01*
X18185000Y-7385000D02*
X18215000Y-7415000D01*
X18215000Y-7385000D02*
X18185000Y-7415000D01*
X18195000Y-6045000D02*
X18225000Y-6075000D01*
X18225000Y-6045000D02*
X18195000Y-6075000D01*
X18205000Y-5785000D02*
X18235000Y-5815000D01*
X18235000Y-5785000D02*
X18205000Y-5815000D01*
X18205000Y-7955000D02*
X18235000Y-7985000D01*
X18235000Y-7955000D02*
X18205000Y-7985000D01*
X18205000Y-9855000D02*
X18235000Y-9885000D01*
X18235000Y-9855000D02*
X18205000Y-9885000D01*
X18235000Y-11625000D02*
X18265000Y-11655000D01*
X18265000Y-11625000D02*
X18235000Y-11655000D01*
X18285000Y-5465000D02*
X18315000Y-5495000D01*
X18315000Y-5465000D02*
X18285000Y-5495000D01*
X18285000Y-7885000D02*
X18315000Y-7915000D01*
X18315000Y-7885000D02*
X18285000Y-7915000D01*
X18285000Y-9335000D02*
X18315000Y-9365000D01*
X18315000Y-9335000D02*
X18285000Y-9365000D01*
X18315000Y-9505000D02*
X18345000Y-9535000D01*
X18345000Y-9505000D02*
X18315000Y-9535000D01*
X18385000Y-8285000D02*
X18415000Y-8315000D01*
X18415000Y-8285000D02*
X18385000Y-8315000D01*
X18410000Y-4435000D02*
X18440000Y-4465000D01*
X18440000Y-4435000D02*
X18410000Y-4465000D01*
X18430000Y-5590000D02*
X18460000Y-5620000D01*
X18460000Y-5590000D02*
X18430000Y-5620000D01*
X18445000Y-6695000D02*
X18475000Y-6725000D01*
X18475000Y-6695000D02*
X18445000Y-6725000D01*
X18485000Y-5885000D02*
X18515000Y-5915000D01*
X18515000Y-5885000D02*
X18485000Y-5915000D01*
X18485000Y-7085000D02*
X18515000Y-7115000D01*
X18515000Y-7085000D02*
X18485000Y-7115000D01*
X18510000Y-5660000D02*
X18540000Y-5690000D01*
X18540000Y-5660000D02*
X18510000Y-5690000D01*
X18525000Y-9065000D02*
X18555000Y-9095000D01*
X18555000Y-9065000D02*
X18525000Y-9095000D01*
X18535000Y-11585000D02*
X18565000Y-11615000D01*
X18565000Y-11585000D02*
X18535000Y-11615000D01*
X18535000Y-11685000D02*
X18565000Y-11715000D01*
X18565000Y-11685000D02*
X18535000Y-11715000D01*
X18535000Y-12075000D02*
X18565000Y-12105000D01*
X18565000Y-12075000D02*
X18535000Y-12105000D01*
X18545000Y-5745000D02*
X18575000Y-5775000D01*
X18575000Y-5745000D02*
X18545000Y-5775000D01*
X18545000Y-10995000D02*
X18575000Y-11025000D01*
X18575000Y-10995000D02*
X18545000Y-11025000D01*
X18555000Y-5195000D02*
X18585000Y-5225000D01*
X18585000Y-5195000D02*
X18555000Y-5225000D01*
X18584993Y-6224474D02*
X18614993Y-6254474D01*
X18614993Y-6224474D02*
X18584993Y-6254474D01*
X18585000Y-5485000D02*
X18615000Y-5515000D01*
X18615000Y-5485000D02*
X18585000Y-5515000D01*
X18585000Y-5985000D02*
X18615000Y-6015000D01*
X18615000Y-5985000D02*
X18585000Y-6015000D01*
X18585000Y-7785000D02*
X18615000Y-7815000D01*
X18615000Y-7785000D02*
X18585000Y-7815000D01*
X18585000Y-8185000D02*
X18615000Y-8215000D01*
X18615000Y-8185000D02*
X18585000Y-8215000D01*
X18595000Y-11395000D02*
X18625000Y-11425000D01*
X18625000Y-11395000D02*
X18595000Y-11425000D01*
X18745000Y-10885000D02*
X18775000Y-10915000D01*
X18775000Y-10885000D02*
X18745000Y-10915000D01*
X18765000Y-8385000D02*
X18795000Y-8415000D01*
X18795000Y-8385000D02*
X18765000Y-8415000D01*
X18785000Y-5985000D02*
X18815000Y-6015000D01*
X18815000Y-5985000D02*
X18785000Y-6015000D01*
X18785000Y-7285000D02*
X18815000Y-7315000D01*
X18815000Y-7285000D02*
X18785000Y-7315000D01*
X18785000Y-9235000D02*
X18815000Y-9265000D01*
X18815000Y-9235000D02*
X18785000Y-9265000D01*
X18835000Y-8935000D02*
X18865000Y-8965000D01*
X18865000Y-8935000D02*
X18835000Y-8965000D01*
X18835000Y-9525000D02*
X18865000Y-9555000D01*
X18865000Y-9525000D02*
X18835000Y-9555000D01*
X18836000Y-7854000D02*
X18866000Y-7884000D01*
X18866000Y-7854000D02*
X18836000Y-7884000D01*
X18845000Y-10465000D02*
X18875000Y-10495000D01*
X18875000Y-10465000D02*
X18845000Y-10495000D01*
X18885000Y-5325000D02*
X18915000Y-5355000D01*
X18915000Y-5325000D02*
X18885000Y-5355000D01*
X18885000Y-5915000D02*
X18915000Y-5945000D01*
X18915000Y-5915000D02*
X18885000Y-5945000D01*
X18885000Y-6385000D02*
X18915000Y-6415000D01*
X18915000Y-6385000D02*
X18885000Y-6415000D01*
X18885000Y-6585000D02*
X18915000Y-6615000D01*
X18915000Y-6585000D02*
X18885000Y-6615000D01*
X18885000Y-6885000D02*
X18915000Y-6915000D01*
X18915000Y-6885000D02*
X18885000Y-6915000D01*
X18885000Y-7085000D02*
X18915000Y-7115000D01*
X18915000Y-7085000D02*
X18885000Y-7115000D01*
X18885000Y-7285000D02*
X18915000Y-7315000D01*
X18915000Y-7285000D02*
X18885000Y-7315000D01*
X18885000Y-8785000D02*
X18915000Y-8815000D01*
X18915000Y-8785000D02*
X18885000Y-8815000D01*
X18885000Y-10685000D02*
X18915000Y-10715000D01*
X18915000Y-10685000D02*
X18885000Y-10715000D01*
X18885000Y-10955000D02*
X18915000Y-10985000D01*
X18915000Y-10955000D02*
X18885000Y-10985000D01*
X18885000Y-11525000D02*
X18915000Y-11555000D01*
X18915000Y-11525000D02*
X18885000Y-11555000D01*
X18885000Y-12985000D02*
X18915000Y-13015000D01*
X18915000Y-12985000D02*
X18885000Y-13015000D01*
X18995000Y-10415000D02*
X19025000Y-10445000D01*
X19025000Y-10415000D02*
X18995000Y-10445000D01*
X19005000Y-6595000D02*
X19035000Y-6625000D01*
X19035000Y-6595000D02*
X19005000Y-6625000D01*
X19005000Y-7625000D02*
X19035000Y-7655000D01*
X19035000Y-7625000D02*
X19005000Y-7655000D01*
X19005000Y-8455000D02*
X19035000Y-8485000D01*
X19035000Y-8455000D02*
X19005000Y-8485000D01*
X19010000Y-4135000D02*
X19040000Y-4165000D01*
X19040000Y-4135000D02*
X19010000Y-4165000D01*
X19085000Y-6515000D02*
X19115000Y-6545000D01*
X19115000Y-6515000D02*
X19085000Y-6545000D01*
X19085000Y-6885000D02*
X19115000Y-6915000D01*
X19115000Y-6885000D02*
X19085000Y-6915000D01*
X19085000Y-7085000D02*
X19115000Y-7115000D01*
X19115000Y-7085000D02*
X19085000Y-7115000D01*
X19085000Y-7285000D02*
X19115000Y-7315000D01*
X19115000Y-7285000D02*
X19085000Y-7315000D01*
X19085000Y-8785000D02*
X19115000Y-8815000D01*
X19115000Y-8785000D02*
X19085000Y-8815000D01*
X19085000Y-11235000D02*
X19115000Y-11265000D01*
X19115000Y-11235000D02*
X19085000Y-11265000D01*
X19105000Y-5075000D02*
X19135000Y-5105000D01*
X19135000Y-5075000D02*
X19105000Y-5105000D01*
X19125000Y-12275000D02*
X19155000Y-12305000D01*
X19155000Y-12275000D02*
X19125000Y-12305000D01*
X19135000Y-8392550D02*
X19165000Y-8422550D01*
X19165000Y-8392550D02*
X19135000Y-8422550D01*
X19135000Y-10485000D02*
X19165000Y-10515000D01*
X19165000Y-10485000D02*
X19135000Y-10515000D01*
X19155000Y-10315000D02*
X19185000Y-10345000D01*
X19185000Y-10315000D02*
X19155000Y-10345000D01*
X19175000Y-6965000D02*
X19205000Y-6995000D01*
X19205000Y-6965000D02*
X19175000Y-6995000D01*
X19175000Y-8885000D02*
X19205000Y-8915000D01*
X19205000Y-8885000D02*
X19175000Y-8915000D01*
X19175000Y-10785000D02*
X19205000Y-10815000D01*
X19205000Y-10785000D02*
X19175000Y-10815000D01*
X19185000Y-12195000D02*
X19215000Y-12225000D01*
X19215000Y-12195000D02*
X19185000Y-12225000D01*
X19185000Y-12985000D02*
X19215000Y-13015000D01*
X19215000Y-12985000D02*
X19185000Y-13015000D01*
X19235000Y-4010000D02*
X19265000Y-4040000D01*
X19265000Y-4010000D02*
X19235000Y-4040000D01*
X19385000Y-7585000D02*
X19415000Y-7615000D01*
X19415000Y-7585000D02*
X19385000Y-7615000D01*
X19385000Y-9485000D02*
X19415000Y-9515000D01*
X19415000Y-9485000D02*
X19385000Y-9515000D01*
X19585000Y-12885000D02*
X19615000Y-12915000D01*
X19615000Y-12885000D02*
X19585000Y-12915000D01*
X19985000Y-7585000D02*
X20015000Y-7615000D01*
X20015000Y-7585000D02*
X19985000Y-7615000D01*
X19985000Y-9485000D02*
X20015000Y-9515000D01*
X20015000Y-9485000D02*
X19985000Y-9515000D01*
X19985000Y-12785000D02*
X20015000Y-12815000D01*
X20015000Y-12785000D02*
X19985000Y-12815000D01*
X19995000Y-5245000D02*
X20025000Y-5275000D01*
X20025000Y-5245000D02*
X19995000Y-5275000D01*
X19995000Y-7155000D02*
X20025000Y-7185000D01*
X20025000Y-7155000D02*
X19995000Y-7185000D01*
X19995000Y-9055000D02*
X20025000Y-9085000D01*
X20025000Y-9055000D02*
X19995000Y-9085000D01*
X20005000Y-10955000D02*
X20035000Y-10985000D01*
X20035000Y-10955000D02*
X20005000Y-10985000D01*
X20145000Y-7285000D02*
X20175000Y-7315000D01*
X20175000Y-7285000D02*
X20145000Y-7315000D01*
X20145000Y-9205000D02*
X20175000Y-9235000D01*
X20175000Y-9205000D02*
X20145000Y-9235000D01*
X20145000Y-11105000D02*
X20175000Y-11135000D01*
X20175000Y-11105000D02*
X20145000Y-11135000D01*
X20155000Y-5395000D02*
X20185000Y-5425000D01*
X20185000Y-5395000D02*
X20155000Y-5425000D01*
X20185000Y-8485000D02*
X20215000Y-8515000D01*
X20215000Y-8485000D02*
X20185000Y-8515000D01*
X20285000Y-9185000D02*
X20315000Y-9215000D01*
X20315000Y-9185000D02*
X20285000Y-9215000D01*
X20385000Y-7785000D02*
X20415000Y-7815000D01*
X20415000Y-7785000D02*
X20385000Y-7815000D01*
X20385000Y-8785000D02*
X20415000Y-8815000D01*
X20415000Y-8785000D02*
X20385000Y-8815000D01*
X20385000Y-12685000D02*
X20415000Y-12715000D01*
X20415000Y-12685000D02*
X20385000Y-12715000D01*
X20410000Y-5760000D02*
X20440000Y-5790000D01*
X20440000Y-5760000D02*
X20410000Y-5790000D01*
X20485000Y-9685000D02*
X20515000Y-9715000D01*
X20515000Y-9685000D02*
X20485000Y-9715000D01*
X20495000Y-11225000D02*
X20525000Y-11255000D01*
X20525000Y-11225000D02*
X20495000Y-11255000D01*
X20555000Y-9325000D02*
X20585000Y-9355000D01*
X20585000Y-9325000D02*
X20555000Y-9355000D01*
X20560000Y-5660000D02*
X20590000Y-5690000D01*
X20590000Y-5660000D02*
X20560000Y-5690000D01*
X20585000Y-4810000D02*
X20615000Y-4840000D01*
X20615000Y-4810000D02*
X20585000Y-4840000D01*
X20585000Y-5060000D02*
X20615000Y-5090000D01*
X20615000Y-5060000D02*
X20585000Y-5090000D01*
X20585000Y-5335000D02*
X20615000Y-5365000D01*
X20615000Y-5335000D02*
X20585000Y-5365000D01*
X20585000Y-8485000D02*
X20615000Y-8515000D01*
X20615000Y-8485000D02*
X20585000Y-8515000D01*
X20607500Y-7435000D02*
X20637500Y-7465000D01*
X20637500Y-7435000D02*
X20607500Y-7465000D01*
X20685000Y-5485000D02*
X20715000Y-5515000D01*
X20715000Y-5485000D02*
X20685000Y-5515000D01*
X20685000Y-8185000D02*
X20715000Y-8215000D01*
X20715000Y-8185000D02*
X20685000Y-8215000D01*
X20711000Y-7829000D02*
X20741000Y-7859000D01*
X20741000Y-7829000D02*
X20711000Y-7859000D01*
X20723500Y-11656500D02*
X20753500Y-11686500D01*
X20753500Y-11656500D02*
X20723500Y-11686500D01*
X20726000Y-9764000D02*
X20756000Y-9794000D01*
X20756000Y-9764000D02*
X20726000Y-9794000D01*
X20760000Y-5870000D02*
X20790000Y-5900000D01*
X20790000Y-5870000D02*
X20760000Y-5900000D01*
X20785000Y-8785000D02*
X20815000Y-8815000D01*
X20815000Y-8785000D02*
X20785000Y-8815000D01*
X20785000Y-9085000D02*
X20815000Y-9115000D01*
X20815000Y-9085000D02*
X20785000Y-9115000D01*
X20785000Y-12585000D02*
X20815000Y-12615000D01*
X20815000Y-12585000D02*
X20785000Y-12615000D01*
X20832550Y-11125000D02*
X20862550Y-11155000D01*
X20862550Y-11125000D02*
X20832550Y-11155000D01*
X20895000Y-6485000D02*
X20925000Y-6515000D01*
X20925000Y-6485000D02*
X20895000Y-6515000D01*
X20895000Y-8485000D02*
X20925000Y-8515000D01*
X20925000Y-8485000D02*
X20895000Y-8515000D01*
X20895000Y-10285000D02*
X20925000Y-10315000D01*
X20925000Y-10285000D02*
X20895000Y-10315000D01*
X20985000Y-8785000D02*
X21015000Y-8815000D01*
X21015000Y-8785000D02*
X20985000Y-8815000D01*
X20985000Y-9085000D02*
X21015000Y-9115000D01*
X21015000Y-9085000D02*
X20985000Y-9115000D01*
X20985000Y-9385000D02*
X21015000Y-9415000D01*
X21015000Y-9385000D02*
X20985000Y-9415000D01*
X20995000Y-10895000D02*
X21025000Y-10925000D01*
X21025000Y-10895000D02*
X20995000Y-10925000D01*
X20995000Y-12305000D02*
X21025000Y-12335000D01*
X21025000Y-12305000D02*
X20995000Y-12335000D01*
X21015000Y-8395000D02*
X21045000Y-8425000D01*
X21045000Y-8395000D02*
X21015000Y-8425000D01*
X21035000Y-6515000D02*
X21065000Y-6545000D01*
X21065000Y-6515000D02*
X21035000Y-6545000D01*
X21045000Y-10325000D02*
X21075000Y-10355000D01*
X21075000Y-10325000D02*
X21045000Y-10355000D01*
X21055000Y-9215000D02*
X21085000Y-9245000D01*
X21085000Y-9215000D02*
X21055000Y-9245000D01*
X21065000Y-7285000D02*
X21095000Y-7315000D01*
X21095000Y-7285000D02*
X21065000Y-7315000D01*
X21065000Y-11105000D02*
X21095000Y-11135000D01*
X21095000Y-11105000D02*
X21065000Y-11135000D01*
X21085000Y-12225000D02*
X21115000Y-12255000D01*
X21115000Y-12225000D02*
X21085000Y-12255000D01*
X21095000Y-5395000D02*
X21125000Y-5425000D01*
X21125000Y-5395000D02*
X21095000Y-5425000D01*
X21185000Y-12485000D02*
X21215000Y-12515000D01*
X21215000Y-12485000D02*
X21185000Y-12515000D01*
X21285000Y-11385000D02*
X21315000Y-11415000D01*
X21315000Y-11385000D02*
X21285000Y-11415000D01*
X21315000Y-10535000D02*
X21345000Y-10565000D01*
X21345000Y-10535000D02*
X21315000Y-10565000D01*
X21585000Y-12485000D02*
X21615000Y-12515000D01*
X21615000Y-12485000D02*
X21585000Y-12515000D01*
X21875000Y-11365000D02*
X21905000Y-11395000D01*
X21905000Y-11365000D02*
X21875000Y-11395000D01*
X21895000Y-7145000D02*
X21925000Y-7175000D01*
X21925000Y-7145000D02*
X21895000Y-7175000D01*
X21895000Y-9055000D02*
X21925000Y-9085000D01*
X21925000Y-9055000D02*
X21895000Y-9085000D01*
X21905000Y-5235000D02*
X21935000Y-5265000D01*
X21935000Y-5235000D02*
X21905000Y-5265000D01*
X21905000Y-10955000D02*
X21935000Y-10985000D01*
X21935000Y-10955000D02*
X21905000Y-10985000D01*
X21985000Y-12385000D02*
X22015000Y-12415000D01*
X22015000Y-12385000D02*
X21985000Y-12415000D01*
X22055000Y-6965000D02*
X22085000Y-6995000D01*
X22085000Y-6965000D02*
X22055000Y-6995000D01*
X22065000Y-5075000D02*
X22095000Y-5105000D01*
X22095000Y-5075000D02*
X22065000Y-5105000D01*
X22065000Y-8885000D02*
X22095000Y-8915000D01*
X22095000Y-8885000D02*
X22065000Y-8915000D01*
X22075000Y-10785000D02*
X22105000Y-10815000D01*
X22105000Y-10785000D02*
X22075000Y-10815000D01*
X22105000Y-10385000D02*
X22135000Y-10415000D01*
X22135000Y-10385000D02*
X22105000Y-10415000D01*
X22285000Y-12285000D02*
X22315000Y-12315000D01*
X22315000Y-12285000D02*
X22285000Y-12315000D01*
X22315000Y-10505000D02*
X22345000Y-10535000D01*
X22345000Y-10505000D02*
X22315000Y-10535000D01*
X22315000Y-11575000D02*
X22345000Y-11605000D01*
X22345000Y-11575000D02*
X22315000Y-11605000D01*
D12*
X9755000Y-8847500D02*
G75*
G03*
X9755000Y-8847500I-17500J0D01*
G01*
X9785000Y-8597500D02*
G75*
G03*
X9785000Y-8597500I-17500J0D01*
G01*
X9814600Y-4970900D02*
G75*
G03*
X9814600Y-4970900I-17500J0D01*
G01*
X9910025Y-8412525D02*
G75*
G03*
X9910025Y-8412525I-17500J0D01*
G01*
X9916200Y-4970900D02*
G75*
G03*
X9916200Y-4970900I-17500J0D01*
G01*
X10017800Y-4970900D02*
G75*
G03*
X10017800Y-4970900I-17500J0D01*
G01*
D13*
X8980000Y-8091900D02*
X8980000Y-8168100D01*
X8941900Y-8130000D02*
X9018100Y-8130000D01*
X8980000Y-8711900D02*
X8980000Y-8788100D01*
X8941900Y-8750000D02*
X9018100Y-8750000D01*
X9000000Y-7244400D02*
X9000000Y-7320600D01*
X8961900Y-7282500D02*
X9038100Y-7282500D01*
X9000000Y-7894400D02*
X9000000Y-7970600D01*
X8961900Y-7932500D02*
X9038100Y-7932500D01*
X9300000Y-8091900D02*
X9300000Y-8168100D01*
X9261900Y-8130000D02*
X9338100Y-8130000D01*
X9300000Y-8711900D02*
X9300000Y-8788100D01*
X9261900Y-8750000D02*
X9338100Y-8750000D01*
X9620000Y-8091900D02*
X9620000Y-8168100D01*
X9581900Y-8130000D02*
X9658100Y-8130000D01*
X9620000Y-8711900D02*
X9620000Y-8788100D01*
X9581900Y-8750000D02*
X9658100Y-8750000D01*
X9970000Y-8091900D02*
X9970000Y-8168100D01*
X9931900Y-8130000D02*
X10008100Y-8130000D01*
X9970000Y-8711900D02*
X9970000Y-8788100D01*
X9931900Y-8750000D02*
X10008100Y-8750000D01*
D14*
X9322237Y-7336237D02*
X9322237Y-7278763D01*
X9264763Y-7278763D01*
X9264763Y-7336237D01*
X9322237Y-7336237D01*
X9545237Y-7586237D02*
X9545237Y-7528763D01*
X9487763Y-7528763D01*
X9487763Y-7586237D01*
X9545237Y-7586237D01*
X9646237Y-9016237D02*
X9646237Y-8958763D01*
X9588763Y-8958763D01*
X9588763Y-9016237D01*
X9646237Y-9016237D01*
X9799237Y-7586237D02*
X9799237Y-7528763D01*
X9741763Y-7528763D01*
X9741763Y-7586237D01*
X9799237Y-7586237D01*
X9830237Y-7336237D02*
X9830237Y-7278763D01*
X9772763Y-7278763D01*
X9772763Y-7336237D01*
X9830237Y-7336237D01*
X10022237Y-7336237D02*
X10022237Y-7278763D01*
X9964763Y-7278763D01*
X9964763Y-7336237D01*
X10022237Y-7336237D01*
X10053237Y-7586237D02*
X10053237Y-7528763D01*
X9995763Y-7528763D01*
X9995763Y-7586237D01*
X10053237Y-7586237D01*
X10307237Y-7586237D02*
X10307237Y-7528763D01*
X10249763Y-7528763D01*
X10249763Y-7586237D01*
X10307237Y-7586237D01*
X10328737Y-9128737D02*
X10328737Y-9071263D01*
X10271263Y-9071263D01*
X10271263Y-9128737D01*
X10328737Y-9128737D01*
X10530237Y-7336237D02*
X10530237Y-7278763D01*
X10472763Y-7278763D01*
X10472763Y-7336237D01*
X10530237Y-7336237D01*
D15*
X9141134Y-9724478D02*
X9191134Y-9674478D01*
X9141134Y-9624478D01*
X9091134Y-9674478D01*
X9141134Y-9724478D01*
X9391275Y-9680371D02*
X9441275Y-9630371D01*
X9391275Y-9580371D01*
X9341275Y-9630371D01*
X9391275Y-9680371D01*
X9527501Y-11915675D02*
X9577501Y-11865675D01*
X9527501Y-11815675D01*
X9477501Y-11865675D01*
X9527501Y-11915675D01*
X9641416Y-9636265D02*
X9691416Y-9586265D01*
X9641416Y-9536265D01*
X9591416Y-9586265D01*
X9641416Y-9636265D01*
X9777642Y-11871569D02*
X9827642Y-11821569D01*
X9777642Y-11771569D01*
X9727642Y-11821569D01*
X9777642Y-11871569D01*
X9891558Y-9592158D02*
X9941558Y-9542158D01*
X9891558Y-9492158D01*
X9841558Y-9542158D01*
X9891558Y-9592158D01*
X10027784Y-11827462D02*
X10077784Y-11777462D01*
X10027784Y-11727462D01*
X9977784Y-11777462D01*
X10027784Y-11827462D01*
X10141699Y-9548052D02*
X10191699Y-9498052D01*
X10141699Y-9448052D01*
X10091699Y-9498052D01*
X10141699Y-9548052D01*
X10277925Y-11783355D02*
X10327925Y-11733355D01*
X10277925Y-11683355D01*
X10227925Y-11733355D01*
X10277925Y-11783355D01*
X10391840Y-9503945D02*
X10441840Y-9453945D01*
X10391840Y-9403945D01*
X10341840Y-9453945D01*
X10391840Y-9503945D01*
X10528066Y-11739249D02*
X10578066Y-11689249D01*
X10528066Y-11639249D01*
X10478066Y-11689249D01*
X10528066Y-11739249D01*
X10778207Y-11695142D02*
X10828207Y-11645142D01*
X10778207Y-11595142D01*
X10728207Y-11645142D01*
X10778207Y-11695142D01*
X10790000Y-7650000D02*
X10840000Y-7600000D01*
X10790000Y-7550000D01*
X10740000Y-7600000D01*
X10790000Y-7650000D01*
X10790000Y-7910000D02*
X10840000Y-7860000D01*
X10790000Y-7810000D01*
X10740000Y-7860000D01*
X10790000Y-7910000D01*
X10790000Y-8160000D02*
X10840000Y-8110000D01*
X10790000Y-8060000D01*
X10740000Y-8110000D01*
X10790000Y-8160000D01*
X11250000Y-8100000D02*
X11300000Y-8050000D01*
X11250000Y-8000000D01*
X11200000Y-8050000D01*
X11250000Y-8100000D01*
X11250000Y-8350000D02*
X11300000Y-8300000D01*
X11250000Y-8250000D01*
X11200000Y-8300000D01*
X11250000Y-8350000D01*
X11250000Y-8610000D02*
X11300000Y-8560000D01*
X11250000Y-8510000D01*
X11200000Y-8560000D01*
X11250000Y-8610000D01*
X16650000Y-10895000D02*
X16700000Y-10845000D01*
X16650000Y-10795000D01*
X16600000Y-10845000D01*
X16650000Y-10895000D01*
X16650000Y-11155000D02*
X16700000Y-11105000D01*
X16650000Y-11055000D01*
X16600000Y-11105000D01*
X16650000Y-11155000D01*
X16650000Y-11405000D02*
X16700000Y-11355000D01*
X16650000Y-11305000D01*
X16600000Y-11355000D01*
X16650000Y-11405000D01*
X18500000Y-9595000D02*
X18550000Y-9545000D01*
X18500000Y-9495000D01*
X18450000Y-9545000D01*
X18500000Y-9595000D01*
X18500000Y-9855000D02*
X18550000Y-9805000D01*
X18500000Y-9755000D01*
X18450000Y-9805000D01*
X18500000Y-9855000D01*
X18500000Y-10105000D02*
X18550000Y-10055000D01*
X18500000Y-10005000D01*
X18450000Y-10055000D01*
X18500000Y-10105000D01*
D16*
X9073500Y-4152500D02*
X9183500Y-4262500D01*
X9183500Y-4152500D02*
X9073500Y-4262500D01*
X9183500Y-4207500D02*
G75*
G03*
X9183500Y-4207500I-55000J0D01*
G01*
X9073500Y-4406500D02*
X9183500Y-4516500D01*
X9183500Y-4406500D02*
X9073500Y-4516500D01*
X9183500Y-4461500D02*
G75*
G03*
X9183500Y-4461500I-55000J0D01*
G01*
X9073500Y-4660500D02*
X9183500Y-4770500D01*
X9183500Y-4660500D02*
X9073500Y-4770500D01*
X9183500Y-4715500D02*
G75*
G03*
X9183500Y-4715500I-55000J0D01*
G01*
X9073500Y-4914500D02*
X9183500Y-5024500D01*
X9183500Y-4914500D02*
X9073500Y-5024500D01*
X9183500Y-4969500D02*
G75*
G03*
X9183500Y-4969500I-55000J0D01*
G01*
X9073500Y-5168500D02*
X9183500Y-5278500D01*
X9183500Y-5168500D02*
X9073500Y-5278500D01*
X9183500Y-5223500D02*
G75*
G03*
X9183500Y-5223500I-55000J0D01*
G01*
X9073500Y-5422500D02*
X9183500Y-5532500D01*
X9183500Y-5422500D02*
X9073500Y-5532500D01*
X9183500Y-5477500D02*
G75*
G03*
X9183500Y-5477500I-55000J0D01*
G01*
X9073500Y-5676500D02*
X9183500Y-5786500D01*
X9183500Y-5676500D02*
X9073500Y-5786500D01*
X9183500Y-5731500D02*
G75*
G03*
X9183500Y-5731500I-55000J0D01*
G01*
X9073500Y-5930500D02*
X9183500Y-6040500D01*
X9183500Y-5930500D02*
X9073500Y-6040500D01*
X9183500Y-5985500D02*
G75*
G03*
X9183500Y-5985500I-55000J0D01*
G01*
X9073500Y-6184500D02*
X9183500Y-6294500D01*
X9183500Y-6184500D02*
X9073500Y-6294500D01*
X9183500Y-6239500D02*
G75*
G03*
X9183500Y-6239500I-55000J0D01*
G01*
X9073500Y-6438500D02*
X9183500Y-6548500D01*
X9183500Y-6438500D02*
X9073500Y-6548500D01*
X9183500Y-6493500D02*
G75*
G03*
X9183500Y-6493500I-55000J0D01*
G01*
X9073500Y-6692500D02*
X9183500Y-6802500D01*
X9183500Y-6692500D02*
X9073500Y-6802500D01*
X9183500Y-6747500D02*
G75*
G03*
X9183500Y-6747500I-55000J0D01*
G01*
X9073500Y-6946500D02*
X9183500Y-7056500D01*
X9183500Y-6946500D02*
X9073500Y-7056500D01*
X9183500Y-7001500D02*
G75*
G03*
X9183500Y-7001500I-55000J0D01*
G01*
X10597500Y-4152500D02*
X10707500Y-4262500D01*
X10707500Y-4152500D02*
X10597500Y-4262500D01*
X10707500Y-4207500D02*
G75*
G03*
X10707500Y-4207500I-55000J0D01*
G01*
X10597500Y-4406500D02*
X10707500Y-4516500D01*
X10707500Y-4406500D02*
X10597500Y-4516500D01*
X10707500Y-4461500D02*
G75*
G03*
X10707500Y-4461500I-55000J0D01*
G01*
X10597500Y-4660500D02*
X10707500Y-4770500D01*
X10707500Y-4660500D02*
X10597500Y-4770500D01*
X10707500Y-4715500D02*
G75*
G03*
X10707500Y-4715500I-55000J0D01*
G01*
X10597500Y-4914500D02*
X10707500Y-5024500D01*
X10707500Y-4914500D02*
X10597500Y-5024500D01*
X10707500Y-4969500D02*
G75*
G03*
X10707500Y-4969500I-55000J0D01*
G01*
X10597500Y-5168500D02*
X10707500Y-5278500D01*
X10707500Y-5168500D02*
X10597500Y-5278500D01*
X10707500Y-5223500D02*
G75*
G03*
X10707500Y-5223500I-55000J0D01*
G01*
X10597500Y-5422500D02*
X10707500Y-5532500D01*
X10707500Y-5422500D02*
X10597500Y-5532500D01*
X10707500Y-5477500D02*
G75*
G03*
X10707500Y-5477500I-55000J0D01*
G01*
X10597500Y-5676500D02*
X10707500Y-5786500D01*
X10707500Y-5676500D02*
X10597500Y-5786500D01*
X10707500Y-5731500D02*
G75*
G03*
X10707500Y-5731500I-55000J0D01*
G01*
X10597500Y-5930500D02*
X10707500Y-6040500D01*
X10707500Y-5930500D02*
X10597500Y-6040500D01*
X10707500Y-5985500D02*
G75*
G03*
X10707500Y-5985500I-55000J0D01*
G01*
X10597500Y-6184500D02*
X10707500Y-6294500D01*
X10707500Y-6184500D02*
X10597500Y-6294500D01*
X10707500Y-6239500D02*
G75*
G03*
X10707500Y-6239500I-55000J0D01*
G01*
X10597500Y-6438500D02*
X10707500Y-6548500D01*
X10707500Y-6438500D02*
X10597500Y-6548500D01*
X10707500Y-6493500D02*
G75*
G03*
X10707500Y-6493500I-55000J0D01*
G01*
X10597500Y-6692500D02*
X10707500Y-6802500D01*
X10707500Y-6692500D02*
X10597500Y-6802500D01*
X10707500Y-6747500D02*
G75*
G03*
X10707500Y-6747500I-55000J0D01*
G01*
X10597500Y-6946500D02*
X10707500Y-7056500D01*
X10707500Y-6946500D02*
X10597500Y-7056500D01*
X10707500Y-7001500D02*
G75*
G03*
X10707500Y-7001500I-55000J0D01*
G01*
D17*
X9015000Y-8965000D02*
X9285000Y-9235000D01*
X9285000Y-8965000D02*
X9015000Y-9235000D01*
X9150000Y-8965000D02*
X9150000Y-9235000D01*
X9015000Y-9100000D02*
X9285000Y-9100000D01*
X10377000Y-11941000D02*
X10647000Y-12211000D01*
X10647000Y-11941000D02*
X10377000Y-12211000D01*
X10512000Y-11941000D02*
X10512000Y-12211000D01*
X10377000Y-12076000D02*
X10647000Y-12076000D01*
X10565000Y-8965000D02*
X10835000Y-9235000D01*
X10835000Y-8965000D02*
X10565000Y-9235000D01*
X10700000Y-8965000D02*
X10700000Y-9235000D01*
X10565000Y-9100000D02*
X10835000Y-9100000D01*
X12861000Y-9382000D02*
X13131000Y-9652000D01*
X13131000Y-9382000D02*
X12861000Y-9652000D01*
X12996000Y-9382000D02*
X12996000Y-9652000D01*
X12861000Y-9517000D02*
X13131000Y-9517000D01*
X12862500Y-5572500D02*
X13132500Y-5842500D01*
X13132500Y-5572500D02*
X12862500Y-5842500D01*
X12997500Y-5572500D02*
X12997500Y-5842500D01*
X12862500Y-5707500D02*
X13132500Y-5707500D01*
X16671000Y-5571000D02*
X16941000Y-5841000D01*
X16941000Y-5571000D02*
X16671000Y-5841000D01*
X16806000Y-5571000D02*
X16806000Y-5841000D01*
X16671000Y-5706000D02*
X16941000Y-5706000D01*
X16671000Y-9383000D02*
X16941000Y-9653000D01*
X16941000Y-9383000D02*
X16671000Y-9653000D01*
X16806000Y-9383000D02*
X16806000Y-9653000D01*
X16671000Y-9518000D02*
X16941000Y-9518000D01*
X20480000Y-6660000D02*
X20750000Y-6930000D01*
X20750000Y-6660000D02*
X20480000Y-6930000D01*
X20615000Y-6660000D02*
X20615000Y-6930000D01*
X20480000Y-6795000D02*
X20750000Y-6795000D01*
X20482000Y-10468000D02*
X20752000Y-10738000D01*
X20752000Y-10468000D02*
X20482000Y-10738000D01*
X20617000Y-10468000D02*
X20617000Y-10738000D01*
X20482000Y-10603000D02*
X20752000Y-10603000D01*
D10*
X8527619Y-15110476D02*
X8527619Y-14910476D01*
X8575238Y-14910476D01*
X8603810Y-14920000D01*
X8622857Y-14939048D01*
X8632381Y-14958095D01*
X8641905Y-14996190D01*
X8641905Y-15024762D01*
X8632381Y-15062857D01*
X8622857Y-15081905D01*
X8603810Y-15100952D01*
X8575238Y-15110476D01*
X8527619Y-15110476D01*
X8727619Y-15110476D02*
X8727619Y-14977143D01*
X8727619Y-15015238D02*
X8737143Y-14996190D01*
X8746667Y-14986667D01*
X8765714Y-14977143D01*
X8784762Y-14977143D01*
X8851429Y-15110476D02*
X8851429Y-14977143D01*
X8851429Y-14910476D02*
X8841905Y-14920000D01*
X8851429Y-14929524D01*
X8860952Y-14920000D01*
X8851429Y-14910476D01*
X8851429Y-14929524D01*
X8975238Y-15110476D02*
X8956190Y-15100952D01*
X8946667Y-15081905D01*
X8946667Y-14910476D01*
X9080000Y-15110476D02*
X9060952Y-15100952D01*
X9051429Y-15081905D01*
X9051429Y-14910476D01*
X9308571Y-15110476D02*
X9308571Y-14910476D01*
X9375238Y-15053333D01*
X9441905Y-14910476D01*
X9441905Y-15110476D01*
X9622857Y-15110476D02*
X9622857Y-15005714D01*
X9613333Y-14986667D01*
X9594286Y-14977143D01*
X9556190Y-14977143D01*
X9537143Y-14986667D01*
X9622857Y-15100952D02*
X9603810Y-15110476D01*
X9556190Y-15110476D01*
X9537143Y-15100952D01*
X9527619Y-15081905D01*
X9527619Y-15062857D01*
X9537143Y-15043809D01*
X9556190Y-15034286D01*
X9603810Y-15034286D01*
X9622857Y-15024762D01*
X9718095Y-14977143D02*
X9718095Y-15177143D01*
X9718095Y-14986667D02*
X9737143Y-14977143D01*
X9775238Y-14977143D01*
X9794286Y-14986667D01*
X9803810Y-14996190D01*
X9813333Y-15015238D01*
X9813333Y-15072381D01*
X9803810Y-15091428D01*
X9794286Y-15100952D01*
X9775238Y-15110476D01*
X9737143Y-15110476D01*
X9718095Y-15100952D01*
X9899048Y-15091428D02*
X9908571Y-15100952D01*
X9899048Y-15110476D01*
X9889524Y-15100952D01*
X9899048Y-15091428D01*
X9899048Y-15110476D01*
X9899048Y-14986667D02*
X9908571Y-14996190D01*
X9899048Y-15005714D01*
X9889524Y-14996190D01*
X9899048Y-14986667D01*
X9899048Y-15005714D01*
D11*
X8240000Y-15425000D02*
X8270000Y-15455000D01*
X8270000Y-15425000D02*
X8240000Y-15455000D01*
D10*
X8565714Y-15330476D02*
X8584762Y-15330476D01*
X8603810Y-15340000D01*
X8613333Y-15349524D01*
X8622857Y-15368571D01*
X8632381Y-15406667D01*
X8632381Y-15454286D01*
X8622857Y-15492381D01*
X8613333Y-15511428D01*
X8603810Y-15520952D01*
X8584762Y-15530476D01*
X8565714Y-15530476D01*
X8546667Y-15520952D01*
X8537143Y-15511428D01*
X8527619Y-15492381D01*
X8518095Y-15454286D01*
X8518095Y-15406667D01*
X8527619Y-15368571D01*
X8537143Y-15349524D01*
X8546667Y-15340000D01*
X8565714Y-15330476D01*
X8718095Y-15511428D02*
X8727619Y-15520952D01*
X8718095Y-15530476D01*
X8708571Y-15520952D01*
X8718095Y-15511428D01*
X8718095Y-15530476D01*
X8794286Y-15330476D02*
X8918095Y-15330476D01*
X8851429Y-15406667D01*
X8880000Y-15406667D01*
X8899048Y-15416190D01*
X8908571Y-15425714D01*
X8918095Y-15444762D01*
X8918095Y-15492381D01*
X8908571Y-15511428D01*
X8899048Y-15520952D01*
X8880000Y-15530476D01*
X8822857Y-15530476D01*
X8803810Y-15520952D01*
X8794286Y-15511428D01*
X9041905Y-15330476D02*
X9060952Y-15330476D01*
X9080000Y-15340000D01*
X9089524Y-15349524D01*
X9099048Y-15368571D01*
X9108571Y-15406667D01*
X9108571Y-15454286D01*
X9099048Y-15492381D01*
X9089524Y-15511428D01*
X9080000Y-15520952D01*
X9060952Y-15530476D01*
X9041905Y-15530476D01*
X9022857Y-15520952D01*
X9013333Y-15511428D01*
X9003810Y-15492381D01*
X8994286Y-15454286D01*
X8994286Y-15406667D01*
X9003810Y-15368571D01*
X9013333Y-15349524D01*
X9022857Y-15340000D01*
X9041905Y-15330476D01*
X9232381Y-15330476D02*
X9251429Y-15330476D01*
X9270476Y-15340000D01*
X9280000Y-15349524D01*
X9289524Y-15368571D01*
X9299048Y-15406667D01*
X9299048Y-15454286D01*
X9289524Y-15492381D01*
X9280000Y-15511428D01*
X9270476Y-15520952D01*
X9251429Y-15530476D01*
X9232381Y-15530476D01*
X9213333Y-15520952D01*
X9203810Y-15511428D01*
X9194286Y-15492381D01*
X9184762Y-15454286D01*
X9184762Y-15406667D01*
X9194286Y-15368571D01*
X9203810Y-15349524D01*
X9213333Y-15340000D01*
X9232381Y-15330476D01*
X9384762Y-15530476D02*
X9384762Y-15397143D01*
X9384762Y-15416190D02*
X9394286Y-15406667D01*
X9413333Y-15397143D01*
X9441905Y-15397143D01*
X9460952Y-15406667D01*
X9470476Y-15425714D01*
X9470476Y-15530476D01*
X9470476Y-15425714D02*
X9480000Y-15406667D01*
X9499048Y-15397143D01*
X9527619Y-15397143D01*
X9546667Y-15406667D01*
X9556190Y-15425714D01*
X9556190Y-15530476D01*
X9651429Y-15530476D02*
X9651429Y-15397143D01*
X9651429Y-15416190D02*
X9660952Y-15406667D01*
X9680000Y-15397143D01*
X9708571Y-15397143D01*
X9727619Y-15406667D01*
X9737143Y-15425714D01*
X9737143Y-15530476D01*
X9737143Y-15425714D02*
X9746667Y-15406667D01*
X9765714Y-15397143D01*
X9794286Y-15397143D01*
X9813333Y-15406667D01*
X9822857Y-15425714D01*
X9822857Y-15530476D01*
X10213333Y-15320952D02*
X10041905Y-15578095D01*
X10470476Y-15330476D02*
X10489524Y-15330476D01*
X10508571Y-15340000D01*
X10518095Y-15349524D01*
X10527619Y-15368571D01*
X10537143Y-15406667D01*
X10537143Y-15454286D01*
X10527619Y-15492381D01*
X10518095Y-15511428D01*
X10508571Y-15520952D01*
X10489524Y-15530476D01*
X10470476Y-15530476D01*
X10451429Y-15520952D01*
X10441905Y-15511428D01*
X10432381Y-15492381D01*
X10422857Y-15454286D01*
X10422857Y-15406667D01*
X10432381Y-15368571D01*
X10441905Y-15349524D01*
X10451429Y-15340000D01*
X10470476Y-15330476D01*
X10622857Y-15511428D02*
X10632381Y-15520952D01*
X10622857Y-15530476D01*
X10613333Y-15520952D01*
X10622857Y-15511428D01*
X10622857Y-15530476D01*
X10756190Y-15330476D02*
X10775238Y-15330476D01*
X10794286Y-15340000D01*
X10803810Y-15349524D01*
X10813333Y-15368571D01*
X10822857Y-15406667D01*
X10822857Y-15454286D01*
X10813333Y-15492381D01*
X10803810Y-15511428D01*
X10794286Y-15520952D01*
X10775238Y-15530476D01*
X10756190Y-15530476D01*
X10737143Y-15520952D01*
X10727619Y-15511428D01*
X10718095Y-15492381D01*
X10708571Y-15454286D01*
X10708571Y-15406667D01*
X10718095Y-15368571D01*
X10727619Y-15349524D01*
X10737143Y-15340000D01*
X10756190Y-15330476D01*
X11013333Y-15530476D02*
X10899048Y-15530476D01*
X10956190Y-15530476D02*
X10956190Y-15330476D01*
X10937143Y-15359048D01*
X10918095Y-15378095D01*
X10899048Y-15387619D01*
X11203809Y-15530476D02*
X11089524Y-15530476D01*
X11146667Y-15530476D02*
X11146667Y-15330476D01*
X11127619Y-15359048D01*
X11108571Y-15378095D01*
X11089524Y-15387619D01*
X11318095Y-15416190D02*
X11299048Y-15406667D01*
X11289524Y-15397143D01*
X11280000Y-15378095D01*
X11280000Y-15368571D01*
X11289524Y-15349524D01*
X11299048Y-15340000D01*
X11318095Y-15330476D01*
X11356190Y-15330476D01*
X11375238Y-15340000D01*
X11384762Y-15349524D01*
X11394286Y-15368571D01*
X11394286Y-15378095D01*
X11384762Y-15397143D01*
X11375238Y-15406667D01*
X11356190Y-15416190D01*
X11318095Y-15416190D01*
X11299048Y-15425714D01*
X11289524Y-15435238D01*
X11280000Y-15454286D01*
X11280000Y-15492381D01*
X11289524Y-15511428D01*
X11299048Y-15520952D01*
X11318095Y-15530476D01*
X11356190Y-15530476D01*
X11375238Y-15520952D01*
X11384762Y-15511428D01*
X11394286Y-15492381D01*
X11394286Y-15454286D01*
X11384762Y-15435238D01*
X11375238Y-15425714D01*
X11356190Y-15416190D01*
X11470476Y-15330476D02*
X11470476Y-15368571D01*
X11546667Y-15330476D02*
X11546667Y-15368571D01*
X11841905Y-15606667D02*
X11832381Y-15597143D01*
X11813333Y-15568571D01*
X11803809Y-15549524D01*
X11794286Y-15520952D01*
X11784762Y-15473333D01*
X11784762Y-15435238D01*
X11794286Y-15387619D01*
X11803809Y-15359048D01*
X11813333Y-15340000D01*
X11832381Y-15311428D01*
X11841905Y-15301905D01*
X12003809Y-15330476D02*
X11965714Y-15330476D01*
X11946667Y-15340000D01*
X11937143Y-15349524D01*
X11918095Y-15378095D01*
X11908571Y-15416190D01*
X11908571Y-15492381D01*
X11918095Y-15511428D01*
X11927619Y-15520952D01*
X11946667Y-15530476D01*
X11984762Y-15530476D01*
X12003809Y-15520952D01*
X12013333Y-15511428D01*
X12022857Y-15492381D01*
X12022857Y-15444762D01*
X12013333Y-15425714D01*
X12003809Y-15416190D01*
X11984762Y-15406667D01*
X11946667Y-15406667D01*
X11927619Y-15416190D01*
X11918095Y-15425714D01*
X11908571Y-15444762D01*
X12194286Y-15330476D02*
X12156190Y-15330476D01*
X12137143Y-15340000D01*
X12127619Y-15349524D01*
X12108571Y-15378095D01*
X12099048Y-15416190D01*
X12099048Y-15492381D01*
X12108571Y-15511428D01*
X12118095Y-15520952D01*
X12137143Y-15530476D01*
X12175238Y-15530476D01*
X12194286Y-15520952D01*
X12203809Y-15511428D01*
X12213333Y-15492381D01*
X12213333Y-15444762D01*
X12203809Y-15425714D01*
X12194286Y-15416190D01*
X12175238Y-15406667D01*
X12137143Y-15406667D01*
X12118095Y-15416190D01*
X12108571Y-15425714D01*
X12099048Y-15444762D01*
X12280000Y-15330476D02*
X12413333Y-15330476D01*
X12327619Y-15530476D01*
X12641905Y-15530476D02*
X12641905Y-15330476D01*
X12727619Y-15530476D02*
X12727619Y-15425714D01*
X12718095Y-15406667D01*
X12699048Y-15397143D01*
X12670476Y-15397143D01*
X12651428Y-15406667D01*
X12641905Y-15416190D01*
X12851428Y-15530476D02*
X12832381Y-15520952D01*
X12822857Y-15511428D01*
X12813333Y-15492381D01*
X12813333Y-15435238D01*
X12822857Y-15416190D01*
X12832381Y-15406667D01*
X12851428Y-15397143D01*
X12880000Y-15397143D01*
X12899048Y-15406667D01*
X12908571Y-15416190D01*
X12918095Y-15435238D01*
X12918095Y-15492381D01*
X12908571Y-15511428D01*
X12899048Y-15520952D01*
X12880000Y-15530476D01*
X12851428Y-15530476D01*
X13032381Y-15530476D02*
X13013333Y-15520952D01*
X13003809Y-15501905D01*
X13003809Y-15330476D01*
X13184762Y-15520952D02*
X13165714Y-15530476D01*
X13127619Y-15530476D01*
X13108571Y-15520952D01*
X13099048Y-15501905D01*
X13099048Y-15425714D01*
X13108571Y-15406667D01*
X13127619Y-15397143D01*
X13165714Y-15397143D01*
X13184762Y-15406667D01*
X13194286Y-15425714D01*
X13194286Y-15444762D01*
X13099048Y-15463809D01*
X13270476Y-15520952D02*
X13289524Y-15530476D01*
X13327619Y-15530476D01*
X13346667Y-15520952D01*
X13356190Y-15501905D01*
X13356190Y-15492381D01*
X13346667Y-15473333D01*
X13327619Y-15463809D01*
X13299048Y-15463809D01*
X13280000Y-15454286D01*
X13270476Y-15435238D01*
X13270476Y-15425714D01*
X13280000Y-15406667D01*
X13299048Y-15397143D01*
X13327619Y-15397143D01*
X13346667Y-15406667D01*
X13422857Y-15606667D02*
X13432381Y-15597143D01*
X13451428Y-15568571D01*
X13460952Y-15549524D01*
X13470476Y-15520952D01*
X13480000Y-15473333D01*
X13480000Y-15435238D01*
X13470476Y-15387619D01*
X13460952Y-15359048D01*
X13451428Y-15340000D01*
X13432381Y-15311428D01*
X13422857Y-15301905D01*
D12*
X8270000Y-15704000D02*
G75*
G03*
X8270000Y-15704000I-17500J0D01*
G01*
D10*
X8565714Y-15594476D02*
X8584762Y-15594476D01*
X8603810Y-15604000D01*
X8613333Y-15613524D01*
X8622857Y-15632571D01*
X8632381Y-15670667D01*
X8632381Y-15718286D01*
X8622857Y-15756381D01*
X8613333Y-15775428D01*
X8603810Y-15784952D01*
X8584762Y-15794476D01*
X8565714Y-15794476D01*
X8546667Y-15784952D01*
X8537143Y-15775428D01*
X8527619Y-15756381D01*
X8518095Y-15718286D01*
X8518095Y-15670667D01*
X8527619Y-15632571D01*
X8537143Y-15613524D01*
X8546667Y-15604000D01*
X8565714Y-15594476D01*
X8718095Y-15775428D02*
X8727619Y-15784952D01*
X8718095Y-15794476D01*
X8708571Y-15784952D01*
X8718095Y-15775428D01*
X8718095Y-15794476D01*
X8794286Y-15594476D02*
X8918095Y-15594476D01*
X8851429Y-15670667D01*
X8880000Y-15670667D01*
X8899048Y-15680190D01*
X8908571Y-15689714D01*
X8918095Y-15708762D01*
X8918095Y-15756381D01*
X8908571Y-15775428D01*
X8899048Y-15784952D01*
X8880000Y-15794476D01*
X8822857Y-15794476D01*
X8803810Y-15784952D01*
X8794286Y-15775428D01*
X9099048Y-15594476D02*
X9003810Y-15594476D01*
X8994286Y-15689714D01*
X9003810Y-15680190D01*
X9022857Y-15670667D01*
X9070476Y-15670667D01*
X9089524Y-15680190D01*
X9099048Y-15689714D01*
X9108571Y-15708762D01*
X9108571Y-15756381D01*
X9099048Y-15775428D01*
X9089524Y-15784952D01*
X9070476Y-15794476D01*
X9022857Y-15794476D01*
X9003810Y-15784952D01*
X8994286Y-15775428D01*
X9232381Y-15594476D02*
X9251429Y-15594476D01*
X9270476Y-15604000D01*
X9280000Y-15613524D01*
X9289524Y-15632571D01*
X9299048Y-15670667D01*
X9299048Y-15718286D01*
X9289524Y-15756381D01*
X9280000Y-15775428D01*
X9270476Y-15784952D01*
X9251429Y-15794476D01*
X9232381Y-15794476D01*
X9213333Y-15784952D01*
X9203810Y-15775428D01*
X9194286Y-15756381D01*
X9184762Y-15718286D01*
X9184762Y-15670667D01*
X9194286Y-15632571D01*
X9203810Y-15613524D01*
X9213333Y-15604000D01*
X9232381Y-15594476D01*
X9384762Y-15794476D02*
X9384762Y-15661143D01*
X9384762Y-15680190D02*
X9394286Y-15670667D01*
X9413333Y-15661143D01*
X9441905Y-15661143D01*
X9460952Y-15670667D01*
X9470476Y-15689714D01*
X9470476Y-15794476D01*
X9470476Y-15689714D02*
X9480000Y-15670667D01*
X9499048Y-15661143D01*
X9527619Y-15661143D01*
X9546667Y-15670667D01*
X9556190Y-15689714D01*
X9556190Y-15794476D01*
X9651429Y-15794476D02*
X9651429Y-15661143D01*
X9651429Y-15680190D02*
X9660952Y-15670667D01*
X9680000Y-15661143D01*
X9708571Y-15661143D01*
X9727619Y-15670667D01*
X9737143Y-15689714D01*
X9737143Y-15794476D01*
X9737143Y-15689714D02*
X9746667Y-15670667D01*
X9765714Y-15661143D01*
X9794286Y-15661143D01*
X9813333Y-15670667D01*
X9822857Y-15689714D01*
X9822857Y-15794476D01*
X10213333Y-15584952D02*
X10041905Y-15842095D01*
X10470476Y-15594476D02*
X10489524Y-15594476D01*
X10508571Y-15604000D01*
X10518095Y-15613524D01*
X10527619Y-15632571D01*
X10537143Y-15670667D01*
X10537143Y-15718286D01*
X10527619Y-15756381D01*
X10518095Y-15775428D01*
X10508571Y-15784952D01*
X10489524Y-15794476D01*
X10470476Y-15794476D01*
X10451429Y-15784952D01*
X10441905Y-15775428D01*
X10432381Y-15756381D01*
X10422857Y-15718286D01*
X10422857Y-15670667D01*
X10432381Y-15632571D01*
X10441905Y-15613524D01*
X10451429Y-15604000D01*
X10470476Y-15594476D01*
X10622857Y-15775428D02*
X10632381Y-15784952D01*
X10622857Y-15794476D01*
X10613333Y-15784952D01*
X10622857Y-15775428D01*
X10622857Y-15794476D01*
X10756190Y-15594476D02*
X10775238Y-15594476D01*
X10794286Y-15604000D01*
X10803810Y-15613524D01*
X10813333Y-15632571D01*
X10822857Y-15670667D01*
X10822857Y-15718286D01*
X10813333Y-15756381D01*
X10803810Y-15775428D01*
X10794286Y-15784952D01*
X10775238Y-15794476D01*
X10756190Y-15794476D01*
X10737143Y-15784952D01*
X10727619Y-15775428D01*
X10718095Y-15756381D01*
X10708571Y-15718286D01*
X10708571Y-15670667D01*
X10718095Y-15632571D01*
X10727619Y-15613524D01*
X10737143Y-15604000D01*
X10756190Y-15594476D01*
X11013333Y-15794476D02*
X10899048Y-15794476D01*
X10956190Y-15794476D02*
X10956190Y-15594476D01*
X10937143Y-15623048D01*
X10918095Y-15642095D01*
X10899048Y-15651619D01*
X11080000Y-15594476D02*
X11203809Y-15594476D01*
X11137143Y-15670667D01*
X11165714Y-15670667D01*
X11184762Y-15680190D01*
X11194286Y-15689714D01*
X11203809Y-15708762D01*
X11203809Y-15756381D01*
X11194286Y-15775428D01*
X11184762Y-15784952D01*
X11165714Y-15794476D01*
X11108571Y-15794476D01*
X11089524Y-15784952D01*
X11080000Y-15775428D01*
X11318095Y-15680190D02*
X11299048Y-15670667D01*
X11289524Y-15661143D01*
X11280000Y-15642095D01*
X11280000Y-15632571D01*
X11289524Y-15613524D01*
X11299048Y-15604000D01*
X11318095Y-15594476D01*
X11356190Y-15594476D01*
X11375238Y-15604000D01*
X11384762Y-15613524D01*
X11394286Y-15632571D01*
X11394286Y-15642095D01*
X11384762Y-15661143D01*
X11375238Y-15670667D01*
X11356190Y-15680190D01*
X11318095Y-15680190D01*
X11299048Y-15689714D01*
X11289524Y-15699238D01*
X11280000Y-15718286D01*
X11280000Y-15756381D01*
X11289524Y-15775428D01*
X11299048Y-15784952D01*
X11318095Y-15794476D01*
X11356190Y-15794476D01*
X11375238Y-15784952D01*
X11384762Y-15775428D01*
X11394286Y-15756381D01*
X11394286Y-15718286D01*
X11384762Y-15699238D01*
X11375238Y-15689714D01*
X11356190Y-15680190D01*
X11470476Y-15594476D02*
X11470476Y-15632571D01*
X11546667Y-15594476D02*
X11546667Y-15632571D01*
X11841905Y-15870667D02*
X11832381Y-15861143D01*
X11813333Y-15832571D01*
X11803809Y-15813524D01*
X11794286Y-15784952D01*
X11784762Y-15737333D01*
X11784762Y-15699238D01*
X11794286Y-15651619D01*
X11803809Y-15623048D01*
X11813333Y-15604000D01*
X11832381Y-15575428D01*
X11841905Y-15565905D01*
X12003809Y-15594476D02*
X11965714Y-15594476D01*
X11946667Y-15604000D01*
X11937143Y-15613524D01*
X11918095Y-15642095D01*
X11908571Y-15680190D01*
X11908571Y-15756381D01*
X11918095Y-15775428D01*
X11927619Y-15784952D01*
X11946667Y-15794476D01*
X11984762Y-15794476D01*
X12003809Y-15784952D01*
X12013333Y-15775428D01*
X12022857Y-15756381D01*
X12022857Y-15708762D01*
X12013333Y-15689714D01*
X12003809Y-15680190D01*
X11984762Y-15670667D01*
X11946667Y-15670667D01*
X11927619Y-15680190D01*
X11918095Y-15689714D01*
X11908571Y-15708762D01*
X12260952Y-15794476D02*
X12260952Y-15594476D01*
X12346667Y-15794476D02*
X12346667Y-15689714D01*
X12337143Y-15670667D01*
X12318095Y-15661143D01*
X12289524Y-15661143D01*
X12270476Y-15670667D01*
X12260952Y-15680190D01*
X12470476Y-15794476D02*
X12451428Y-15784952D01*
X12441905Y-15775428D01*
X12432381Y-15756381D01*
X12432381Y-15699238D01*
X12441905Y-15680190D01*
X12451428Y-15670667D01*
X12470476Y-15661143D01*
X12499048Y-15661143D01*
X12518095Y-15670667D01*
X12527619Y-15680190D01*
X12537143Y-15699238D01*
X12537143Y-15756381D01*
X12527619Y-15775428D01*
X12518095Y-15784952D01*
X12499048Y-15794476D01*
X12470476Y-15794476D01*
X12651428Y-15794476D02*
X12632381Y-15784952D01*
X12622857Y-15765905D01*
X12622857Y-15594476D01*
X12803809Y-15784952D02*
X12784762Y-15794476D01*
X12746667Y-15794476D01*
X12727619Y-15784952D01*
X12718095Y-15765905D01*
X12718095Y-15689714D01*
X12727619Y-15670667D01*
X12746667Y-15661143D01*
X12784762Y-15661143D01*
X12803809Y-15670667D01*
X12813333Y-15689714D01*
X12813333Y-15708762D01*
X12718095Y-15727809D01*
X12889524Y-15784952D02*
X12908571Y-15794476D01*
X12946667Y-15794476D01*
X12965714Y-15784952D01*
X12975238Y-15765905D01*
X12975238Y-15756381D01*
X12965714Y-15737333D01*
X12946667Y-15727809D01*
X12918095Y-15727809D01*
X12899048Y-15718286D01*
X12889524Y-15699238D01*
X12889524Y-15689714D01*
X12899048Y-15670667D01*
X12918095Y-15661143D01*
X12946667Y-15661143D01*
X12965714Y-15670667D01*
X13041905Y-15870667D02*
X13051428Y-15861143D01*
X13070476Y-15832571D01*
X13080000Y-15813524D01*
X13089524Y-15784952D01*
X13099048Y-15737333D01*
X13099048Y-15699238D01*
X13089524Y-15651619D01*
X13080000Y-15623048D01*
X13070476Y-15604000D01*
X13051428Y-15575428D01*
X13041905Y-15565905D01*
D13*
X8231900Y-15929900D02*
X8231900Y-16006100D01*
X8193800Y-15968000D02*
X8270000Y-15968000D01*
D10*
X8565714Y-15858476D02*
X8584762Y-15858476D01*
X8603810Y-15868000D01*
X8613333Y-15877524D01*
X8622857Y-15896571D01*
X8632381Y-15934667D01*
X8632381Y-15982286D01*
X8622857Y-16020381D01*
X8613333Y-16039428D01*
X8603810Y-16048952D01*
X8584762Y-16058476D01*
X8565714Y-16058476D01*
X8546667Y-16048952D01*
X8537143Y-16039428D01*
X8527619Y-16020381D01*
X8518095Y-15982286D01*
X8518095Y-15934667D01*
X8527619Y-15896571D01*
X8537143Y-15877524D01*
X8546667Y-15868000D01*
X8565714Y-15858476D01*
X8718095Y-16039428D02*
X8727619Y-16048952D01*
X8718095Y-16058476D01*
X8708571Y-16048952D01*
X8718095Y-16039428D01*
X8718095Y-16058476D01*
X8794286Y-15858476D02*
X8927619Y-15858476D01*
X8841905Y-16058476D01*
X9089524Y-15858476D02*
X9051429Y-15858476D01*
X9032381Y-15868000D01*
X9022857Y-15877524D01*
X9003810Y-15906095D01*
X8994286Y-15944190D01*
X8994286Y-16020381D01*
X9003810Y-16039428D01*
X9013333Y-16048952D01*
X9032381Y-16058476D01*
X9070476Y-16058476D01*
X9089524Y-16048952D01*
X9099048Y-16039428D01*
X9108571Y-16020381D01*
X9108571Y-15972762D01*
X9099048Y-15953714D01*
X9089524Y-15944190D01*
X9070476Y-15934667D01*
X9032381Y-15934667D01*
X9013333Y-15944190D01*
X9003810Y-15953714D01*
X8994286Y-15972762D01*
X9184762Y-15877524D02*
X9194286Y-15868000D01*
X9213333Y-15858476D01*
X9260952Y-15858476D01*
X9280000Y-15868000D01*
X9289524Y-15877524D01*
X9299048Y-15896571D01*
X9299048Y-15915619D01*
X9289524Y-15944190D01*
X9175238Y-16058476D01*
X9299048Y-16058476D01*
X9384762Y-16058476D02*
X9384762Y-15925143D01*
X9384762Y-15944190D02*
X9394286Y-15934667D01*
X9413333Y-15925143D01*
X9441905Y-15925143D01*
X9460952Y-15934667D01*
X9470476Y-15953714D01*
X9470476Y-16058476D01*
X9470476Y-15953714D02*
X9480000Y-15934667D01*
X9499048Y-15925143D01*
X9527619Y-15925143D01*
X9546667Y-15934667D01*
X9556190Y-15953714D01*
X9556190Y-16058476D01*
X9651429Y-16058476D02*
X9651429Y-15925143D01*
X9651429Y-15944190D02*
X9660952Y-15934667D01*
X9680000Y-15925143D01*
X9708571Y-15925143D01*
X9727619Y-15934667D01*
X9737143Y-15953714D01*
X9737143Y-16058476D01*
X9737143Y-15953714D02*
X9746667Y-15934667D01*
X9765714Y-15925143D01*
X9794286Y-15925143D01*
X9813333Y-15934667D01*
X9822857Y-15953714D01*
X9822857Y-16058476D01*
X10213333Y-15848952D02*
X10041905Y-16106095D01*
X10470476Y-15858476D02*
X10489524Y-15858476D01*
X10508571Y-15868000D01*
X10518095Y-15877524D01*
X10527619Y-15896571D01*
X10537143Y-15934667D01*
X10537143Y-15982286D01*
X10527619Y-16020381D01*
X10518095Y-16039428D01*
X10508571Y-16048952D01*
X10489524Y-16058476D01*
X10470476Y-16058476D01*
X10451429Y-16048952D01*
X10441905Y-16039428D01*
X10432381Y-16020381D01*
X10422857Y-15982286D01*
X10422857Y-15934667D01*
X10432381Y-15896571D01*
X10441905Y-15877524D01*
X10451429Y-15868000D01*
X10470476Y-15858476D01*
X10622857Y-16039428D02*
X10632381Y-16048952D01*
X10622857Y-16058476D01*
X10613333Y-16048952D01*
X10622857Y-16039428D01*
X10622857Y-16058476D01*
X10756190Y-15858476D02*
X10775238Y-15858476D01*
X10794286Y-15868000D01*
X10803810Y-15877524D01*
X10813333Y-15896571D01*
X10822857Y-15934667D01*
X10822857Y-15982286D01*
X10813333Y-16020381D01*
X10803810Y-16039428D01*
X10794286Y-16048952D01*
X10775238Y-16058476D01*
X10756190Y-16058476D01*
X10737143Y-16048952D01*
X10727619Y-16039428D01*
X10718095Y-16020381D01*
X10708571Y-15982286D01*
X10708571Y-15934667D01*
X10718095Y-15896571D01*
X10727619Y-15877524D01*
X10737143Y-15868000D01*
X10756190Y-15858476D01*
X10889524Y-15858476D02*
X11013333Y-15858476D01*
X10946667Y-15934667D01*
X10975238Y-15934667D01*
X10994286Y-15944190D01*
X11003810Y-15953714D01*
X11013333Y-15972762D01*
X11013333Y-16020381D01*
X11003810Y-16039428D01*
X10994286Y-16048952D01*
X10975238Y-16058476D01*
X10918095Y-16058476D01*
X10899048Y-16048952D01*
X10889524Y-16039428D01*
X11137143Y-15858476D02*
X11156190Y-15858476D01*
X11175238Y-15868000D01*
X11184762Y-15877524D01*
X11194286Y-15896571D01*
X11203809Y-15934667D01*
X11203809Y-15982286D01*
X11194286Y-16020381D01*
X11184762Y-16039428D01*
X11175238Y-16048952D01*
X11156190Y-16058476D01*
X11137143Y-16058476D01*
X11118095Y-16048952D01*
X11108571Y-16039428D01*
X11099048Y-16020381D01*
X11089524Y-15982286D01*
X11089524Y-15934667D01*
X11099048Y-15896571D01*
X11108571Y-15877524D01*
X11118095Y-15868000D01*
X11137143Y-15858476D01*
X11327619Y-15858476D02*
X11346667Y-15858476D01*
X11365714Y-15868000D01*
X11375238Y-15877524D01*
X11384762Y-15896571D01*
X11394286Y-15934667D01*
X11394286Y-15982286D01*
X11384762Y-16020381D01*
X11375238Y-16039428D01*
X11365714Y-16048952D01*
X11346667Y-16058476D01*
X11327619Y-16058476D01*
X11308571Y-16048952D01*
X11299048Y-16039428D01*
X11289524Y-16020381D01*
X11280000Y-15982286D01*
X11280000Y-15934667D01*
X11289524Y-15896571D01*
X11299048Y-15877524D01*
X11308571Y-15868000D01*
X11327619Y-15858476D01*
X11470476Y-15858476D02*
X11470476Y-15896571D01*
X11546667Y-15858476D02*
X11546667Y-15896571D01*
X11841905Y-16134667D02*
X11832381Y-16125143D01*
X11813333Y-16096571D01*
X11803809Y-16077524D01*
X11794286Y-16048952D01*
X11784762Y-16001333D01*
X11784762Y-15963238D01*
X11794286Y-15915619D01*
X11803809Y-15887048D01*
X11813333Y-15868000D01*
X11832381Y-15839428D01*
X11841905Y-15829905D01*
X12022857Y-16058476D02*
X11908571Y-16058476D01*
X11965714Y-16058476D02*
X11965714Y-15858476D01*
X11946667Y-15887048D01*
X11927619Y-15906095D01*
X11908571Y-15915619D01*
X12146667Y-15858476D02*
X12165714Y-15858476D01*
X12184762Y-15868000D01*
X12194286Y-15877524D01*
X12203809Y-15896571D01*
X12213333Y-15934667D01*
X12213333Y-15982286D01*
X12203809Y-16020381D01*
X12194286Y-16039428D01*
X12184762Y-16048952D01*
X12165714Y-16058476D01*
X12146667Y-16058476D01*
X12127619Y-16048952D01*
X12118095Y-16039428D01*
X12108571Y-16020381D01*
X12099048Y-15982286D01*
X12099048Y-15934667D01*
X12108571Y-15896571D01*
X12118095Y-15877524D01*
X12127619Y-15868000D01*
X12146667Y-15858476D01*
X12451428Y-16058476D02*
X12451428Y-15858476D01*
X12537143Y-16058476D02*
X12537143Y-15953714D01*
X12527619Y-15934667D01*
X12508571Y-15925143D01*
X12480000Y-15925143D01*
X12460952Y-15934667D01*
X12451428Y-15944190D01*
X12660952Y-16058476D02*
X12641905Y-16048952D01*
X12632381Y-16039428D01*
X12622857Y-16020381D01*
X12622857Y-15963238D01*
X12632381Y-15944190D01*
X12641905Y-15934667D01*
X12660952Y-15925143D01*
X12689524Y-15925143D01*
X12708571Y-15934667D01*
X12718095Y-15944190D01*
X12727619Y-15963238D01*
X12727619Y-16020381D01*
X12718095Y-16039428D01*
X12708571Y-16048952D01*
X12689524Y-16058476D01*
X12660952Y-16058476D01*
X12841905Y-16058476D02*
X12822857Y-16048952D01*
X12813333Y-16029905D01*
X12813333Y-15858476D01*
X12994286Y-16048952D02*
X12975238Y-16058476D01*
X12937143Y-16058476D01*
X12918095Y-16048952D01*
X12908571Y-16029905D01*
X12908571Y-15953714D01*
X12918095Y-15934667D01*
X12937143Y-15925143D01*
X12975238Y-15925143D01*
X12994286Y-15934667D01*
X13003809Y-15953714D01*
X13003809Y-15972762D01*
X12908571Y-15991809D01*
X13080000Y-16048952D02*
X13099048Y-16058476D01*
X13137143Y-16058476D01*
X13156190Y-16048952D01*
X13165714Y-16029905D01*
X13165714Y-16020381D01*
X13156190Y-16001333D01*
X13137143Y-15991809D01*
X13108571Y-15991809D01*
X13089524Y-15982286D01*
X13080000Y-15963238D01*
X13080000Y-15953714D01*
X13089524Y-15934667D01*
X13108571Y-15925143D01*
X13137143Y-15925143D01*
X13156190Y-15934667D01*
X13232381Y-16134667D02*
X13241905Y-16125143D01*
X13260952Y-16096571D01*
X13270476Y-16077524D01*
X13280000Y-16048952D01*
X13289524Y-16001333D01*
X13289524Y-15963238D01*
X13280000Y-15915619D01*
X13270476Y-15887048D01*
X13260952Y-15868000D01*
X13241905Y-15839428D01*
X13232381Y-15829905D01*
D14*
X8258097Y-16260737D02*
X8258097Y-16203263D01*
X8200623Y-16203263D01*
X8200623Y-16260737D01*
X8258097Y-16260737D01*
D10*
X8565714Y-16122476D02*
X8584762Y-16122476D01*
X8603810Y-16132000D01*
X8613333Y-16141524D01*
X8622857Y-16160571D01*
X8632381Y-16198667D01*
X8632381Y-16246286D01*
X8622857Y-16284381D01*
X8613333Y-16303428D01*
X8603810Y-16312952D01*
X8584762Y-16322476D01*
X8565714Y-16322476D01*
X8546667Y-16312952D01*
X8537143Y-16303428D01*
X8527619Y-16284381D01*
X8518095Y-16246286D01*
X8518095Y-16198667D01*
X8527619Y-16160571D01*
X8537143Y-16141524D01*
X8546667Y-16132000D01*
X8565714Y-16122476D01*
X8718095Y-16303428D02*
X8727619Y-16312952D01*
X8718095Y-16322476D01*
X8708571Y-16312952D01*
X8718095Y-16303428D01*
X8718095Y-16322476D01*
X8841905Y-16208190D02*
X8822857Y-16198667D01*
X8813333Y-16189143D01*
X8803810Y-16170095D01*
X8803810Y-16160571D01*
X8813333Y-16141524D01*
X8822857Y-16132000D01*
X8841905Y-16122476D01*
X8880000Y-16122476D01*
X8899048Y-16132000D01*
X8908571Y-16141524D01*
X8918095Y-16160571D01*
X8918095Y-16170095D01*
X8908571Y-16189143D01*
X8899048Y-16198667D01*
X8880000Y-16208190D01*
X8841905Y-16208190D01*
X8822857Y-16217714D01*
X8813333Y-16227238D01*
X8803810Y-16246286D01*
X8803810Y-16284381D01*
X8813333Y-16303428D01*
X8822857Y-16312952D01*
X8841905Y-16322476D01*
X8880000Y-16322476D01*
X8899048Y-16312952D01*
X8908571Y-16303428D01*
X8918095Y-16284381D01*
X8918095Y-16246286D01*
X8908571Y-16227238D01*
X8899048Y-16217714D01*
X8880000Y-16208190D01*
X9108571Y-16322476D02*
X8994286Y-16322476D01*
X9051429Y-16322476D02*
X9051429Y-16122476D01*
X9032381Y-16151048D01*
X9013333Y-16170095D01*
X8994286Y-16179619D01*
X9175238Y-16122476D02*
X9299048Y-16122476D01*
X9232381Y-16198667D01*
X9260952Y-16198667D01*
X9280000Y-16208190D01*
X9289524Y-16217714D01*
X9299048Y-16236762D01*
X9299048Y-16284381D01*
X9289524Y-16303428D01*
X9280000Y-16312952D01*
X9260952Y-16322476D01*
X9203810Y-16322476D01*
X9184762Y-16312952D01*
X9175238Y-16303428D01*
X9384762Y-16322476D02*
X9384762Y-16189143D01*
X9384762Y-16208190D02*
X9394286Y-16198667D01*
X9413333Y-16189143D01*
X9441905Y-16189143D01*
X9460952Y-16198667D01*
X9470476Y-16217714D01*
X9470476Y-16322476D01*
X9470476Y-16217714D02*
X9480000Y-16198667D01*
X9499048Y-16189143D01*
X9527619Y-16189143D01*
X9546667Y-16198667D01*
X9556190Y-16217714D01*
X9556190Y-16322476D01*
X9651429Y-16322476D02*
X9651429Y-16189143D01*
X9651429Y-16208190D02*
X9660952Y-16198667D01*
X9680000Y-16189143D01*
X9708571Y-16189143D01*
X9727619Y-16198667D01*
X9737143Y-16217714D01*
X9737143Y-16322476D01*
X9737143Y-16217714D02*
X9746667Y-16198667D01*
X9765714Y-16189143D01*
X9794286Y-16189143D01*
X9813333Y-16198667D01*
X9822857Y-16217714D01*
X9822857Y-16322476D01*
X10213333Y-16112952D02*
X10041905Y-16370095D01*
X10470476Y-16122476D02*
X10489524Y-16122476D01*
X10508571Y-16132000D01*
X10518095Y-16141524D01*
X10527619Y-16160571D01*
X10537143Y-16198667D01*
X10537143Y-16246286D01*
X10527619Y-16284381D01*
X10518095Y-16303428D01*
X10508571Y-16312952D01*
X10489524Y-16322476D01*
X10470476Y-16322476D01*
X10451429Y-16312952D01*
X10441905Y-16303428D01*
X10432381Y-16284381D01*
X10422857Y-16246286D01*
X10422857Y-16198667D01*
X10432381Y-16160571D01*
X10441905Y-16141524D01*
X10451429Y-16132000D01*
X10470476Y-16122476D01*
X10622857Y-16303428D02*
X10632381Y-16312952D01*
X10622857Y-16322476D01*
X10613333Y-16312952D01*
X10622857Y-16303428D01*
X10622857Y-16322476D01*
X10756190Y-16122476D02*
X10775238Y-16122476D01*
X10794286Y-16132000D01*
X10803810Y-16141524D01*
X10813333Y-16160571D01*
X10822857Y-16198667D01*
X10822857Y-16246286D01*
X10813333Y-16284381D01*
X10803810Y-16303428D01*
X10794286Y-16312952D01*
X10775238Y-16322476D01*
X10756190Y-16322476D01*
X10737143Y-16312952D01*
X10727619Y-16303428D01*
X10718095Y-16284381D01*
X10708571Y-16246286D01*
X10708571Y-16198667D01*
X10718095Y-16160571D01*
X10727619Y-16141524D01*
X10737143Y-16132000D01*
X10756190Y-16122476D01*
X10889524Y-16122476D02*
X11013333Y-16122476D01*
X10946667Y-16198667D01*
X10975238Y-16198667D01*
X10994286Y-16208190D01*
X11003810Y-16217714D01*
X11013333Y-16236762D01*
X11013333Y-16284381D01*
X11003810Y-16303428D01*
X10994286Y-16312952D01*
X10975238Y-16322476D01*
X10918095Y-16322476D01*
X10899048Y-16312952D01*
X10889524Y-16303428D01*
X11089524Y-16141524D02*
X11099048Y-16132000D01*
X11118095Y-16122476D01*
X11165714Y-16122476D01*
X11184762Y-16132000D01*
X11194286Y-16141524D01*
X11203809Y-16160571D01*
X11203809Y-16179619D01*
X11194286Y-16208190D01*
X11080000Y-16322476D01*
X11203809Y-16322476D01*
X11327619Y-16122476D02*
X11346667Y-16122476D01*
X11365714Y-16132000D01*
X11375238Y-16141524D01*
X11384762Y-16160571D01*
X11394286Y-16198667D01*
X11394286Y-16246286D01*
X11384762Y-16284381D01*
X11375238Y-16303428D01*
X11365714Y-16312952D01*
X11346667Y-16322476D01*
X11327619Y-16322476D01*
X11308571Y-16312952D01*
X11299048Y-16303428D01*
X11289524Y-16284381D01*
X11280000Y-16246286D01*
X11280000Y-16198667D01*
X11289524Y-16160571D01*
X11299048Y-16141524D01*
X11308571Y-16132000D01*
X11327619Y-16122476D01*
X11470476Y-16122476D02*
X11470476Y-16160571D01*
X11546667Y-16122476D02*
X11546667Y-16160571D01*
X11841905Y-16398667D02*
X11832381Y-16389143D01*
X11813333Y-16360571D01*
X11803809Y-16341524D01*
X11794286Y-16312952D01*
X11784762Y-16265333D01*
X11784762Y-16227238D01*
X11794286Y-16179619D01*
X11803809Y-16151048D01*
X11813333Y-16132000D01*
X11832381Y-16103428D01*
X11841905Y-16093905D01*
X12022857Y-16322476D02*
X11908571Y-16322476D01*
X11965714Y-16322476D02*
X11965714Y-16122476D01*
X11946667Y-16151048D01*
X11927619Y-16170095D01*
X11908571Y-16179619D01*
X12146667Y-16122476D02*
X12165714Y-16122476D01*
X12184762Y-16132000D01*
X12194286Y-16141524D01*
X12203809Y-16160571D01*
X12213333Y-16198667D01*
X12213333Y-16246286D01*
X12203809Y-16284381D01*
X12194286Y-16303428D01*
X12184762Y-16312952D01*
X12165714Y-16322476D01*
X12146667Y-16322476D01*
X12127619Y-16312952D01*
X12118095Y-16303428D01*
X12108571Y-16284381D01*
X12099048Y-16246286D01*
X12099048Y-16198667D01*
X12108571Y-16160571D01*
X12118095Y-16141524D01*
X12127619Y-16132000D01*
X12146667Y-16122476D01*
X12451428Y-16322476D02*
X12451428Y-16122476D01*
X12537143Y-16322476D02*
X12537143Y-16217714D01*
X12527619Y-16198667D01*
X12508571Y-16189143D01*
X12480000Y-16189143D01*
X12460952Y-16198667D01*
X12451428Y-16208190D01*
X12660952Y-16322476D02*
X12641905Y-16312952D01*
X12632381Y-16303428D01*
X12622857Y-16284381D01*
X12622857Y-16227238D01*
X12632381Y-16208190D01*
X12641905Y-16198667D01*
X12660952Y-16189143D01*
X12689524Y-16189143D01*
X12708571Y-16198667D01*
X12718095Y-16208190D01*
X12727619Y-16227238D01*
X12727619Y-16284381D01*
X12718095Y-16303428D01*
X12708571Y-16312952D01*
X12689524Y-16322476D01*
X12660952Y-16322476D01*
X12841905Y-16322476D02*
X12822857Y-16312952D01*
X12813333Y-16293905D01*
X12813333Y-16122476D01*
X12994286Y-16312952D02*
X12975238Y-16322476D01*
X12937143Y-16322476D01*
X12918095Y-16312952D01*
X12908571Y-16293905D01*
X12908571Y-16217714D01*
X12918095Y-16198667D01*
X12937143Y-16189143D01*
X12975238Y-16189143D01*
X12994286Y-16198667D01*
X13003809Y-16217714D01*
X13003809Y-16236762D01*
X12908571Y-16255809D01*
X13080000Y-16312952D02*
X13099048Y-16322476D01*
X13137143Y-16322476D01*
X13156190Y-16312952D01*
X13165714Y-16293905D01*
X13165714Y-16284381D01*
X13156190Y-16265333D01*
X13137143Y-16255809D01*
X13108571Y-16255809D01*
X13089524Y-16246286D01*
X13080000Y-16227238D01*
X13080000Y-16217714D01*
X13089524Y-16198667D01*
X13108571Y-16189143D01*
X13137143Y-16189143D01*
X13156190Y-16198667D01*
X13232381Y-16398667D02*
X13241905Y-16389143D01*
X13260952Y-16360571D01*
X13270476Y-16341524D01*
X13280000Y-16312952D01*
X13289524Y-16265333D01*
X13289524Y-16227238D01*
X13280000Y-16179619D01*
X13270476Y-16151048D01*
X13260952Y-16132000D01*
X13241905Y-16103428D01*
X13232381Y-16093905D01*
D15*
X8220000Y-16546000D02*
X8270000Y-16496000D01*
X8220000Y-16446000D01*
X8170000Y-16496000D01*
X8220000Y-16546000D01*
D10*
X8632381Y-16586476D02*
X8518095Y-16586476D01*
X8575238Y-16586476D02*
X8575238Y-16386476D01*
X8556190Y-16415048D01*
X8537143Y-16434095D01*
X8518095Y-16443619D01*
X8718095Y-16567428D02*
X8727619Y-16576952D01*
X8718095Y-16586476D01*
X8708571Y-16576952D01*
X8718095Y-16567428D01*
X8718095Y-16586476D01*
X8851429Y-16386476D02*
X8870476Y-16386476D01*
X8889524Y-16396000D01*
X8899048Y-16405524D01*
X8908571Y-16424571D01*
X8918095Y-16462667D01*
X8918095Y-16510286D01*
X8908571Y-16548381D01*
X8899048Y-16567428D01*
X8889524Y-16576952D01*
X8870476Y-16586476D01*
X8851429Y-16586476D01*
X8832381Y-16576952D01*
X8822857Y-16567428D01*
X8813333Y-16548381D01*
X8803810Y-16510286D01*
X8803810Y-16462667D01*
X8813333Y-16424571D01*
X8822857Y-16405524D01*
X8832381Y-16396000D01*
X8851429Y-16386476D01*
X9041905Y-16386476D02*
X9060952Y-16386476D01*
X9080000Y-16396000D01*
X9089524Y-16405524D01*
X9099048Y-16424571D01*
X9108571Y-16462667D01*
X9108571Y-16510286D01*
X9099048Y-16548381D01*
X9089524Y-16567428D01*
X9080000Y-16576952D01*
X9060952Y-16586476D01*
X9041905Y-16586476D01*
X9022857Y-16576952D01*
X9013333Y-16567428D01*
X9003810Y-16548381D01*
X8994286Y-16510286D01*
X8994286Y-16462667D01*
X9003810Y-16424571D01*
X9013333Y-16405524D01*
X9022857Y-16396000D01*
X9041905Y-16386476D01*
X9232381Y-16386476D02*
X9251429Y-16386476D01*
X9270476Y-16396000D01*
X9280000Y-16405524D01*
X9289524Y-16424571D01*
X9299048Y-16462667D01*
X9299048Y-16510286D01*
X9289524Y-16548381D01*
X9280000Y-16567428D01*
X9270476Y-16576952D01*
X9251429Y-16586476D01*
X9232381Y-16586476D01*
X9213333Y-16576952D01*
X9203810Y-16567428D01*
X9194286Y-16548381D01*
X9184762Y-16510286D01*
X9184762Y-16462667D01*
X9194286Y-16424571D01*
X9203810Y-16405524D01*
X9213333Y-16396000D01*
X9232381Y-16386476D01*
X9384762Y-16586476D02*
X9384762Y-16453143D01*
X9384762Y-16472190D02*
X9394286Y-16462667D01*
X9413333Y-16453143D01*
X9441905Y-16453143D01*
X9460952Y-16462667D01*
X9470476Y-16481714D01*
X9470476Y-16586476D01*
X9470476Y-16481714D02*
X9480000Y-16462667D01*
X9499048Y-16453143D01*
X9527619Y-16453143D01*
X9546667Y-16462667D01*
X9556190Y-16481714D01*
X9556190Y-16586476D01*
X9651429Y-16586476D02*
X9651429Y-16453143D01*
X9651429Y-16472190D02*
X9660952Y-16462667D01*
X9680000Y-16453143D01*
X9708571Y-16453143D01*
X9727619Y-16462667D01*
X9737143Y-16481714D01*
X9737143Y-16586476D01*
X9737143Y-16481714D02*
X9746667Y-16462667D01*
X9765714Y-16453143D01*
X9794286Y-16453143D01*
X9813333Y-16462667D01*
X9822857Y-16481714D01*
X9822857Y-16586476D01*
X10213333Y-16376952D02*
X10041905Y-16634095D01*
X10470476Y-16386476D02*
X10489524Y-16386476D01*
X10508571Y-16396000D01*
X10518095Y-16405524D01*
X10527619Y-16424571D01*
X10537143Y-16462667D01*
X10537143Y-16510286D01*
X10527619Y-16548381D01*
X10518095Y-16567428D01*
X10508571Y-16576952D01*
X10489524Y-16586476D01*
X10470476Y-16586476D01*
X10451429Y-16576952D01*
X10441905Y-16567428D01*
X10432381Y-16548381D01*
X10422857Y-16510286D01*
X10422857Y-16462667D01*
X10432381Y-16424571D01*
X10441905Y-16405524D01*
X10451429Y-16396000D01*
X10470476Y-16386476D01*
X10622857Y-16567428D02*
X10632381Y-16576952D01*
X10622857Y-16586476D01*
X10613333Y-16576952D01*
X10622857Y-16567428D01*
X10622857Y-16586476D01*
X10756190Y-16386476D02*
X10775238Y-16386476D01*
X10794286Y-16396000D01*
X10803810Y-16405524D01*
X10813333Y-16424571D01*
X10822857Y-16462667D01*
X10822857Y-16510286D01*
X10813333Y-16548381D01*
X10803810Y-16567428D01*
X10794286Y-16576952D01*
X10775238Y-16586476D01*
X10756190Y-16586476D01*
X10737143Y-16576952D01*
X10727619Y-16567428D01*
X10718095Y-16548381D01*
X10708571Y-16510286D01*
X10708571Y-16462667D01*
X10718095Y-16424571D01*
X10727619Y-16405524D01*
X10737143Y-16396000D01*
X10756190Y-16386476D01*
X10889524Y-16386476D02*
X11013333Y-16386476D01*
X10946667Y-16462667D01*
X10975238Y-16462667D01*
X10994286Y-16472190D01*
X11003810Y-16481714D01*
X11013333Y-16500762D01*
X11013333Y-16548381D01*
X11003810Y-16567428D01*
X10994286Y-16576952D01*
X10975238Y-16586476D01*
X10918095Y-16586476D01*
X10899048Y-16576952D01*
X10889524Y-16567428D01*
X11108571Y-16586476D02*
X11146667Y-16586476D01*
X11165714Y-16576952D01*
X11175238Y-16567428D01*
X11194286Y-16538857D01*
X11203809Y-16500762D01*
X11203809Y-16424571D01*
X11194286Y-16405524D01*
X11184762Y-16396000D01*
X11165714Y-16386476D01*
X11127619Y-16386476D01*
X11108571Y-16396000D01*
X11099048Y-16405524D01*
X11089524Y-16424571D01*
X11089524Y-16472190D01*
X11099048Y-16491238D01*
X11108571Y-16500762D01*
X11127619Y-16510286D01*
X11165714Y-16510286D01*
X11184762Y-16500762D01*
X11194286Y-16491238D01*
X11203809Y-16472190D01*
X11375238Y-16453143D02*
X11375238Y-16586476D01*
X11327619Y-16376952D02*
X11280000Y-16519809D01*
X11403809Y-16519809D01*
X11470476Y-16386476D02*
X11470476Y-16424571D01*
X11546667Y-16386476D02*
X11546667Y-16424571D01*
X11841905Y-16662667D02*
X11832381Y-16653143D01*
X11813333Y-16624571D01*
X11803809Y-16605524D01*
X11794286Y-16576952D01*
X11784762Y-16529333D01*
X11784762Y-16491238D01*
X11794286Y-16443619D01*
X11803809Y-16415048D01*
X11813333Y-16396000D01*
X11832381Y-16367428D01*
X11841905Y-16357905D01*
X11908571Y-16405524D02*
X11918095Y-16396000D01*
X11937143Y-16386476D01*
X11984762Y-16386476D01*
X12003809Y-16396000D01*
X12013333Y-16405524D01*
X12022857Y-16424571D01*
X12022857Y-16443619D01*
X12013333Y-16472190D01*
X11899048Y-16586476D01*
X12022857Y-16586476D01*
X12194286Y-16453143D02*
X12194286Y-16586476D01*
X12146667Y-16376952D02*
X12099048Y-16519809D01*
X12222857Y-16519809D01*
X12451428Y-16586476D02*
X12451428Y-16386476D01*
X12537143Y-16586476D02*
X12537143Y-16481714D01*
X12527619Y-16462667D01*
X12508571Y-16453143D01*
X12480000Y-16453143D01*
X12460952Y-16462667D01*
X12451428Y-16472190D01*
X12660952Y-16586476D02*
X12641905Y-16576952D01*
X12632381Y-16567428D01*
X12622857Y-16548381D01*
X12622857Y-16491238D01*
X12632381Y-16472190D01*
X12641905Y-16462667D01*
X12660952Y-16453143D01*
X12689524Y-16453143D01*
X12708571Y-16462667D01*
X12718095Y-16472190D01*
X12727619Y-16491238D01*
X12727619Y-16548381D01*
X12718095Y-16567428D01*
X12708571Y-16576952D01*
X12689524Y-16586476D01*
X12660952Y-16586476D01*
X12841905Y-16586476D02*
X12822857Y-16576952D01*
X12813333Y-16557905D01*
X12813333Y-16386476D01*
X12994286Y-16576952D02*
X12975238Y-16586476D01*
X12937143Y-16586476D01*
X12918095Y-16576952D01*
X12908571Y-16557905D01*
X12908571Y-16481714D01*
X12918095Y-16462667D01*
X12937143Y-16453143D01*
X12975238Y-16453143D01*
X12994286Y-16462667D01*
X13003809Y-16481714D01*
X13003809Y-16500762D01*
X12908571Y-16519809D01*
X13080000Y-16576952D02*
X13099048Y-16586476D01*
X13137143Y-16586476D01*
X13156190Y-16576952D01*
X13165714Y-16557905D01*
X13165714Y-16548381D01*
X13156190Y-16529333D01*
X13137143Y-16519809D01*
X13108571Y-16519809D01*
X13089524Y-16510286D01*
X13080000Y-16491238D01*
X13080000Y-16481714D01*
X13089524Y-16462667D01*
X13108571Y-16453143D01*
X13137143Y-16453143D01*
X13156190Y-16462667D01*
X13232381Y-16662667D02*
X13241905Y-16653143D01*
X13260952Y-16624571D01*
X13270476Y-16605524D01*
X13280000Y-16576952D01*
X13289524Y-16529333D01*
X13289524Y-16491238D01*
X13280000Y-16443619D01*
X13270476Y-16415048D01*
X13260952Y-16396000D01*
X13241905Y-16367428D01*
X13232381Y-16357905D01*
D16*
X8160000Y-16705000D02*
X8270000Y-16815000D01*
X8270000Y-16705000D02*
X8160000Y-16815000D01*
X8270000Y-16760000D02*
G75*
G03*
X8270000Y-16760000I-55000J0D01*
G01*
D10*
X8632381Y-16850476D02*
X8518095Y-16850476D01*
X8575238Y-16850476D02*
X8575238Y-16650476D01*
X8556190Y-16679048D01*
X8537143Y-16698095D01*
X8518095Y-16707619D01*
X8718095Y-16831429D02*
X8727619Y-16840952D01*
X8718095Y-16850476D01*
X8708571Y-16840952D01*
X8718095Y-16831429D01*
X8718095Y-16850476D01*
X8918095Y-16850476D02*
X8803810Y-16850476D01*
X8860952Y-16850476D02*
X8860952Y-16650476D01*
X8841905Y-16679048D01*
X8822857Y-16698095D01*
X8803810Y-16707619D01*
X9041905Y-16650476D02*
X9060952Y-16650476D01*
X9080000Y-16660000D01*
X9089524Y-16669524D01*
X9099048Y-16688571D01*
X9108571Y-16726667D01*
X9108571Y-16774286D01*
X9099048Y-16812381D01*
X9089524Y-16831429D01*
X9080000Y-16840952D01*
X9060952Y-16850476D01*
X9041905Y-16850476D01*
X9022857Y-16840952D01*
X9013333Y-16831429D01*
X9003810Y-16812381D01*
X8994286Y-16774286D01*
X8994286Y-16726667D01*
X9003810Y-16688571D01*
X9013333Y-16669524D01*
X9022857Y-16660000D01*
X9041905Y-16650476D01*
X9232381Y-16650476D02*
X9251429Y-16650476D01*
X9270476Y-16660000D01*
X9280000Y-16669524D01*
X9289524Y-16688571D01*
X9299048Y-16726667D01*
X9299048Y-16774286D01*
X9289524Y-16812381D01*
X9280000Y-16831429D01*
X9270476Y-16840952D01*
X9251429Y-16850476D01*
X9232381Y-16850476D01*
X9213333Y-16840952D01*
X9203810Y-16831429D01*
X9194286Y-16812381D01*
X9184762Y-16774286D01*
X9184762Y-16726667D01*
X9194286Y-16688571D01*
X9203810Y-16669524D01*
X9213333Y-16660000D01*
X9232381Y-16650476D01*
X9384762Y-16850476D02*
X9384762Y-16717143D01*
X9384762Y-16736190D02*
X9394286Y-16726667D01*
X9413333Y-16717143D01*
X9441905Y-16717143D01*
X9460952Y-16726667D01*
X9470476Y-16745714D01*
X9470476Y-16850476D01*
X9470476Y-16745714D02*
X9480000Y-16726667D01*
X9499048Y-16717143D01*
X9527619Y-16717143D01*
X9546667Y-16726667D01*
X9556190Y-16745714D01*
X9556190Y-16850476D01*
X9651429Y-16850476D02*
X9651429Y-16717143D01*
X9651429Y-16736190D02*
X9660952Y-16726667D01*
X9680000Y-16717143D01*
X9708571Y-16717143D01*
X9727619Y-16726667D01*
X9737143Y-16745714D01*
X9737143Y-16850476D01*
X9737143Y-16745714D02*
X9746667Y-16726667D01*
X9765714Y-16717143D01*
X9794286Y-16717143D01*
X9813333Y-16726667D01*
X9822857Y-16745714D01*
X9822857Y-16850476D01*
X10213333Y-16640952D02*
X10041905Y-16898095D01*
X10470476Y-16650476D02*
X10489524Y-16650476D01*
X10508571Y-16660000D01*
X10518095Y-16669524D01*
X10527619Y-16688571D01*
X10537143Y-16726667D01*
X10537143Y-16774286D01*
X10527619Y-16812381D01*
X10518095Y-16831429D01*
X10508571Y-16840952D01*
X10489524Y-16850476D01*
X10470476Y-16850476D01*
X10451429Y-16840952D01*
X10441905Y-16831429D01*
X10432381Y-16812381D01*
X10422857Y-16774286D01*
X10422857Y-16726667D01*
X10432381Y-16688571D01*
X10441905Y-16669524D01*
X10451429Y-16660000D01*
X10470476Y-16650476D01*
X10622857Y-16831429D02*
X10632381Y-16840952D01*
X10622857Y-16850476D01*
X10613333Y-16840952D01*
X10622857Y-16831429D01*
X10622857Y-16850476D01*
X10756190Y-16650476D02*
X10775238Y-16650476D01*
X10794286Y-16660000D01*
X10803810Y-16669524D01*
X10813333Y-16688571D01*
X10822857Y-16726667D01*
X10822857Y-16774286D01*
X10813333Y-16812381D01*
X10803810Y-16831429D01*
X10794286Y-16840952D01*
X10775238Y-16850476D01*
X10756190Y-16850476D01*
X10737143Y-16840952D01*
X10727619Y-16831429D01*
X10718095Y-16812381D01*
X10708571Y-16774286D01*
X10708571Y-16726667D01*
X10718095Y-16688571D01*
X10727619Y-16669524D01*
X10737143Y-16660000D01*
X10756190Y-16650476D01*
X10994286Y-16717143D02*
X10994286Y-16850476D01*
X10946667Y-16640952D02*
X10899048Y-16783810D01*
X11022857Y-16783810D01*
X11080000Y-16650476D02*
X11203809Y-16650476D01*
X11137143Y-16726667D01*
X11165714Y-16726667D01*
X11184762Y-16736190D01*
X11194286Y-16745714D01*
X11203809Y-16764762D01*
X11203809Y-16812381D01*
X11194286Y-16831429D01*
X11184762Y-16840952D01*
X11165714Y-16850476D01*
X11108571Y-16850476D01*
X11089524Y-16840952D01*
X11080000Y-16831429D01*
X11270476Y-16650476D02*
X11394286Y-16650476D01*
X11327619Y-16726667D01*
X11356190Y-16726667D01*
X11375238Y-16736190D01*
X11384762Y-16745714D01*
X11394286Y-16764762D01*
X11394286Y-16812381D01*
X11384762Y-16831429D01*
X11375238Y-16840952D01*
X11356190Y-16850476D01*
X11299048Y-16850476D01*
X11280000Y-16840952D01*
X11270476Y-16831429D01*
X11470476Y-16650476D02*
X11470476Y-16688571D01*
X11546667Y-16650476D02*
X11546667Y-16688571D01*
X11841905Y-16926667D02*
X11832381Y-16917143D01*
X11813333Y-16888571D01*
X11803809Y-16869524D01*
X11794286Y-16840952D01*
X11784762Y-16793333D01*
X11784762Y-16755238D01*
X11794286Y-16707619D01*
X11803809Y-16679048D01*
X11813333Y-16660000D01*
X11832381Y-16631428D01*
X11841905Y-16621905D01*
X11908571Y-16669524D02*
X11918095Y-16660000D01*
X11937143Y-16650476D01*
X11984762Y-16650476D01*
X12003809Y-16660000D01*
X12013333Y-16669524D01*
X12022857Y-16688571D01*
X12022857Y-16707619D01*
X12013333Y-16736190D01*
X11899048Y-16850476D01*
X12022857Y-16850476D01*
X12194286Y-16717143D02*
X12194286Y-16850476D01*
X12146667Y-16640952D02*
X12099048Y-16783810D01*
X12222857Y-16783810D01*
X12451428Y-16850476D02*
X12451428Y-16650476D01*
X12537143Y-16850476D02*
X12537143Y-16745714D01*
X12527619Y-16726667D01*
X12508571Y-16717143D01*
X12480000Y-16717143D01*
X12460952Y-16726667D01*
X12451428Y-16736190D01*
X12660952Y-16850476D02*
X12641905Y-16840952D01*
X12632381Y-16831429D01*
X12622857Y-16812381D01*
X12622857Y-16755238D01*
X12632381Y-16736190D01*
X12641905Y-16726667D01*
X12660952Y-16717143D01*
X12689524Y-16717143D01*
X12708571Y-16726667D01*
X12718095Y-16736190D01*
X12727619Y-16755238D01*
X12727619Y-16812381D01*
X12718095Y-16831429D01*
X12708571Y-16840952D01*
X12689524Y-16850476D01*
X12660952Y-16850476D01*
X12841905Y-16850476D02*
X12822857Y-16840952D01*
X12813333Y-16821905D01*
X12813333Y-16650476D01*
X12994286Y-16840952D02*
X12975238Y-16850476D01*
X12937143Y-16850476D01*
X12918095Y-16840952D01*
X12908571Y-16821905D01*
X12908571Y-16745714D01*
X12918095Y-16726667D01*
X12937143Y-16717143D01*
X12975238Y-16717143D01*
X12994286Y-16726667D01*
X13003809Y-16745714D01*
X13003809Y-16764762D01*
X12908571Y-16783810D01*
X13080000Y-16840952D02*
X13099048Y-16850476D01*
X13137143Y-16850476D01*
X13156190Y-16840952D01*
X13165714Y-16821905D01*
X13165714Y-16812381D01*
X13156190Y-16793333D01*
X13137143Y-16783810D01*
X13108571Y-16783810D01*
X13089524Y-16774286D01*
X13080000Y-16755238D01*
X13080000Y-16745714D01*
X13089524Y-16726667D01*
X13108571Y-16717143D01*
X13137143Y-16717143D01*
X13156190Y-16726667D01*
X13232381Y-16926667D02*
X13241905Y-16917143D01*
X13260952Y-16888571D01*
X13270476Y-16869524D01*
X13280000Y-16840952D01*
X13289524Y-16793333D01*
X13289524Y-16755238D01*
X13280000Y-16707619D01*
X13270476Y-16679048D01*
X13260952Y-16660000D01*
X13241905Y-16631428D01*
X13232381Y-16621905D01*
X8070000Y-16924000D02*
X8270000Y-17124000D01*
X8270000Y-16924000D02*
X8070000Y-17124000D01*
X8170000Y-16924000D02*
X8170000Y-17124000D01*
X8070000Y-17024000D02*
X8270000Y-17024000D01*
X8518095Y-16933524D02*
X8527619Y-16924000D01*
X8546667Y-16914476D01*
X8594286Y-16914476D01*
X8613333Y-16924000D01*
X8622857Y-16933524D01*
X8632381Y-16952571D01*
X8632381Y-16971619D01*
X8622857Y-17000190D01*
X8508571Y-17114476D01*
X8632381Y-17114476D01*
X8718095Y-17095429D02*
X8727619Y-17104952D01*
X8718095Y-17114476D01*
X8708571Y-17104952D01*
X8718095Y-17095429D01*
X8718095Y-17114476D01*
X8794286Y-16914476D02*
X8927619Y-16914476D01*
X8841905Y-17114476D01*
X9041905Y-16914476D02*
X9060952Y-16914476D01*
X9080000Y-16924000D01*
X9089524Y-16933524D01*
X9099048Y-16952571D01*
X9108571Y-16990667D01*
X9108571Y-17038286D01*
X9099048Y-17076381D01*
X9089524Y-17095429D01*
X9080000Y-17104952D01*
X9060952Y-17114476D01*
X9041905Y-17114476D01*
X9022857Y-17104952D01*
X9013333Y-17095429D01*
X9003810Y-17076381D01*
X8994286Y-17038286D01*
X8994286Y-16990667D01*
X9003810Y-16952571D01*
X9013333Y-16933524D01*
X9022857Y-16924000D01*
X9041905Y-16914476D01*
X9232381Y-16914476D02*
X9251429Y-16914476D01*
X9270476Y-16924000D01*
X9280000Y-16933524D01*
X9289524Y-16952571D01*
X9299048Y-16990667D01*
X9299048Y-17038286D01*
X9289524Y-17076381D01*
X9280000Y-17095429D01*
X9270476Y-17104952D01*
X9251429Y-17114476D01*
X9232381Y-17114476D01*
X9213333Y-17104952D01*
X9203810Y-17095429D01*
X9194286Y-17076381D01*
X9184762Y-17038286D01*
X9184762Y-16990667D01*
X9194286Y-16952571D01*
X9203810Y-16933524D01*
X9213333Y-16924000D01*
X9232381Y-16914476D01*
X9384762Y-17114476D02*
X9384762Y-16981143D01*
X9384762Y-17000190D02*
X9394286Y-16990667D01*
X9413333Y-16981143D01*
X9441905Y-16981143D01*
X9460952Y-16990667D01*
X9470476Y-17009714D01*
X9470476Y-17114476D01*
X9470476Y-17009714D02*
X9480000Y-16990667D01*
X9499048Y-16981143D01*
X9527619Y-16981143D01*
X9546667Y-16990667D01*
X9556190Y-17009714D01*
X9556190Y-17114476D01*
X9651429Y-17114476D02*
X9651429Y-16981143D01*
X9651429Y-17000190D02*
X9660952Y-16990667D01*
X9680000Y-16981143D01*
X9708571Y-16981143D01*
X9727619Y-16990667D01*
X9737143Y-17009714D01*
X9737143Y-17114476D01*
X9737143Y-17009714D02*
X9746667Y-16990667D01*
X9765714Y-16981143D01*
X9794286Y-16981143D01*
X9813333Y-16990667D01*
X9822857Y-17009714D01*
X9822857Y-17114476D01*
X10213333Y-16904952D02*
X10041905Y-17162095D01*
X10470476Y-16914476D02*
X10489524Y-16914476D01*
X10508571Y-16924000D01*
X10518095Y-16933524D01*
X10527619Y-16952571D01*
X10537143Y-16990667D01*
X10537143Y-17038286D01*
X10527619Y-17076381D01*
X10518095Y-17095429D01*
X10508571Y-17104952D01*
X10489524Y-17114476D01*
X10470476Y-17114476D01*
X10451429Y-17104952D01*
X10441905Y-17095429D01*
X10432381Y-17076381D01*
X10422857Y-17038286D01*
X10422857Y-16990667D01*
X10432381Y-16952571D01*
X10441905Y-16933524D01*
X10451429Y-16924000D01*
X10470476Y-16914476D01*
X10622857Y-17095429D02*
X10632381Y-17104952D01*
X10622857Y-17114476D01*
X10613333Y-17104952D01*
X10622857Y-17095429D01*
X10622857Y-17114476D01*
X10822857Y-17114476D02*
X10708571Y-17114476D01*
X10765714Y-17114476D02*
X10765714Y-16914476D01*
X10746667Y-16943048D01*
X10727619Y-16962095D01*
X10708571Y-16971619D01*
X10946667Y-16914476D02*
X10965714Y-16914476D01*
X10984762Y-16924000D01*
X10994286Y-16933524D01*
X11003810Y-16952571D01*
X11013333Y-16990667D01*
X11013333Y-17038286D01*
X11003810Y-17076381D01*
X10994286Y-17095429D01*
X10984762Y-17104952D01*
X10965714Y-17114476D01*
X10946667Y-17114476D01*
X10927619Y-17104952D01*
X10918095Y-17095429D01*
X10908571Y-17076381D01*
X10899048Y-17038286D01*
X10899048Y-16990667D01*
X10908571Y-16952571D01*
X10918095Y-16933524D01*
X10927619Y-16924000D01*
X10946667Y-16914476D01*
X11184762Y-16914476D02*
X11146667Y-16914476D01*
X11127619Y-16924000D01*
X11118095Y-16933524D01*
X11099048Y-16962095D01*
X11089524Y-17000190D01*
X11089524Y-17076381D01*
X11099048Y-17095429D01*
X11108571Y-17104952D01*
X11127619Y-17114476D01*
X11165714Y-17114476D01*
X11184762Y-17104952D01*
X11194286Y-17095429D01*
X11203809Y-17076381D01*
X11203809Y-17028762D01*
X11194286Y-17009714D01*
X11184762Y-17000190D01*
X11165714Y-16990667D01*
X11127619Y-16990667D01*
X11108571Y-17000190D01*
X11099048Y-17009714D01*
X11089524Y-17028762D01*
X11270476Y-16914476D02*
X11394286Y-16914476D01*
X11327619Y-16990667D01*
X11356190Y-16990667D01*
X11375238Y-17000190D01*
X11384762Y-17009714D01*
X11394286Y-17028762D01*
X11394286Y-17076381D01*
X11384762Y-17095429D01*
X11375238Y-17104952D01*
X11356190Y-17114476D01*
X11299048Y-17114476D01*
X11280000Y-17104952D01*
X11270476Y-17095429D01*
X11470476Y-16914476D02*
X11470476Y-16952571D01*
X11546667Y-16914476D02*
X11546667Y-16952571D01*
X11841905Y-17190667D02*
X11832381Y-17181143D01*
X11813333Y-17152571D01*
X11803809Y-17133524D01*
X11794286Y-17104952D01*
X11784762Y-17057333D01*
X11784762Y-17019238D01*
X11794286Y-16971619D01*
X11803809Y-16943048D01*
X11813333Y-16924000D01*
X11832381Y-16895429D01*
X11841905Y-16885905D01*
X11927619Y-17114476D02*
X11965714Y-17114476D01*
X11984762Y-17104952D01*
X11994286Y-17095429D01*
X12013333Y-17066857D01*
X12022857Y-17028762D01*
X12022857Y-16952571D01*
X12013333Y-16933524D01*
X12003809Y-16924000D01*
X11984762Y-16914476D01*
X11946667Y-16914476D01*
X11927619Y-16924000D01*
X11918095Y-16933524D01*
X11908571Y-16952571D01*
X11908571Y-17000190D01*
X11918095Y-17019238D01*
X11927619Y-17028762D01*
X11946667Y-17038286D01*
X11984762Y-17038286D01*
X12003809Y-17028762D01*
X12013333Y-17019238D01*
X12022857Y-17000190D01*
X12260952Y-17114476D02*
X12260952Y-16914476D01*
X12346667Y-17114476D02*
X12346667Y-17009714D01*
X12337143Y-16990667D01*
X12318095Y-16981143D01*
X12289524Y-16981143D01*
X12270476Y-16990667D01*
X12260952Y-17000190D01*
X12470476Y-17114476D02*
X12451428Y-17104952D01*
X12441905Y-17095429D01*
X12432381Y-17076381D01*
X12432381Y-17019238D01*
X12441905Y-17000190D01*
X12451428Y-16990667D01*
X12470476Y-16981143D01*
X12499048Y-16981143D01*
X12518095Y-16990667D01*
X12527619Y-17000190D01*
X12537143Y-17019238D01*
X12537143Y-17076381D01*
X12527619Y-17095429D01*
X12518095Y-17104952D01*
X12499048Y-17114476D01*
X12470476Y-17114476D01*
X12651428Y-17114476D02*
X12632381Y-17104952D01*
X12622857Y-17085905D01*
X12622857Y-16914476D01*
X12803809Y-17104952D02*
X12784762Y-17114476D01*
X12746667Y-17114476D01*
X12727619Y-17104952D01*
X12718095Y-17085905D01*
X12718095Y-17009714D01*
X12727619Y-16990667D01*
X12746667Y-16981143D01*
X12784762Y-16981143D01*
X12803809Y-16990667D01*
X12813333Y-17009714D01*
X12813333Y-17028762D01*
X12718095Y-17047810D01*
X12889524Y-17104952D02*
X12908571Y-17114476D01*
X12946667Y-17114476D01*
X12965714Y-17104952D01*
X12975238Y-17085905D01*
X12975238Y-17076381D01*
X12965714Y-17057333D01*
X12946667Y-17047810D01*
X12918095Y-17047810D01*
X12899048Y-17038286D01*
X12889524Y-17019238D01*
X12889524Y-17009714D01*
X12899048Y-16990667D01*
X12918095Y-16981143D01*
X12946667Y-16981143D01*
X12965714Y-16990667D01*
X13041905Y-17190667D02*
X13051428Y-17181143D01*
X13070476Y-17152571D01*
X13080000Y-17133524D01*
X13089524Y-17104952D01*
X13099048Y-17057333D01*
X13099048Y-17019238D01*
X13089524Y-16971619D01*
X13080000Y-16943048D01*
X13070476Y-16924000D01*
X13051428Y-16895429D01*
X13041905Y-16885905D01*
M02*
