M48
; DRILL file {KiCad (6.0.10)} date Thu Jan 19 22:05:29 2023
; FORMAT={-:-/ absolute / metric / decimal}
; #@! TF.CreationDate,2023-01-19T22:05:29+01:00
; #@! TF.GenerationSoftware,Kicad,Pcbnew,(6.0.10)
; #@! TF.FileFunction,NonPlated,1,2,NPTH
FMAT,2
METRIC
; #@! TA.AperFunction,NonPlated,NPTH,ComponentDrill
T1C1.700
; #@! TA.AperFunction,NonPlated,NPTH,ComponentDrill
T2C1.900
; #@! TA.AperFunction,NonPlated,NPTH,ComponentDrill
T3C3.000
; #@! TA.AperFunction,NonPlated,NPTH,ComponentDrill
T4C4.100
%
G90
G05
T1
X94.46Y-129.503
X98.96Y-137.297
X113.774Y-129.14
X116.0Y-50.0
X116.0Y-69.1
X116.0Y-88.1
X116.0Y-107.1
X122.426Y-126.66
X125.0Y-50.0
X125.0Y-69.1
X125.0Y-88.1
X125.0Y-107.1
X135.0Y-47.5
X135.0Y-66.6
X135.0Y-85.6
X135.0Y-104.7
X139.5Y-119.2
X139.5Y-128.2
X144.0Y-47.5
X144.0Y-66.6
X144.0Y-85.6
X144.0Y-104.7
X154.1Y-42.57
X154.1Y-61.66
X154.1Y-80.76
X154.1Y-99.76
X158.6Y-116.9
X158.6Y-125.9
X163.1Y-42.57
X163.1Y-61.66
X163.1Y-80.76
X163.1Y-99.76
X173.1Y-47.5
X173.1Y-66.5
X173.1Y-85.6
X173.1Y-104.7
X173.1Y-123.8
X182.1Y-47.5
X182.1Y-66.5
X182.1Y-85.6
X182.1Y-104.7
X182.1Y-123.8
X192.2Y-58.4
X192.2Y-77.3
X192.2Y-96.5
X192.2Y-115.5
X201.2Y-58.4
X201.2Y-77.3
X201.2Y-96.5
X201.2Y-115.5
X211.2Y-77.3
X211.2Y-96.5
X211.25Y-115.5
X211.3Y-58.4
X220.2Y-77.3
X220.2Y-96.5
X220.25Y-115.5
X220.3Y-58.4
T2
X94.17Y-129.001
X99.25Y-137.799
X113.217Y-129.3
X115.42Y-50.0
X115.42Y-69.1
X115.42Y-88.1
X115.42Y-107.1
X122.983Y-126.5
X125.58Y-50.0
X125.58Y-69.1
X125.58Y-88.1
X125.58Y-107.1
X134.42Y-47.5
X134.42Y-66.6
X134.42Y-85.6
X134.42Y-104.7
X139.5Y-118.62
X139.5Y-128.78
X144.58Y-47.5
X144.58Y-66.6
X144.58Y-85.6
X144.58Y-104.7
X153.52Y-42.57
X153.52Y-61.66
X153.52Y-80.76
X153.52Y-99.76
X158.6Y-116.32
X158.6Y-126.48
X163.68Y-42.57
X163.68Y-61.66
X163.68Y-80.76
X163.68Y-99.76
X172.52Y-47.5
X172.52Y-66.5
X172.52Y-85.6
X172.52Y-104.7
X172.52Y-123.8
X182.68Y-47.5
X182.68Y-66.5
X182.68Y-85.6
X182.68Y-104.7
X182.68Y-123.8
X191.62Y-58.4
X191.62Y-77.3
X191.62Y-96.5
X191.62Y-115.5
X201.78Y-58.4
X201.78Y-77.3
X201.78Y-96.5
X201.78Y-115.5
X210.62Y-77.3
X210.62Y-96.5
X210.67Y-115.5
X210.72Y-58.4
X220.78Y-77.3
X220.78Y-96.5
X220.83Y-115.5
X220.88Y-58.4
T3
X97.005Y-128.83
X99.839Y-128.66
X100.815Y-135.43
X102.379Y-133.06
X115.138Y-131.392
X116.69Y-52.54
X116.69Y-71.64
X116.69Y-90.64
X116.69Y-109.64
X117.059Y-133.483
X117.96Y-55.08
X117.96Y-74.18
X117.96Y-93.18
X117.96Y-112.18
X121.942Y-132.083
X122.463Y-129.291
X123.04Y-55.08
X123.04Y-74.18
X123.04Y-93.18
X123.04Y-112.18
X124.31Y-52.54
X124.31Y-71.64
X124.31Y-90.64
X124.31Y-109.64
X134.42Y-121.16
X134.42Y-126.24
X135.69Y-50.04
X135.69Y-69.14
X135.69Y-88.14
X135.69Y-107.24
X136.96Y-119.89
X136.96Y-52.58
X136.96Y-71.68
X136.96Y-90.68
X136.96Y-109.78
X136.96Y-127.51
X142.04Y-52.58
X142.04Y-71.68
X142.04Y-90.68
X142.04Y-109.78
X143.31Y-50.04
X143.31Y-69.14
X143.31Y-88.14
X143.31Y-107.24
X153.52Y-118.86
X153.52Y-123.94
X154.79Y-45.11
X154.79Y-64.2
X154.79Y-83.3
X154.79Y-102.3
X156.06Y-117.59
X156.06Y-47.65
X156.06Y-66.74
X156.06Y-85.84
X156.06Y-104.84
X156.06Y-125.21
X161.14Y-47.65
X161.14Y-66.74
X161.14Y-85.84
X161.14Y-104.84
X162.41Y-45.11
X162.41Y-64.2
X162.41Y-83.3
X162.41Y-102.3
X173.79Y-50.04
X173.79Y-69.04
X173.79Y-88.14
X173.79Y-107.24
X173.79Y-126.34
X175.06Y-52.58
X175.06Y-71.58
X175.06Y-90.68
X175.06Y-109.78
X175.06Y-128.88
X180.14Y-52.58
X180.14Y-71.58
X180.14Y-90.68
X180.14Y-109.78
X180.14Y-128.88
X181.41Y-50.04
X181.41Y-69.04
X181.41Y-88.14
X181.41Y-107.24
X181.41Y-126.34
X192.89Y-60.94
X192.89Y-79.84
X192.89Y-99.04
X192.89Y-118.04
X194.16Y-63.48
X194.16Y-82.38
X194.16Y-101.58
X194.16Y-120.58
X199.24Y-63.48
X199.24Y-82.38
X199.24Y-101.58
X199.24Y-120.58
X200.51Y-60.94
X200.51Y-79.84
X200.51Y-99.04
X200.51Y-118.04
X211.89Y-79.84
X211.89Y-99.04
X211.94Y-118.04
X211.99Y-60.94
X213.16Y-82.38
X213.16Y-101.58
X213.21Y-120.58
X213.26Y-63.48
X218.24Y-82.38
X218.24Y-101.58
X218.29Y-120.58
X218.34Y-63.48
X219.51Y-79.84
X219.51Y-99.04
X219.56Y-118.04
X219.61Y-60.94
T4
X96.71Y-133.4
X118.1Y-127.9
X120.5Y-50.0
X120.5Y-69.1
X120.5Y-88.1
X120.5Y-107.1
X139.5Y-47.5
X139.5Y-66.6
X139.5Y-85.6
X139.5Y-104.7
X139.5Y-123.7
X158.6Y-42.57
X158.6Y-61.66
X158.6Y-80.76
X158.6Y-99.76
X158.6Y-121.4
X177.6Y-47.5
X177.6Y-66.5
X177.6Y-85.6
X177.6Y-104.7
X177.6Y-123.8
X196.7Y-58.4
X196.7Y-77.3
X196.7Y-96.5
X196.7Y-115.5
X215.7Y-77.3
X215.7Y-96.5
X215.75Y-115.5
X215.8Y-58.4
T0
M30
