M48
; DRILL file {KiCad (6.0.10)} date Thu Jan 19 22:05:29 2023
; FORMAT={-:-/ absolute / metric / decimal}
; #@! TF.CreationDate,2023-01-19T22:05:29+01:00
; #@! TF.GenerationSoftware,Kicad,Pcbnew,(6.0.10)
; #@! TF.FileFunction,Plated,1,2,PTH
FMAT,2
METRIC
; #@! TA.AperFunction,Plated,PTH,ViaDrill
T1C0.300
; #@! TA.AperFunction,Plated,PTH,ViaDrill
T2C0.350
; #@! TA.AperFunction,Plated,PTH,ComponentDrill
T3C0.762
; #@! TA.AperFunction,Plated,PTH,ComponentDrill
T4C0.813
; #@! TA.AperFunction,Plated,PTH,ComponentDrill
T5C1.000
; #@! TA.AperFunction,Plated,PTH,ComponentDrill
T6C1.100
; #@! TA.AperFunction,Plated,PTH,ComponentDrill
T7C2.700
%
G90
G05
T1
X86.7Y-126.2
X88.465Y-132.465
X88.675Y-116.275
X89.2Y-119.9
X89.675Y-94.475
X89.7Y-133.5
X90.4Y-107.6
X90.475Y-122.675
X90.675Y-127.875
X91.275Y-84.475
X91.275Y-99.775
X91.275Y-118.775
X91.825Y-82.225
X92.175Y-126.375
X92.475Y-50.975
X92.475Y-56.075
X92.475Y-58.575
X92.475Y-61.175
X92.575Y-63.775
X92.575Y-66.175
X92.575Y-68.775
X92.675Y-43.375
X92.775Y-40.575
X92.975Y-97.875
X93.4Y-139.4
X93.475Y-71.175
X94.175Y-94.275
X94.4Y-120.9
X94.528Y-92.322
X94.7Y-103.7
X95.441Y-120.185
X95.675Y-98.675
X95.939Y-47.677
X95.939Y-52.757
X95.939Y-55.297
X95.939Y-57.837
X95.939Y-60.377
X95.939Y-62.917
X95.939Y-65.457
X95.939Y-67.997
X95.939Y-70.537
X96.475Y-115.375
X96.675Y-112.375
X96.975Y-138.475
X97.075Y-54.281
X97.375Y-142.275
X97.675Y-48.575
X97.775Y-42.775
X97.775Y-45.775
X97.775Y-100.875
X97.875Y-51.741
X98.575Y-82.775
X98.875Y-109.975
X98.92Y-121.933
X98.975Y-39.275
X98.975Y-56.575
X98.975Y-58.575
X98.975Y-61.175
X98.975Y-63.675
X98.975Y-66.175
X98.975Y-68.775
X98.975Y-78.175
X98.975Y-79.235
X99.075Y-50.875
X99.075Y-100.975
X99.175Y-53.575
X99.175Y-103.875
X99.175Y-106.975
X99.175Y-113.175
X99.453Y-55.297
X100.075Y-48.575
X100.175Y-42.775
X100.175Y-45.775
X100.575Y-84.775
X100.575Y-139.475
X100.675Y-79.975
X101.117Y-62.917
X101.2Y-88.25
X101.275Y-40.275
X101.275Y-104.575
X101.537Y-57.837
X101.575Y-72.375
X101.7Y-126.3
X101.775Y-107.075
X101.775Y-142.275
X101.781Y-41.581
X101.781Y-44.121
X101.781Y-51.741
X101.781Y-54.281
X101.781Y-59.361
X101.781Y-61.901
X101.781Y-64.441
X101.781Y-66.981
X101.781Y-69.521
X102.2Y-98.9
X102.575Y-109.975
X102.875Y-104.075
X102.975Y-58.675
X103.075Y-74.075
X103.3Y-89.1
X103.375Y-105.475
X103.759Y-124.333
X104.1Y-84.95
X104.273Y-127.536
X104.7Y-138.0
X104.875Y-80.975
X105.275Y-78.875
X105.475Y-40.875
X105.475Y-43.275
X105.475Y-45.775
X105.475Y-50.975
X105.475Y-53.475
X105.475Y-55.975
X105.475Y-74.675
X105.575Y-48.475
X106.475Y-80.85
X106.475Y-110.075
X106.575Y-100.875
X106.775Y-105.975
X107.061Y-125.984
X107.175Y-83.675
X107.175Y-87.475
X107.536Y-124.947
X108.175Y-67.975
X108.26Y-128.46
X108.375Y-108.175
X108.875Y-70.875
X108.875Y-94.675
X108.9Y-85.9
X109.0Y-118.45
X109.075Y-106.175
X109.3Y-113.5
X109.3Y-137.5
X109.5Y-89.5
X109.575Y-56.9
X109.7Y-122.5
X109.7Y-130.3
X109.875Y-73.775
X110.0Y-77.1
X110.2Y-49.8
X110.4Y-61.9
X110.58Y-125.68
X110.698Y-116.898
X110.7Y-76.5
X110.7Y-79.4
X110.7Y-83.9
X110.7Y-97.9
X110.7Y-113.3
X110.7Y-118.915
X110.9Y-54.5
X111.0Y-43.0
X111.0Y-45.0
X111.0Y-47.5
X111.0Y-72.3
X111.5Y-40.7
X111.6Y-63.5
X111.6Y-87.1
X111.6Y-93.25
X111.671Y-69.963
X111.675Y-118.942
X112.0Y-105.5
X112.0Y-108.0
X112.0Y-113.5
X112.075Y-96.175
X112.275Y-100.475
X112.5Y-57.0
X112.5Y-60.1
X112.6Y-120.6
X112.6Y-127.6
X113.0Y-75.5
X113.2Y-123.4
X113.5Y-39.5
X113.5Y-69.2
X113.5Y-106.9
X113.5Y-113.7
X113.6Y-126.3
X114.0Y-42.5
X114.0Y-45.0
X114.0Y-46.5
X114.0Y-76.7
X114.1Y-68.0
X114.5Y-63.5
X114.6Y-61.3
X114.675Y-101.075
X114.8Y-75.794
X114.8Y-95.4
X114.875Y-57.675
X115.0Y-80.0
X115.0Y-81.5
X115.012Y-113.6
X115.2Y-56.7
X115.6Y-42.5
X115.8Y-99.6
X116.0Y-63.5
X116.0Y-86.5
X116.1Y-56.4
X116.2Y-94.7
X116.775Y-58.275
X117.0Y-44.2
X117.0Y-63.1
X117.0Y-82.1
X117.0Y-101.2
X117.375Y-105.375
X117.5Y-39.5
X117.511Y-117.011
X117.675Y-66.975
X120.5Y-121.0
X120.7Y-116.386
X121.8Y-121.3
X122.5Y-39.5
X123.9Y-44.1
X123.9Y-63.1
X123.9Y-82.2
X123.9Y-101.3
X124.775Y-116.275
X124.875Y-119.775
X124.9Y-63.2
X125.0Y-82.5
X125.0Y-132.9
X125.1Y-78.3
X125.1Y-101.3
X125.2Y-117.7
X125.55Y-44.05
X125.8Y-62.1
X126.0Y-42.0
X126.075Y-64.575
X126.5Y-82.5
X126.5Y-86.0
X126.775Y-57.475
X126.8Y-59.9
X126.8Y-116.5
X126.9Y-101.5
X126.975Y-105.175
X127.0Y-39.5
X127.2Y-122.7
X127.2Y-130.1
X127.275Y-66.275
X127.675Y-68.075
X128.2Y-76.6
X128.3Y-98.2
X128.5Y-80.5
X129.0Y-49.2
X129.0Y-67.5
X129.0Y-87.3
X129.0Y-106.3
X129.2Y-116.8
X129.2Y-132.7
X129.7Y-122.6
X129.8Y-40.0
X129.925Y-44.225
X129.975Y-82.225
X129.975Y-115.675
X130.0Y-41.5
X130.0Y-62.8
X130.0Y-119.5
X130.075Y-101.225
X130.1Y-74.8
X130.1Y-127.4
X131.01Y-124.79
X131.075Y-103.575
X131.1Y-67.8
X131.141Y-38.849
X131.16Y-86.84
X131.175Y-112.975
X131.21Y-105.99
X131.26Y-48.84
X131.375Y-110.475
X131.5Y-73.5
X131.5Y-80.5
X131.8Y-89.9
X132.0Y-84.5
X132.2Y-62.3
X132.2Y-66.2
X132.2Y-125.4
X132.5Y-39.0
X132.6Y-100.6
X133.0Y-54.2
X133.0Y-64.7
X133.0Y-74.4
X133.0Y-115.7
X133.075Y-103.575
X133.1Y-111.7
X133.6Y-45.6
X133.6Y-92.8
X133.7Y-83.8
X133.8Y-56.0
X133.9Y-64.7
X133.9Y-73.7
X134.0Y-41.5
X134.0Y-81.0
X134.1Y-62.3
X134.1Y-111.6
X134.2Y-92.2
X134.5Y-39.0
X134.5Y-54.4
X134.5Y-84.0
X134.5Y-100.4
X134.7Y-116.0
X134.9Y-131.5
X134.975Y-60.425
X135.2Y-73.6
X135.275Y-102.775
X136.0Y-79.7
X136.0Y-99.0
X136.1Y-41.6
X136.1Y-60.7
X136.5Y-56.2
X136.5Y-65.0
X136.8Y-93.8
X139.5Y-71.5
X139.5Y-73.5
X140.4Y-115.7
X141.2Y-120.4
X142.5Y-65.0
X142.9Y-41.6
X142.9Y-60.7
X142.9Y-79.9
X142.9Y-99.0
X143.8Y-116.9
X144.0Y-60.6
X144.075Y-130.775
X144.1Y-79.8
X144.1Y-98.7
X144.4Y-43.2
X144.5Y-74.0
X144.7Y-56.6
X145.2Y-120.1
X145.5Y-61.5
X145.7Y-127.2
X146.0Y-43.0
X146.0Y-65.0
X146.0Y-78.0
X146.0Y-81.0
X146.0Y-97.0
X146.0Y-99.0
X146.0Y-101.0
X146.3Y-114.5
X146.8Y-46.0
X147.0Y-59.0
X147.0Y-61.0
X147.0Y-71.5
X147.0Y-103.0
X147.0Y-105.0
X147.0Y-128.9
X147.5Y-36.5
X147.5Y-39.5
X147.6Y-75.7
X147.8Y-117.9
X147.975Y-111.475
X148.0Y-78.0
X148.0Y-93.0
X148.112Y-61.612
X148.245Y-80.545
X148.3Y-120.2
X148.7Y-129.2
X149.0Y-58.0
X149.0Y-97.0
X149.0Y-99.9
X149.0Y-115.5
X149.6Y-127.7
X149.7Y-107.8
X149.7Y-121.0
X149.86Y-83.34
X149.925Y-41.225
X149.925Y-64.275
X150.0Y-71.0
X150.0Y-73.0
X150.0Y-85.0
X150.0Y-87.0
X150.0Y-90.0
X150.0Y-93.0
X150.0Y-100.0
X150.0Y-104.0
X150.0Y-106.0
X150.0Y-120.0
X150.025Y-44.775
X150.075Y-102.275
X150.4Y-56.2
X150.5Y-125.8
X150.8Y-61.7
X150.9Y-109.5
X151.0Y-77.0
X151.0Y-105.2
X151.1Y-42.2
X151.2Y-130.2
X151.3Y-69.9
X151.4Y-51.3
X151.7Y-62.4
X152.0Y-69.1
X152.1Y-88.6
X152.1Y-94.6
X152.1Y-127.1
X152.3Y-49.0
X152.7Y-54.7
X152.7Y-68.6
X152.8Y-49.9
X152.9Y-107.1
X153.0Y-77.0
X153.0Y-96.0
X153.0Y-98.0
X153.5Y-87.7
X153.6Y-58.3
X153.7Y-92.7
X153.7Y-106.7
X153.78Y-73.38
X154.0Y-39.3
X154.0Y-49.2
X154.3Y-128.8
X154.8Y-74.9
X155.0Y-60.0
X155.0Y-98.0
X155.1Y-36.7
X155.1Y-55.9
X160.575Y-124.775
X162.0Y-55.8
X162.0Y-60.0
X162.0Y-75.1
X162.0Y-79.0
X162.0Y-93.9
X162.1Y-36.8
X162.1Y-116.0
X163.0Y-72.0
X163.0Y-128.0
X163.1Y-55.8
X163.1Y-97.8
X163.2Y-115.1
X163.4Y-95.4
X163.5Y-76.4
X163.5Y-106.7
X163.9Y-117.9
X164.0Y-111.0
X164.2Y-57.4
X164.7Y-117.275
X164.8Y-124.9
X165.0Y-69.0
X165.2Y-59.5
X165.2Y-74.5
X165.5Y-37.5
X165.5Y-91.5
X165.7Y-77.4
X166.0Y-88.5
X166.0Y-104.2
X166.2Y-100.1
X166.2Y-126.4
X166.7Y-66.9
X167.3Y-70.4
X167.3Y-128.7
X167.5Y-76.5
X167.5Y-115.9
X167.9Y-43.6
X168.0Y-61.0
X168.0Y-104.0
X168.188Y-99.312
X168.3Y-63.3
X168.3Y-124.7
X168.4Y-106.5
X168.4Y-128.2
X168.425Y-61.875
X168.55Y-42.95
X168.887Y-80.812
X169.0Y-110.9
X169.037Y-38.608
X169.25Y-48.35
X169.25Y-105.35
X169.5Y-66.8
X169.5Y-117.6
X169.5Y-123.5
X169.5Y-130.8
X169.6Y-112.4
X169.725Y-86.425
X169.8Y-71.6
X170.0Y-75.1
X170.0Y-77.0
X170.0Y-80.0
X170.0Y-90.0
X171.1Y-73.3
X171.2Y-43.7
X171.2Y-54.1
X171.249Y-111.9
X171.25Y-39.0
X171.4Y-97.2
X171.8Y-115.0
X171.9Y-63.5
X171.9Y-111.2
X172.0Y-82.0
X172.0Y-130.8
X172.1Y-58.1
X172.275Y-98.975
X172.3Y-73.5
X172.339Y-43.18
X172.4Y-60.4
X172.4Y-92.4
X172.4Y-114.2
X172.5Y-54.4
X172.9Y-117.8
X173.0Y-77.0
X173.0Y-111.4
X173.0Y-130.7
X173.3Y-92.2
X174.1Y-41.7
X174.1Y-60.6
X174.1Y-79.7
X174.1Y-98.9
X174.4Y-64.7
X175.0Y-84.0
X175.0Y-122.0
X177.0Y-56.4
X178.0Y-89.0
X178.0Y-92.0
X179.2Y-74.7
X181.0Y-41.8
X181.0Y-60.7
X181.0Y-64.6
X181.0Y-79.8
X181.0Y-84.0
X181.0Y-118.4
X181.0Y-122.0
X181.1Y-99.0
X181.5Y-56.75
X181.9Y-41.5
X182.0Y-45.75
X182.0Y-74.0
X182.1Y-60.6
X182.2Y-58.0
X182.2Y-79.7
X182.2Y-98.7
X182.5Y-116.4
X183.0Y-54.8
X183.0Y-79.0
X183.0Y-93.5
X183.3Y-95.2
X184.0Y-83.0
X184.25Y-44.5
X184.45Y-56.05
X184.6Y-67.1
X185.0Y-59.0
X185.0Y-71.0
X185.25Y-56.75
X185.4Y-90.8
X185.5Y-116.0
X185.5Y-117.0
X185.5Y-120.9
X185.6Y-57.6
X185.6Y-110.1
X185.7Y-52.1
X186.0Y-62.395
X186.0Y-55.0
X186.0Y-60.0
X186.0Y-78.0
X186.0Y-82.0
X186.1Y-114.1
X187.6Y-109.0
X187.8Y-84.0
X188.0Y-60.0
X188.0Y-73.0
X188.0Y-92.5
X188.5Y-89.5
X188.5Y-95.4
X188.51Y-78.69
X188.6Y-104.8
X189.0Y-53.4
X189.0Y-59.3
X189.0Y-64.0
X189.0Y-66.0
X189.0Y-69.0
X189.0Y-71.0
X189.0Y-73.0
X189.0Y-88.0
X189.0Y-107.0
X189.0Y-109.7
X189.0Y-115.4
X189.0Y-130.0
X190.1Y-104.3
X190.2Y-66.1
X190.2Y-76.4
X190.2Y-84.7
X190.25Y-41.5
X191.0Y-65.3
X191.0Y-69.0
X191.0Y-71.0
X191.0Y-73.0
X191.0Y-88.0
X191.0Y-112.5
X191.2Y-50.9
X191.4Y-122.9
X191.5Y-84.075
X191.5Y-105.0
X191.7Y-103.3
X191.9Y-69.8
X191.9Y-89.0
X191.9Y-108.0
X192.0Y-122.1
X192.0Y-130.0
X192.5Y-40.25
X194.0Y-76.0
X194.0Y-95.0
X196.0Y-129.0
X200.0Y-76.0
X200.0Y-95.0
X200.0Y-128.0
X200.1Y-52.6
X200.1Y-71.7
X200.1Y-90.7
X200.2Y-109.7
X201.6Y-73.0
X201.6Y-92.2
X201.6Y-111.2
X201.7Y-54.1
X202.0Y-85.0
X203.0Y-92.0
X204.0Y-78.0
X204.0Y-88.0
X204.0Y-127.0
X204.25Y-57.75
X205.0Y-97.0
X205.1Y-112.4
X205.7Y-93.4
X205.75Y-56.75
X206.0Y-48.25
X206.0Y-50.75
X206.0Y-53.5
X206.0Y-85.0
X206.225Y-74.5
X207.0Y-55.0
X207.0Y-82.0
X207.26Y-78.44
X207.385Y-116.715
X207.41Y-97.79
X207.75Y-58.85
X208.0Y-88.0
X208.0Y-91.0
X208.0Y-126.0
X208.475Y-111.4
X209.1Y-65.0
X209.1Y-85.0
X209.1Y-103.0
X210.0Y-88.0
X210.0Y-91.0
X210.0Y-94.0
X210.1Y-109.1
X210.1Y-123.2
X210.3Y-84.1
X210.5Y-65.3
X210.6Y-103.4
X210.7Y-92.3
X210.8Y-73.0
X210.8Y-111.2
X211.0Y-122.4
X211.1Y-54.1
X212.0Y-125.0
X213.0Y-114.0
X213.3Y-105.5
X216.0Y-125.0
X218.9Y-113.8
X219.1Y-71.6
X219.1Y-90.7
X219.2Y-52.5
X219.2Y-109.7
X220.0Y-124.0
X220.7Y-69.8
X220.8Y-50.9
X220.8Y-89.0
X220.9Y-108.0
X221.2Y-104.0
X223.0Y-123.0
X223.3Y-105.2
X223.3Y-115.9
T2
X97.375Y-88.475
X97.675Y-85.975
X97.971Y-49.709
X98.925Y-84.125
X98.987Y-49.709
X100.003Y-49.709
T3
X89.8Y-81.3
X89.8Y-87.5
X90.0Y-72.825
X90.0Y-79.325
X93.0Y-81.3
X93.0Y-87.5
X96.2Y-81.3
X96.2Y-87.5
X99.7Y-81.3
X99.7Y-87.5
T4
X92.935Y-73.075
X95.165Y-75.575
X96.175Y-89.875
X97.705Y-75.575
X98.015Y-73.075
X99.935Y-73.075
X100.245Y-75.575
X102.785Y-75.575
X103.0Y-91.0
X105.015Y-73.075
T5
X91.411Y-96.745
X93.913Y-96.304
X95.275Y-118.657
X96.414Y-95.863
X97.776Y-118.216
X98.916Y-95.422
X100.278Y-117.775
X101.417Y-94.981
X102.779Y-117.334
X103.918Y-94.539
X105.281Y-116.892
X107.782Y-116.451
X107.9Y-76.0
X107.9Y-78.6
X107.9Y-81.1
X112.5Y-80.5
X112.5Y-83.0
X112.5Y-85.6
X166.5Y-108.45
X166.5Y-111.05
X166.5Y-113.55
X185.0Y-95.45
X185.0Y-98.05
X185.0Y-100.55
T6
X91.285Y-42.075
X91.285Y-44.615
X91.285Y-47.155
X91.285Y-49.695
X91.285Y-52.235
X91.285Y-54.775
X91.285Y-57.315
X91.285Y-59.855
X91.285Y-62.395
X91.285Y-64.935
X91.285Y-67.475
X91.285Y-70.015
X106.525Y-42.075
X106.525Y-44.615
X106.525Y-47.155
X106.525Y-49.695
X106.525Y-52.235
X106.525Y-54.775
X106.525Y-57.315
X106.525Y-59.855
X106.525Y-62.395
X106.525Y-64.935
X106.525Y-67.475
X106.525Y-70.015
T7
X91.5Y-91.0
X105.12Y-120.76
X107.0Y-91.0
X129.96Y-95.17
X129.975Y-57.075
X168.06Y-57.06
X168.06Y-95.18
X206.15Y-67.95
X206.17Y-106.03
T0
M30
