%TF.GenerationSoftware,KiCad,Pcbnew,(6.0.10)*%
%TF.CreationDate,2023-01-19T22:05:44+01:00*%
%TF.ProjectId,SofleKeyboard,536f666c-654b-4657-9962-6f6172642e6b,rev?*%
%TF.SameCoordinates,Original*%
%TF.FileFunction,Drillmap*%
%TF.FilePolarity,Positive*%
%FSLAX45Y45*%
G04 Gerber Fmt 4.5, Leading zero omitted, Abs format (unit mm)*
G04 Created by KiCad (PCBNEW (6.0.10)) date 2023-01-19 22:05:44*
%MOMM*%
%LPD*%
G01*
G04 APERTURE LIST*
%ADD10C,0.200000*%
%ADD11C,0.170000*%
%ADD12C,0.190000*%
%ADD13C,0.300000*%
%ADD14C,0.410000*%
G04 APERTURE END LIST*
D10*
X17116067Y-3374614D02*
X17485685Y-3422008D01*
X17895784Y-3498170D01*
X18336586Y-3598354D01*
X19271187Y-3851789D01*
X20211265Y-4144328D01*
X21078601Y-4437983D01*
X21794973Y-4694767D01*
X22461935Y-4945779D01*
X22466765Y-12450945D01*
X21486558Y-12708691D01*
X20969573Y-12843817D01*
X20452470Y-12972827D01*
X19948602Y-13088005D01*
X19471321Y-13181638D01*
X19246823Y-13217965D01*
X19033980Y-13246011D01*
X18834459Y-13264815D01*
X18649930Y-13273410D01*
X14965209Y-13273500D01*
X14568609Y-13280144D01*
X14180524Y-13299865D01*
X13800637Y-13332343D01*
X13428629Y-13377260D01*
X13064185Y-13434299D01*
X12706985Y-13503140D01*
X12356714Y-13583465D01*
X12013053Y-13674956D01*
X11675686Y-13777294D01*
X11344295Y-13890161D01*
X11018563Y-14013239D01*
X10698171Y-14146209D01*
X10382804Y-14288753D01*
X10072144Y-14440552D01*
X9765873Y-14601288D01*
X9410000Y-14790000D01*
X8280000Y-12830000D01*
X8418867Y-12525577D01*
X8499509Y-12270518D01*
X8568201Y-12039860D01*
X8625939Y-11830250D01*
X8673722Y-11638336D01*
X8712546Y-11460764D01*
X8743410Y-11294182D01*
X8767310Y-11135239D01*
X8785246Y-10980580D01*
X8798213Y-10826854D01*
X8813233Y-10508789D01*
X8827549Y-9736339D01*
X8827544Y-9736339D01*
X8831584Y-3905921D01*
X8831683Y-3901138D01*
X8831978Y-3896402D01*
X8832469Y-3891720D01*
X8833154Y-3887097D01*
X8834031Y-3882540D01*
X8835100Y-3878053D01*
X8836359Y-3873644D01*
X8837807Y-3869318D01*
X8839443Y-3865082D01*
X8841265Y-3860940D01*
X8843272Y-3856899D01*
X8845464Y-3852966D01*
X8847838Y-3849145D01*
X8850393Y-3845443D01*
X8853128Y-3841866D01*
X8856042Y-3838420D01*
X8859133Y-3835111D01*
X8862401Y-3831944D01*
X8865844Y-3828926D01*
X8869460Y-3826062D01*
X8873249Y-3823359D01*
X8877209Y-3820822D01*
X8881339Y-3818458D01*
X8885638Y-3816272D01*
X8890104Y-3814271D01*
X8894736Y-3812460D01*
X8899533Y-3810845D01*
X8904493Y-3809432D01*
X8909616Y-3808227D01*
X8914900Y-3807237D01*
X8920343Y-3806466D01*
X8925945Y-3805921D01*
X9219850Y-3785171D01*
X9504514Y-3769952D01*
X10062030Y-3745449D01*
X10342838Y-3730837D01*
X10630317Y-3711102D01*
X10928444Y-3683577D01*
X11241198Y-3645601D01*
X11581843Y-3601616D01*
X11965701Y-3556514D01*
X12454629Y-3504787D01*
X13020659Y-3453020D01*
X13635827Y-3407799D01*
X13953099Y-3389702D01*
X14272167Y-3375711D01*
X14589537Y-3366649D01*
X14901713Y-3363340D01*
X16796706Y-3360738D01*
X17116067Y-3374614D01*
D11*
X9361000Y-12865289D02*
X9531000Y-13035289D01*
X9531000Y-12865289D02*
X9361000Y-13035289D01*
X9811000Y-13644711D02*
X9981000Y-13814711D01*
X9981000Y-13644711D02*
X9811000Y-13814711D01*
X11292432Y-12829037D02*
X11462432Y-12999037D01*
X11462432Y-12829037D02*
X11292432Y-12999037D01*
X11515000Y-4915000D02*
X11685000Y-5085000D01*
X11685000Y-4915000D02*
X11515000Y-5085000D01*
X11515000Y-6825000D02*
X11685000Y-6995000D01*
X11685000Y-6825000D02*
X11515000Y-6995000D01*
X11515000Y-8725000D02*
X11685000Y-8895000D01*
X11685000Y-8725000D02*
X11515000Y-8895000D01*
X11515000Y-10625000D02*
X11685000Y-10795000D01*
X11685000Y-10625000D02*
X11515000Y-10795000D01*
X12157568Y-12580963D02*
X12327568Y-12750963D01*
X12327568Y-12580963D02*
X12157568Y-12750963D01*
X12415000Y-4915000D02*
X12585000Y-5085000D01*
X12585000Y-4915000D02*
X12415000Y-5085000D01*
X12415000Y-6825000D02*
X12585000Y-6995000D01*
X12585000Y-6825000D02*
X12415000Y-6995000D01*
X12415000Y-8725000D02*
X12585000Y-8895000D01*
X12585000Y-8725000D02*
X12415000Y-8895000D01*
X12415000Y-10625000D02*
X12585000Y-10795000D01*
X12585000Y-10625000D02*
X12415000Y-10795000D01*
X13415000Y-4665000D02*
X13585000Y-4835000D01*
X13585000Y-4665000D02*
X13415000Y-4835000D01*
X13415000Y-6575000D02*
X13585000Y-6745000D01*
X13585000Y-6575000D02*
X13415000Y-6745000D01*
X13415000Y-8475000D02*
X13585000Y-8645000D01*
X13585000Y-8475000D02*
X13415000Y-8645000D01*
X13415000Y-10385000D02*
X13585000Y-10555000D01*
X13585000Y-10385000D02*
X13415000Y-10555000D01*
X13865000Y-11835000D02*
X14035000Y-12005000D01*
X14035000Y-11835000D02*
X13865000Y-12005000D01*
X13865000Y-12735000D02*
X14035000Y-12905000D01*
X14035000Y-12735000D02*
X13865000Y-12905000D01*
X14315000Y-4665000D02*
X14485000Y-4835000D01*
X14485000Y-4665000D02*
X14315000Y-4835000D01*
X14315000Y-6575000D02*
X14485000Y-6745000D01*
X14485000Y-6575000D02*
X14315000Y-6745000D01*
X14315000Y-8475000D02*
X14485000Y-8645000D01*
X14485000Y-8475000D02*
X14315000Y-8645000D01*
X14315000Y-10385000D02*
X14485000Y-10555000D01*
X14485000Y-10385000D02*
X14315000Y-10555000D01*
X15325000Y-4172000D02*
X15495000Y-4342000D01*
X15495000Y-4172000D02*
X15325000Y-4342000D01*
X15325000Y-6081000D02*
X15495000Y-6251000D01*
X15495000Y-6081000D02*
X15325000Y-6251000D01*
X15325000Y-7991000D02*
X15495000Y-8161000D01*
X15495000Y-7991000D02*
X15325000Y-8161000D01*
X15325000Y-9891000D02*
X15495000Y-10061000D01*
X15495000Y-9891000D02*
X15325000Y-10061000D01*
X15775000Y-11605000D02*
X15945000Y-11775000D01*
X15945000Y-11605000D02*
X15775000Y-11775000D01*
X15775000Y-12505000D02*
X15945000Y-12675000D01*
X15945000Y-12505000D02*
X15775000Y-12675000D01*
X16225000Y-4172000D02*
X16395000Y-4342000D01*
X16395000Y-4172000D02*
X16225000Y-4342000D01*
X16225000Y-6081000D02*
X16395000Y-6251000D01*
X16395000Y-6081000D02*
X16225000Y-6251000D01*
X16225000Y-7991000D02*
X16395000Y-8161000D01*
X16395000Y-7991000D02*
X16225000Y-8161000D01*
X16225000Y-9891000D02*
X16395000Y-10061000D01*
X16395000Y-9891000D02*
X16225000Y-10061000D01*
X17225000Y-4665000D02*
X17395000Y-4835000D01*
X17395000Y-4665000D02*
X17225000Y-4835000D01*
X17225000Y-6565000D02*
X17395000Y-6735000D01*
X17395000Y-6565000D02*
X17225000Y-6735000D01*
X17225000Y-8475000D02*
X17395000Y-8645000D01*
X17395000Y-8475000D02*
X17225000Y-8645000D01*
X17225000Y-10385000D02*
X17395000Y-10555000D01*
X17395000Y-10385000D02*
X17225000Y-10555000D01*
X17225000Y-12295000D02*
X17395000Y-12465000D01*
X17395000Y-12295000D02*
X17225000Y-12465000D01*
X18125000Y-4665000D02*
X18295000Y-4835000D01*
X18295000Y-4665000D02*
X18125000Y-4835000D01*
X18125000Y-6565000D02*
X18295000Y-6735000D01*
X18295000Y-6565000D02*
X18125000Y-6735000D01*
X18125000Y-8475000D02*
X18295000Y-8645000D01*
X18295000Y-8475000D02*
X18125000Y-8645000D01*
X18125000Y-10385000D02*
X18295000Y-10555000D01*
X18295000Y-10385000D02*
X18125000Y-10555000D01*
X18125000Y-12295000D02*
X18295000Y-12465000D01*
X18295000Y-12295000D02*
X18125000Y-12465000D01*
X19135000Y-5755000D02*
X19305000Y-5925000D01*
X19305000Y-5755000D02*
X19135000Y-5925000D01*
X19135000Y-7645000D02*
X19305000Y-7815000D01*
X19305000Y-7645000D02*
X19135000Y-7815000D01*
X19135000Y-9565000D02*
X19305000Y-9735000D01*
X19305000Y-9565000D02*
X19135000Y-9735000D01*
X19135000Y-11465000D02*
X19305000Y-11635000D01*
X19305000Y-11465000D02*
X19135000Y-11635000D01*
X20035000Y-5755000D02*
X20205000Y-5925000D01*
X20205000Y-5755000D02*
X20035000Y-5925000D01*
X20035000Y-7645000D02*
X20205000Y-7815000D01*
X20205000Y-7645000D02*
X20035000Y-7815000D01*
X20035000Y-9565000D02*
X20205000Y-9735000D01*
X20205000Y-9565000D02*
X20035000Y-9735000D01*
X20035000Y-11465000D02*
X20205000Y-11635000D01*
X20205000Y-11465000D02*
X20035000Y-11635000D01*
X21035000Y-7645000D02*
X21205000Y-7815000D01*
X21205000Y-7645000D02*
X21035000Y-7815000D01*
X21035000Y-9565000D02*
X21205000Y-9735000D01*
X21205000Y-9565000D02*
X21035000Y-9735000D01*
X21040000Y-11465000D02*
X21210000Y-11635000D01*
X21210000Y-11465000D02*
X21040000Y-11635000D01*
X21045000Y-5755000D02*
X21215000Y-5925000D01*
X21215000Y-5755000D02*
X21045000Y-5925000D01*
X21935000Y-7645000D02*
X22105000Y-7815000D01*
X22105000Y-7645000D02*
X21935000Y-7815000D01*
X21935000Y-9565000D02*
X22105000Y-9735000D01*
X22105000Y-9565000D02*
X21935000Y-9735000D01*
X21940000Y-11465000D02*
X22110000Y-11635000D01*
X22110000Y-11465000D02*
X21940000Y-11635000D01*
X21945000Y-5755000D02*
X22115000Y-5925000D01*
X22115000Y-5755000D02*
X21945000Y-5925000D01*
D12*
X9512000Y-12900059D02*
G75*
G03*
X9512000Y-12900059I-95000J0D01*
G01*
X10020000Y-13779941D02*
G75*
G03*
X10020000Y-13779941I-95000J0D01*
G01*
X11416679Y-12930024D02*
G75*
G03*
X11416679Y-12930024I-95000J0D01*
G01*
X11637000Y-5000000D02*
G75*
G03*
X11637000Y-5000000I-95000J0D01*
G01*
X11637000Y-6910000D02*
G75*
G03*
X11637000Y-6910000I-95000J0D01*
G01*
X11637000Y-8810000D02*
G75*
G03*
X11637000Y-8810000I-95000J0D01*
G01*
X11637000Y-10710000D02*
G75*
G03*
X11637000Y-10710000I-95000J0D01*
G01*
X12393321Y-12649976D02*
G75*
G03*
X12393321Y-12649976I-95000J0D01*
G01*
X12653000Y-5000000D02*
G75*
G03*
X12653000Y-5000000I-95000J0D01*
G01*
X12653000Y-6910000D02*
G75*
G03*
X12653000Y-6910000I-95000J0D01*
G01*
X12653000Y-8810000D02*
G75*
G03*
X12653000Y-8810000I-95000J0D01*
G01*
X12653000Y-10710000D02*
G75*
G03*
X12653000Y-10710000I-95000J0D01*
G01*
X13537000Y-4750000D02*
G75*
G03*
X13537000Y-4750000I-95000J0D01*
G01*
X13537000Y-6660000D02*
G75*
G03*
X13537000Y-6660000I-95000J0D01*
G01*
X13537000Y-8560000D02*
G75*
G03*
X13537000Y-8560000I-95000J0D01*
G01*
X13537000Y-10470000D02*
G75*
G03*
X13537000Y-10470000I-95000J0D01*
G01*
X14045000Y-11862000D02*
G75*
G03*
X14045000Y-11862000I-95000J0D01*
G01*
X14045000Y-12878000D02*
G75*
G03*
X14045000Y-12878000I-95000J0D01*
G01*
X14553000Y-4750000D02*
G75*
G03*
X14553000Y-4750000I-95000J0D01*
G01*
X14553000Y-6660000D02*
G75*
G03*
X14553000Y-6660000I-95000J0D01*
G01*
X14553000Y-8560000D02*
G75*
G03*
X14553000Y-8560000I-95000J0D01*
G01*
X14553000Y-10470000D02*
G75*
G03*
X14553000Y-10470000I-95000J0D01*
G01*
X15447000Y-4257000D02*
G75*
G03*
X15447000Y-4257000I-95000J0D01*
G01*
X15447000Y-6166000D02*
G75*
G03*
X15447000Y-6166000I-95000J0D01*
G01*
X15447000Y-8076000D02*
G75*
G03*
X15447000Y-8076000I-95000J0D01*
G01*
X15447000Y-9976000D02*
G75*
G03*
X15447000Y-9976000I-95000J0D01*
G01*
X15955000Y-11632000D02*
G75*
G03*
X15955000Y-11632000I-95000J0D01*
G01*
X15955000Y-12648000D02*
G75*
G03*
X15955000Y-12648000I-95000J0D01*
G01*
X16463000Y-4257000D02*
G75*
G03*
X16463000Y-4257000I-95000J0D01*
G01*
X16463000Y-6166000D02*
G75*
G03*
X16463000Y-6166000I-95000J0D01*
G01*
X16463000Y-8076000D02*
G75*
G03*
X16463000Y-8076000I-95000J0D01*
G01*
X16463000Y-9976000D02*
G75*
G03*
X16463000Y-9976000I-95000J0D01*
G01*
X17347000Y-4750000D02*
G75*
G03*
X17347000Y-4750000I-95000J0D01*
G01*
X17347000Y-6650000D02*
G75*
G03*
X17347000Y-6650000I-95000J0D01*
G01*
X17347000Y-8560000D02*
G75*
G03*
X17347000Y-8560000I-95000J0D01*
G01*
X17347000Y-10470000D02*
G75*
G03*
X17347000Y-10470000I-95000J0D01*
G01*
X17347000Y-12380000D02*
G75*
G03*
X17347000Y-12380000I-95000J0D01*
G01*
X18363000Y-4750000D02*
G75*
G03*
X18363000Y-4750000I-95000J0D01*
G01*
X18363000Y-6650000D02*
G75*
G03*
X18363000Y-6650000I-95000J0D01*
G01*
X18363000Y-8560000D02*
G75*
G03*
X18363000Y-8560000I-95000J0D01*
G01*
X18363000Y-10470000D02*
G75*
G03*
X18363000Y-10470000I-95000J0D01*
G01*
X18363000Y-12380000D02*
G75*
G03*
X18363000Y-12380000I-95000J0D01*
G01*
X19257000Y-5840000D02*
G75*
G03*
X19257000Y-5840000I-95000J0D01*
G01*
X19257000Y-7730000D02*
G75*
G03*
X19257000Y-7730000I-95000J0D01*
G01*
X19257000Y-9650000D02*
G75*
G03*
X19257000Y-9650000I-95000J0D01*
G01*
X19257000Y-11550000D02*
G75*
G03*
X19257000Y-11550000I-95000J0D01*
G01*
X20273000Y-5840000D02*
G75*
G03*
X20273000Y-5840000I-95000J0D01*
G01*
X20273000Y-7730000D02*
G75*
G03*
X20273000Y-7730000I-95000J0D01*
G01*
X20273000Y-9650000D02*
G75*
G03*
X20273000Y-9650000I-95000J0D01*
G01*
X20273000Y-11550000D02*
G75*
G03*
X20273000Y-11550000I-95000J0D01*
G01*
X21157000Y-7730000D02*
G75*
G03*
X21157000Y-7730000I-95000J0D01*
G01*
X21157000Y-9650000D02*
G75*
G03*
X21157000Y-9650000I-95000J0D01*
G01*
X21162000Y-11550000D02*
G75*
G03*
X21162000Y-11550000I-95000J0D01*
G01*
X21167000Y-5840000D02*
G75*
G03*
X21167000Y-5840000I-95000J0D01*
G01*
X22173000Y-7730000D02*
G75*
G03*
X22173000Y-7730000I-95000J0D01*
G01*
X22173000Y-9650000D02*
G75*
G03*
X22173000Y-9650000I-95000J0D01*
G01*
X22178000Y-11550000D02*
G75*
G03*
X22178000Y-11550000I-95000J0D01*
G01*
X22183000Y-5840000D02*
G75*
G03*
X22183000Y-5840000I-95000J0D01*
G01*
D13*
X9700471Y-12733044D02*
X9700471Y-13033044D01*
X9550471Y-12883044D02*
X9850471Y-12883044D01*
X9983941Y-12716029D02*
X9983941Y-13016029D01*
X9833941Y-12866029D02*
X10133941Y-12866029D01*
X10081471Y-13392956D02*
X10081471Y-13692956D01*
X9931471Y-13542956D02*
X10231471Y-13542956D01*
X10237941Y-13155970D02*
X10237941Y-13455970D01*
X10087941Y-13305970D02*
X10387941Y-13305970D01*
X11513771Y-12989178D02*
X11513771Y-13289178D01*
X11363771Y-13139178D02*
X11663771Y-13139178D01*
X11669000Y-5104000D02*
X11669000Y-5404000D01*
X11519000Y-5254000D02*
X11819000Y-5254000D01*
X11669000Y-7014000D02*
X11669000Y-7314000D01*
X11519000Y-7164000D02*
X11819000Y-7164000D01*
X11669000Y-8914000D02*
X11669000Y-9214000D01*
X11519000Y-9064000D02*
X11819000Y-9064000D01*
X11669000Y-10814000D02*
X11669000Y-11114000D01*
X11519000Y-10964000D02*
X11819000Y-10964000D01*
X11705863Y-13198333D02*
X11705863Y-13498333D01*
X11555863Y-13348333D02*
X11855863Y-13348333D01*
X11796000Y-5358000D02*
X11796000Y-5658000D01*
X11646000Y-5508000D02*
X11946000Y-5508000D01*
X11796000Y-7268000D02*
X11796000Y-7568000D01*
X11646000Y-7418000D02*
X11946000Y-7418000D01*
X11796000Y-9168000D02*
X11796000Y-9468000D01*
X11646000Y-9318000D02*
X11946000Y-9318000D01*
X11796000Y-11068000D02*
X11796000Y-11368000D01*
X11646000Y-11218000D02*
X11946000Y-11218000D01*
X12194184Y-13058309D02*
X12194184Y-13358309D01*
X12044184Y-13208309D02*
X12344184Y-13208309D01*
X12246253Y-12779143D02*
X12246253Y-13079143D01*
X12096253Y-12929143D02*
X12396253Y-12929143D01*
X12304000Y-5358000D02*
X12304000Y-5658000D01*
X12154000Y-5508000D02*
X12454000Y-5508000D01*
X12304000Y-7268000D02*
X12304000Y-7568000D01*
X12154000Y-7418000D02*
X12454000Y-7418000D01*
X12304000Y-9168000D02*
X12304000Y-9468000D01*
X12154000Y-9318000D02*
X12454000Y-9318000D01*
X12304000Y-11068000D02*
X12304000Y-11368000D01*
X12154000Y-11218000D02*
X12454000Y-11218000D01*
X12431000Y-5104000D02*
X12431000Y-5404000D01*
X12281000Y-5254000D02*
X12581000Y-5254000D01*
X12431000Y-7014000D02*
X12431000Y-7314000D01*
X12281000Y-7164000D02*
X12581000Y-7164000D01*
X12431000Y-8914000D02*
X12431000Y-9214000D01*
X12281000Y-9064000D02*
X12581000Y-9064000D01*
X12431000Y-10814000D02*
X12431000Y-11114000D01*
X12281000Y-10964000D02*
X12581000Y-10964000D01*
X13442000Y-11966000D02*
X13442000Y-12266000D01*
X13292000Y-12116000D02*
X13592000Y-12116000D01*
X13442000Y-12474000D02*
X13442000Y-12774000D01*
X13292000Y-12624000D02*
X13592000Y-12624000D01*
X13569000Y-4854000D02*
X13569000Y-5154000D01*
X13419000Y-5004000D02*
X13719000Y-5004000D01*
X13569000Y-6764000D02*
X13569000Y-7064000D01*
X13419000Y-6914000D02*
X13719000Y-6914000D01*
X13569000Y-8664000D02*
X13569000Y-8964000D01*
X13419000Y-8814000D02*
X13719000Y-8814000D01*
X13569000Y-10574000D02*
X13569000Y-10874000D01*
X13419000Y-10724000D02*
X13719000Y-10724000D01*
X13696000Y-11839000D02*
X13696000Y-12139000D01*
X13546000Y-11989000D02*
X13846000Y-11989000D01*
X13696000Y-5108000D02*
X13696000Y-5408000D01*
X13546000Y-5258000D02*
X13846000Y-5258000D01*
X13696000Y-7018000D02*
X13696000Y-7318000D01*
X13546000Y-7168000D02*
X13846000Y-7168000D01*
X13696000Y-8918000D02*
X13696000Y-9218000D01*
X13546000Y-9068000D02*
X13846000Y-9068000D01*
X13696000Y-10828000D02*
X13696000Y-11128000D01*
X13546000Y-10978000D02*
X13846000Y-10978000D01*
X13696000Y-12601000D02*
X13696000Y-12901000D01*
X13546000Y-12751000D02*
X13846000Y-12751000D01*
X14204000Y-5108000D02*
X14204000Y-5408000D01*
X14054000Y-5258000D02*
X14354000Y-5258000D01*
X14204000Y-7018000D02*
X14204000Y-7318000D01*
X14054000Y-7168000D02*
X14354000Y-7168000D01*
X14204000Y-8918000D02*
X14204000Y-9218000D01*
X14054000Y-9068000D02*
X14354000Y-9068000D01*
X14204000Y-10828000D02*
X14204000Y-11128000D01*
X14054000Y-10978000D02*
X14354000Y-10978000D01*
X14331000Y-4854000D02*
X14331000Y-5154000D01*
X14181000Y-5004000D02*
X14481000Y-5004000D01*
X14331000Y-6764000D02*
X14331000Y-7064000D01*
X14181000Y-6914000D02*
X14481000Y-6914000D01*
X14331000Y-8664000D02*
X14331000Y-8964000D01*
X14181000Y-8814000D02*
X14481000Y-8814000D01*
X14331000Y-10574000D02*
X14331000Y-10874000D01*
X14181000Y-10724000D02*
X14481000Y-10724000D01*
X15352000Y-11736000D02*
X15352000Y-12036000D01*
X15202000Y-11886000D02*
X15502000Y-11886000D01*
X15352000Y-12244000D02*
X15352000Y-12544000D01*
X15202000Y-12394000D02*
X15502000Y-12394000D01*
X15479000Y-4361000D02*
X15479000Y-4661000D01*
X15329000Y-4511000D02*
X15629000Y-4511000D01*
X15479000Y-6270000D02*
X15479000Y-6570000D01*
X15329000Y-6420000D02*
X15629000Y-6420000D01*
X15479000Y-8180000D02*
X15479000Y-8480000D01*
X15329000Y-8330000D02*
X15629000Y-8330000D01*
X15479000Y-10080000D02*
X15479000Y-10380000D01*
X15329000Y-10230000D02*
X15629000Y-10230000D01*
X15606000Y-11609000D02*
X15606000Y-11909000D01*
X15456000Y-11759000D02*
X15756000Y-11759000D01*
X15606000Y-4615000D02*
X15606000Y-4915000D01*
X15456000Y-4765000D02*
X15756000Y-4765000D01*
X15606000Y-6524000D02*
X15606000Y-6824000D01*
X15456000Y-6674000D02*
X15756000Y-6674000D01*
X15606000Y-8434000D02*
X15606000Y-8734000D01*
X15456000Y-8584000D02*
X15756000Y-8584000D01*
X15606000Y-10334000D02*
X15606000Y-10634000D01*
X15456000Y-10484000D02*
X15756000Y-10484000D01*
X15606000Y-12371000D02*
X15606000Y-12671000D01*
X15456000Y-12521000D02*
X15756000Y-12521000D01*
X16114000Y-4615000D02*
X16114000Y-4915000D01*
X15964000Y-4765000D02*
X16264000Y-4765000D01*
X16114000Y-6524000D02*
X16114000Y-6824000D01*
X15964000Y-6674000D02*
X16264000Y-6674000D01*
X16114000Y-8434000D02*
X16114000Y-8734000D01*
X15964000Y-8584000D02*
X16264000Y-8584000D01*
X16114000Y-10334000D02*
X16114000Y-10634000D01*
X15964000Y-10484000D02*
X16264000Y-10484000D01*
X16241000Y-4361000D02*
X16241000Y-4661000D01*
X16091000Y-4511000D02*
X16391000Y-4511000D01*
X16241000Y-6270000D02*
X16241000Y-6570000D01*
X16091000Y-6420000D02*
X16391000Y-6420000D01*
X16241000Y-8180000D02*
X16241000Y-8480000D01*
X16091000Y-8330000D02*
X16391000Y-8330000D01*
X16241000Y-10080000D02*
X16241000Y-10380000D01*
X16091000Y-10230000D02*
X16391000Y-10230000D01*
X17379000Y-4854000D02*
X17379000Y-5154000D01*
X17229000Y-5004000D02*
X17529000Y-5004000D01*
X17379000Y-6754000D02*
X17379000Y-7054000D01*
X17229000Y-6904000D02*
X17529000Y-6904000D01*
X17379000Y-8664000D02*
X17379000Y-8964000D01*
X17229000Y-8814000D02*
X17529000Y-8814000D01*
X17379000Y-10574000D02*
X17379000Y-10874000D01*
X17229000Y-10724000D02*
X17529000Y-10724000D01*
X17379000Y-12484000D02*
X17379000Y-12784000D01*
X17229000Y-12634000D02*
X17529000Y-12634000D01*
X17506000Y-5108000D02*
X17506000Y-5408000D01*
X17356000Y-5258000D02*
X17656000Y-5258000D01*
X17506000Y-7008000D02*
X17506000Y-7308000D01*
X17356000Y-7158000D02*
X17656000Y-7158000D01*
X17506000Y-8918000D02*
X17506000Y-9218000D01*
X17356000Y-9068000D02*
X17656000Y-9068000D01*
X17506000Y-10828000D02*
X17506000Y-11128000D01*
X17356000Y-10978000D02*
X17656000Y-10978000D01*
X17506000Y-12738000D02*
X17506000Y-13038000D01*
X17356000Y-12888000D02*
X17656000Y-12888000D01*
X18014000Y-5108000D02*
X18014000Y-5408000D01*
X17864000Y-5258000D02*
X18164000Y-5258000D01*
X18014000Y-7008000D02*
X18014000Y-7308000D01*
X17864000Y-7158000D02*
X18164000Y-7158000D01*
X18014000Y-8918000D02*
X18014000Y-9218000D01*
X17864000Y-9068000D02*
X18164000Y-9068000D01*
X18014000Y-10828000D02*
X18014000Y-11128000D01*
X17864000Y-10978000D02*
X18164000Y-10978000D01*
X18014000Y-12738000D02*
X18014000Y-13038000D01*
X17864000Y-12888000D02*
X18164000Y-12888000D01*
X18141000Y-4854000D02*
X18141000Y-5154000D01*
X17991000Y-5004000D02*
X18291000Y-5004000D01*
X18141000Y-6754000D02*
X18141000Y-7054000D01*
X17991000Y-6904000D02*
X18291000Y-6904000D01*
X18141000Y-8664000D02*
X18141000Y-8964000D01*
X17991000Y-8814000D02*
X18291000Y-8814000D01*
X18141000Y-10574000D02*
X18141000Y-10874000D01*
X17991000Y-10724000D02*
X18291000Y-10724000D01*
X18141000Y-12484000D02*
X18141000Y-12784000D01*
X17991000Y-12634000D02*
X18291000Y-12634000D01*
X19289000Y-5944000D02*
X19289000Y-6244000D01*
X19139000Y-6094000D02*
X19439000Y-6094000D01*
X19289000Y-7834000D02*
X19289000Y-8134000D01*
X19139000Y-7984000D02*
X19439000Y-7984000D01*
X19289000Y-9754000D02*
X19289000Y-10054000D01*
X19139000Y-9904000D02*
X19439000Y-9904000D01*
X19289000Y-11654000D02*
X19289000Y-11954000D01*
X19139000Y-11804000D02*
X19439000Y-11804000D01*
X19416000Y-6198000D02*
X19416000Y-6498000D01*
X19266000Y-6348000D02*
X19566000Y-6348000D01*
X19416000Y-8088000D02*
X19416000Y-8388000D01*
X19266000Y-8238000D02*
X19566000Y-8238000D01*
X19416000Y-10008000D02*
X19416000Y-10308000D01*
X19266000Y-10158000D02*
X19566000Y-10158000D01*
X19416000Y-11908000D02*
X19416000Y-12208000D01*
X19266000Y-12058000D02*
X19566000Y-12058000D01*
X19924000Y-6198000D02*
X19924000Y-6498000D01*
X19774000Y-6348000D02*
X20074000Y-6348000D01*
X19924000Y-8088000D02*
X19924000Y-8388000D01*
X19774000Y-8238000D02*
X20074000Y-8238000D01*
X19924000Y-10008000D02*
X19924000Y-10308000D01*
X19774000Y-10158000D02*
X20074000Y-10158000D01*
X19924000Y-11908000D02*
X19924000Y-12208000D01*
X19774000Y-12058000D02*
X20074000Y-12058000D01*
X20051000Y-5944000D02*
X20051000Y-6244000D01*
X19901000Y-6094000D02*
X20201000Y-6094000D01*
X20051000Y-7834000D02*
X20051000Y-8134000D01*
X19901000Y-7984000D02*
X20201000Y-7984000D01*
X20051000Y-9754000D02*
X20051000Y-10054000D01*
X19901000Y-9904000D02*
X20201000Y-9904000D01*
X20051000Y-11654000D02*
X20051000Y-11954000D01*
X19901000Y-11804000D02*
X20201000Y-11804000D01*
X21189000Y-7834000D02*
X21189000Y-8134000D01*
X21039000Y-7984000D02*
X21339000Y-7984000D01*
X21189000Y-9754000D02*
X21189000Y-10054000D01*
X21039000Y-9904000D02*
X21339000Y-9904000D01*
X21194000Y-11654000D02*
X21194000Y-11954000D01*
X21044000Y-11804000D02*
X21344000Y-11804000D01*
X21199000Y-5944000D02*
X21199000Y-6244000D01*
X21049000Y-6094000D02*
X21349000Y-6094000D01*
X21316000Y-8088000D02*
X21316000Y-8388000D01*
X21166000Y-8238000D02*
X21466000Y-8238000D01*
X21316000Y-10008000D02*
X21316000Y-10308000D01*
X21166000Y-10158000D02*
X21466000Y-10158000D01*
X21321000Y-11908000D02*
X21321000Y-12208000D01*
X21171000Y-12058000D02*
X21471000Y-12058000D01*
X21326000Y-6198000D02*
X21326000Y-6498000D01*
X21176000Y-6348000D02*
X21476000Y-6348000D01*
X21824000Y-8088000D02*
X21824000Y-8388000D01*
X21674000Y-8238000D02*
X21974000Y-8238000D01*
X21824000Y-10008000D02*
X21824000Y-10308000D01*
X21674000Y-10158000D02*
X21974000Y-10158000D01*
X21829000Y-11908000D02*
X21829000Y-12208000D01*
X21679000Y-12058000D02*
X21979000Y-12058000D01*
X21834000Y-6198000D02*
X21834000Y-6498000D01*
X21684000Y-6348000D02*
X21984000Y-6348000D01*
X21951000Y-7834000D02*
X21951000Y-8134000D01*
X21801000Y-7984000D02*
X22101000Y-7984000D01*
X21951000Y-9754000D02*
X21951000Y-10054000D01*
X21801000Y-9904000D02*
X22101000Y-9904000D01*
X21956000Y-11654000D02*
X21956000Y-11954000D01*
X21806000Y-11804000D02*
X22106000Y-11804000D01*
X21961000Y-5944000D02*
X21961000Y-6244000D01*
X21811000Y-6094000D02*
X22111000Y-6094000D01*
D14*
X9815958Y-13484958D02*
X9815958Y-13195042D01*
X9526042Y-13195042D01*
X9526042Y-13484958D01*
X9815958Y-13484958D01*
X11954958Y-12934958D02*
X11954958Y-12645042D01*
X11665042Y-12645042D01*
X11665042Y-12934958D01*
X11954958Y-12934958D01*
X12194958Y-5144958D02*
X12194958Y-4855042D01*
X11905042Y-4855042D01*
X11905042Y-5144958D01*
X12194958Y-5144958D01*
X12194958Y-7054958D02*
X12194958Y-6765042D01*
X11905042Y-6765042D01*
X11905042Y-7054958D01*
X12194958Y-7054958D01*
X12194958Y-8954958D02*
X12194958Y-8665042D01*
X11905042Y-8665042D01*
X11905042Y-8954958D01*
X12194958Y-8954958D01*
X12194958Y-10854958D02*
X12194958Y-10565042D01*
X11905042Y-10565042D01*
X11905042Y-10854958D01*
X12194958Y-10854958D01*
X14094958Y-4894958D02*
X14094958Y-4605042D01*
X13805042Y-4605042D01*
X13805042Y-4894958D01*
X14094958Y-4894958D01*
X14094958Y-6804958D02*
X14094958Y-6515042D01*
X13805042Y-6515042D01*
X13805042Y-6804958D01*
X14094958Y-6804958D01*
X14094958Y-8704958D02*
X14094958Y-8415042D01*
X13805042Y-8415042D01*
X13805042Y-8704958D01*
X14094958Y-8704958D01*
X14094958Y-10614958D02*
X14094958Y-10325042D01*
X13805042Y-10325042D01*
X13805042Y-10614958D01*
X14094958Y-10614958D01*
X14094958Y-12514958D02*
X14094958Y-12225042D01*
X13805042Y-12225042D01*
X13805042Y-12514958D01*
X14094958Y-12514958D01*
X16004958Y-4401958D02*
X16004958Y-4112042D01*
X15715042Y-4112042D01*
X15715042Y-4401958D01*
X16004958Y-4401958D01*
X16004958Y-6310958D02*
X16004958Y-6021042D01*
X15715042Y-6021042D01*
X15715042Y-6310958D01*
X16004958Y-6310958D01*
X16004958Y-8220958D02*
X16004958Y-7931042D01*
X15715042Y-7931042D01*
X15715042Y-8220958D01*
X16004958Y-8220958D01*
X16004958Y-10120958D02*
X16004958Y-9831042D01*
X15715042Y-9831042D01*
X15715042Y-10120958D01*
X16004958Y-10120958D01*
X16004958Y-12284958D02*
X16004958Y-11995042D01*
X15715042Y-11995042D01*
X15715042Y-12284958D01*
X16004958Y-12284958D01*
X17904958Y-4894958D02*
X17904958Y-4605042D01*
X17615042Y-4605042D01*
X17615042Y-4894958D01*
X17904958Y-4894958D01*
X17904958Y-6794958D02*
X17904958Y-6505042D01*
X17615042Y-6505042D01*
X17615042Y-6794958D01*
X17904958Y-6794958D01*
X17904958Y-8704958D02*
X17904958Y-8415042D01*
X17615042Y-8415042D01*
X17615042Y-8704958D01*
X17904958Y-8704958D01*
X17904958Y-10614958D02*
X17904958Y-10325042D01*
X17615042Y-10325042D01*
X17615042Y-10614958D01*
X17904958Y-10614958D01*
X17904958Y-12524958D02*
X17904958Y-12235042D01*
X17615042Y-12235042D01*
X17615042Y-12524958D01*
X17904958Y-12524958D01*
X19814958Y-5984958D02*
X19814958Y-5695042D01*
X19525042Y-5695042D01*
X19525042Y-5984958D01*
X19814958Y-5984958D01*
X19814958Y-7874958D02*
X19814958Y-7585042D01*
X19525042Y-7585042D01*
X19525042Y-7874958D01*
X19814958Y-7874958D01*
X19814958Y-9794958D02*
X19814958Y-9505042D01*
X19525042Y-9505042D01*
X19525042Y-9794958D01*
X19814958Y-9794958D01*
X19814958Y-11694958D02*
X19814958Y-11405042D01*
X19525042Y-11405042D01*
X19525042Y-11694958D01*
X19814958Y-11694958D01*
X21714958Y-7874958D02*
X21714958Y-7585042D01*
X21425042Y-7585042D01*
X21425042Y-7874958D01*
X21714958Y-7874958D01*
X21714958Y-9794958D02*
X21714958Y-9505042D01*
X21425042Y-9505042D01*
X21425042Y-9794958D01*
X21714958Y-9794958D01*
X21719958Y-11694958D02*
X21719958Y-11405042D01*
X21430042Y-11405042D01*
X21430042Y-11694958D01*
X21719958Y-11694958D01*
X21724958Y-5984958D02*
X21724958Y-5695042D01*
X21435042Y-5695042D01*
X21435042Y-5984958D01*
X21724958Y-5984958D01*
D10*
X8527619Y-15110476D02*
X8527619Y-14910476D01*
X8575238Y-14910476D01*
X8603810Y-14920000D01*
X8622857Y-14939048D01*
X8632381Y-14958095D01*
X8641905Y-14996190D01*
X8641905Y-15024762D01*
X8632381Y-15062857D01*
X8622857Y-15081905D01*
X8603810Y-15100952D01*
X8575238Y-15110476D01*
X8527619Y-15110476D01*
X8727619Y-15110476D02*
X8727619Y-14977143D01*
X8727619Y-15015238D02*
X8737143Y-14996190D01*
X8746667Y-14986667D01*
X8765714Y-14977143D01*
X8784762Y-14977143D01*
X8851429Y-15110476D02*
X8851429Y-14977143D01*
X8851429Y-14910476D02*
X8841905Y-14920000D01*
X8851429Y-14929524D01*
X8860952Y-14920000D01*
X8851429Y-14910476D01*
X8851429Y-14929524D01*
X8975238Y-15110476D02*
X8956190Y-15100952D01*
X8946667Y-15081905D01*
X8946667Y-14910476D01*
X9080000Y-15110476D02*
X9060952Y-15100952D01*
X9051429Y-15081905D01*
X9051429Y-14910476D01*
X9308571Y-15110476D02*
X9308571Y-14910476D01*
X9375238Y-15053333D01*
X9441905Y-14910476D01*
X9441905Y-15110476D01*
X9622857Y-15110476D02*
X9622857Y-15005714D01*
X9613333Y-14986667D01*
X9594286Y-14977143D01*
X9556190Y-14977143D01*
X9537143Y-14986667D01*
X9622857Y-15100952D02*
X9603810Y-15110476D01*
X9556190Y-15110476D01*
X9537143Y-15100952D01*
X9527619Y-15081905D01*
X9527619Y-15062857D01*
X9537143Y-15043809D01*
X9556190Y-15034286D01*
X9603810Y-15034286D01*
X9622857Y-15024762D01*
X9718095Y-14977143D02*
X9718095Y-15177143D01*
X9718095Y-14986667D02*
X9737143Y-14977143D01*
X9775238Y-14977143D01*
X9794286Y-14986667D01*
X9803810Y-14996190D01*
X9813333Y-15015238D01*
X9813333Y-15072381D01*
X9803810Y-15091428D01*
X9794286Y-15100952D01*
X9775238Y-15110476D01*
X9737143Y-15110476D01*
X9718095Y-15100952D01*
X9899048Y-15091428D02*
X9908571Y-15100952D01*
X9899048Y-15110476D01*
X9889524Y-15100952D01*
X9899048Y-15091428D01*
X9899048Y-15110476D01*
X9899048Y-14986667D02*
X9908571Y-14996190D01*
X9899048Y-15005714D01*
X9889524Y-14996190D01*
X9899048Y-14986667D01*
X9899048Y-15005714D01*
D11*
X8100000Y-15355000D02*
X8270000Y-15525000D01*
X8270000Y-15355000D02*
X8100000Y-15525000D01*
D10*
X8632381Y-15530476D02*
X8518095Y-15530476D01*
X8575238Y-15530476D02*
X8575238Y-15330476D01*
X8556190Y-15359048D01*
X8537143Y-15378095D01*
X8518095Y-15387619D01*
X8718095Y-15511428D02*
X8727619Y-15520952D01*
X8718095Y-15530476D01*
X8708571Y-15520952D01*
X8718095Y-15511428D01*
X8718095Y-15530476D01*
X8794286Y-15330476D02*
X8927619Y-15330476D01*
X8841905Y-15530476D01*
X9041905Y-15330476D02*
X9060952Y-15330476D01*
X9080000Y-15340000D01*
X9089524Y-15349524D01*
X9099048Y-15368571D01*
X9108571Y-15406667D01*
X9108571Y-15454286D01*
X9099048Y-15492381D01*
X9089524Y-15511428D01*
X9080000Y-15520952D01*
X9060952Y-15530476D01*
X9041905Y-15530476D01*
X9022857Y-15520952D01*
X9013333Y-15511428D01*
X9003810Y-15492381D01*
X8994286Y-15454286D01*
X8994286Y-15406667D01*
X9003810Y-15368571D01*
X9013333Y-15349524D01*
X9022857Y-15340000D01*
X9041905Y-15330476D01*
X9232381Y-15330476D02*
X9251429Y-15330476D01*
X9270476Y-15340000D01*
X9280000Y-15349524D01*
X9289524Y-15368571D01*
X9299048Y-15406667D01*
X9299048Y-15454286D01*
X9289524Y-15492381D01*
X9280000Y-15511428D01*
X9270476Y-15520952D01*
X9251429Y-15530476D01*
X9232381Y-15530476D01*
X9213333Y-15520952D01*
X9203810Y-15511428D01*
X9194286Y-15492381D01*
X9184762Y-15454286D01*
X9184762Y-15406667D01*
X9194286Y-15368571D01*
X9203810Y-15349524D01*
X9213333Y-15340000D01*
X9232381Y-15330476D01*
X9384762Y-15530476D02*
X9384762Y-15397143D01*
X9384762Y-15416190D02*
X9394286Y-15406667D01*
X9413333Y-15397143D01*
X9441905Y-15397143D01*
X9460952Y-15406667D01*
X9470476Y-15425714D01*
X9470476Y-15530476D01*
X9470476Y-15425714D02*
X9480000Y-15406667D01*
X9499048Y-15397143D01*
X9527619Y-15397143D01*
X9546667Y-15406667D01*
X9556190Y-15425714D01*
X9556190Y-15530476D01*
X9651429Y-15530476D02*
X9651429Y-15397143D01*
X9651429Y-15416190D02*
X9660952Y-15406667D01*
X9680000Y-15397143D01*
X9708571Y-15397143D01*
X9727619Y-15406667D01*
X9737143Y-15425714D01*
X9737143Y-15530476D01*
X9737143Y-15425714D02*
X9746667Y-15406667D01*
X9765714Y-15397143D01*
X9794286Y-15397143D01*
X9813333Y-15406667D01*
X9822857Y-15425714D01*
X9822857Y-15530476D01*
X10213333Y-15320952D02*
X10041905Y-15578095D01*
X10470476Y-15330476D02*
X10489524Y-15330476D01*
X10508571Y-15340000D01*
X10518095Y-15349524D01*
X10527619Y-15368571D01*
X10537143Y-15406667D01*
X10537143Y-15454286D01*
X10527619Y-15492381D01*
X10518095Y-15511428D01*
X10508571Y-15520952D01*
X10489524Y-15530476D01*
X10470476Y-15530476D01*
X10451429Y-15520952D01*
X10441905Y-15511428D01*
X10432381Y-15492381D01*
X10422857Y-15454286D01*
X10422857Y-15406667D01*
X10432381Y-15368571D01*
X10441905Y-15349524D01*
X10451429Y-15340000D01*
X10470476Y-15330476D01*
X10622857Y-15511428D02*
X10632381Y-15520952D01*
X10622857Y-15530476D01*
X10613333Y-15520952D01*
X10622857Y-15511428D01*
X10622857Y-15530476D01*
X10756190Y-15330476D02*
X10775238Y-15330476D01*
X10794286Y-15340000D01*
X10803810Y-15349524D01*
X10813333Y-15368571D01*
X10822857Y-15406667D01*
X10822857Y-15454286D01*
X10813333Y-15492381D01*
X10803810Y-15511428D01*
X10794286Y-15520952D01*
X10775238Y-15530476D01*
X10756190Y-15530476D01*
X10737143Y-15520952D01*
X10727619Y-15511428D01*
X10718095Y-15492381D01*
X10708571Y-15454286D01*
X10708571Y-15406667D01*
X10718095Y-15368571D01*
X10727619Y-15349524D01*
X10737143Y-15340000D01*
X10756190Y-15330476D01*
X10994286Y-15330476D02*
X10956190Y-15330476D01*
X10937143Y-15340000D01*
X10927619Y-15349524D01*
X10908571Y-15378095D01*
X10899048Y-15416190D01*
X10899048Y-15492381D01*
X10908571Y-15511428D01*
X10918095Y-15520952D01*
X10937143Y-15530476D01*
X10975238Y-15530476D01*
X10994286Y-15520952D01*
X11003810Y-15511428D01*
X11013333Y-15492381D01*
X11013333Y-15444762D01*
X11003810Y-15425714D01*
X10994286Y-15416190D01*
X10975238Y-15406667D01*
X10937143Y-15406667D01*
X10918095Y-15416190D01*
X10908571Y-15425714D01*
X10899048Y-15444762D01*
X11184762Y-15330476D02*
X11146667Y-15330476D01*
X11127619Y-15340000D01*
X11118095Y-15349524D01*
X11099048Y-15378095D01*
X11089524Y-15416190D01*
X11089524Y-15492381D01*
X11099048Y-15511428D01*
X11108571Y-15520952D01*
X11127619Y-15530476D01*
X11165714Y-15530476D01*
X11184762Y-15520952D01*
X11194286Y-15511428D01*
X11203809Y-15492381D01*
X11203809Y-15444762D01*
X11194286Y-15425714D01*
X11184762Y-15416190D01*
X11165714Y-15406667D01*
X11127619Y-15406667D01*
X11108571Y-15416190D01*
X11099048Y-15425714D01*
X11089524Y-15444762D01*
X11299048Y-15530476D02*
X11337143Y-15530476D01*
X11356190Y-15520952D01*
X11365714Y-15511428D01*
X11384762Y-15482857D01*
X11394286Y-15444762D01*
X11394286Y-15368571D01*
X11384762Y-15349524D01*
X11375238Y-15340000D01*
X11356190Y-15330476D01*
X11318095Y-15330476D01*
X11299048Y-15340000D01*
X11289524Y-15349524D01*
X11280000Y-15368571D01*
X11280000Y-15416190D01*
X11289524Y-15435238D01*
X11299048Y-15444762D01*
X11318095Y-15454286D01*
X11356190Y-15454286D01*
X11375238Y-15444762D01*
X11384762Y-15435238D01*
X11394286Y-15416190D01*
X11470476Y-15330476D02*
X11470476Y-15368571D01*
X11546667Y-15330476D02*
X11546667Y-15368571D01*
X11841905Y-15606667D02*
X11832381Y-15597143D01*
X11813333Y-15568571D01*
X11803809Y-15549524D01*
X11794286Y-15520952D01*
X11784762Y-15473333D01*
X11784762Y-15435238D01*
X11794286Y-15387619D01*
X11803809Y-15359048D01*
X11813333Y-15340000D01*
X11832381Y-15311428D01*
X11841905Y-15301905D01*
X12013333Y-15330476D02*
X11918095Y-15330476D01*
X11908571Y-15425714D01*
X11918095Y-15416190D01*
X11937143Y-15406667D01*
X11984762Y-15406667D01*
X12003809Y-15416190D01*
X12013333Y-15425714D01*
X12022857Y-15444762D01*
X12022857Y-15492381D01*
X12013333Y-15511428D01*
X12003809Y-15520952D01*
X11984762Y-15530476D01*
X11937143Y-15530476D01*
X11918095Y-15520952D01*
X11908571Y-15511428D01*
X12137143Y-15416190D02*
X12118095Y-15406667D01*
X12108571Y-15397143D01*
X12099048Y-15378095D01*
X12099048Y-15368571D01*
X12108571Y-15349524D01*
X12118095Y-15340000D01*
X12137143Y-15330476D01*
X12175238Y-15330476D01*
X12194286Y-15340000D01*
X12203809Y-15349524D01*
X12213333Y-15368571D01*
X12213333Y-15378095D01*
X12203809Y-15397143D01*
X12194286Y-15406667D01*
X12175238Y-15416190D01*
X12137143Y-15416190D01*
X12118095Y-15425714D01*
X12108571Y-15435238D01*
X12099048Y-15454286D01*
X12099048Y-15492381D01*
X12108571Y-15511428D01*
X12118095Y-15520952D01*
X12137143Y-15530476D01*
X12175238Y-15530476D01*
X12194286Y-15520952D01*
X12203809Y-15511428D01*
X12213333Y-15492381D01*
X12213333Y-15454286D01*
X12203809Y-15435238D01*
X12194286Y-15425714D01*
X12175238Y-15416190D01*
X12451428Y-15530476D02*
X12451428Y-15330476D01*
X12537143Y-15530476D02*
X12537143Y-15425714D01*
X12527619Y-15406667D01*
X12508571Y-15397143D01*
X12480000Y-15397143D01*
X12460952Y-15406667D01*
X12451428Y-15416190D01*
X12660952Y-15530476D02*
X12641905Y-15520952D01*
X12632381Y-15511428D01*
X12622857Y-15492381D01*
X12622857Y-15435238D01*
X12632381Y-15416190D01*
X12641905Y-15406667D01*
X12660952Y-15397143D01*
X12689524Y-15397143D01*
X12708571Y-15406667D01*
X12718095Y-15416190D01*
X12727619Y-15435238D01*
X12727619Y-15492381D01*
X12718095Y-15511428D01*
X12708571Y-15520952D01*
X12689524Y-15530476D01*
X12660952Y-15530476D01*
X12841905Y-15530476D02*
X12822857Y-15520952D01*
X12813333Y-15501905D01*
X12813333Y-15330476D01*
X12994286Y-15520952D02*
X12975238Y-15530476D01*
X12937143Y-15530476D01*
X12918095Y-15520952D01*
X12908571Y-15501905D01*
X12908571Y-15425714D01*
X12918095Y-15406667D01*
X12937143Y-15397143D01*
X12975238Y-15397143D01*
X12994286Y-15406667D01*
X13003809Y-15425714D01*
X13003809Y-15444762D01*
X12908571Y-15463809D01*
X13080000Y-15520952D02*
X13099048Y-15530476D01*
X13137143Y-15530476D01*
X13156190Y-15520952D01*
X13165714Y-15501905D01*
X13165714Y-15492381D01*
X13156190Y-15473333D01*
X13137143Y-15463809D01*
X13108571Y-15463809D01*
X13089524Y-15454286D01*
X13080000Y-15435238D01*
X13080000Y-15425714D01*
X13089524Y-15406667D01*
X13108571Y-15397143D01*
X13137143Y-15397143D01*
X13156190Y-15406667D01*
X13232381Y-15606667D02*
X13241905Y-15597143D01*
X13260952Y-15568571D01*
X13270476Y-15549524D01*
X13280000Y-15520952D01*
X13289524Y-15473333D01*
X13289524Y-15435238D01*
X13280000Y-15387619D01*
X13270476Y-15359048D01*
X13260952Y-15340000D01*
X13241905Y-15311428D01*
X13232381Y-15301905D01*
X13594286Y-15606667D02*
X13584762Y-15597143D01*
X13565714Y-15568571D01*
X13556190Y-15549524D01*
X13546667Y-15520952D01*
X13537143Y-15473333D01*
X13537143Y-15435238D01*
X13546667Y-15387619D01*
X13556190Y-15359048D01*
X13565714Y-15340000D01*
X13584762Y-15311428D01*
X13594286Y-15301905D01*
X13670476Y-15397143D02*
X13670476Y-15530476D01*
X13670476Y-15416190D02*
X13680000Y-15406667D01*
X13699048Y-15397143D01*
X13727619Y-15397143D01*
X13746667Y-15406667D01*
X13756190Y-15425714D01*
X13756190Y-15530476D01*
X13880000Y-15530476D02*
X13860952Y-15520952D01*
X13851428Y-15511428D01*
X13841905Y-15492381D01*
X13841905Y-15435238D01*
X13851428Y-15416190D01*
X13860952Y-15406667D01*
X13880000Y-15397143D01*
X13908571Y-15397143D01*
X13927619Y-15406667D01*
X13937143Y-15416190D01*
X13946667Y-15435238D01*
X13946667Y-15492381D01*
X13937143Y-15511428D01*
X13927619Y-15520952D01*
X13908571Y-15530476D01*
X13880000Y-15530476D01*
X14003809Y-15397143D02*
X14080000Y-15397143D01*
X14032381Y-15330476D02*
X14032381Y-15501905D01*
X14041905Y-15520952D01*
X14060952Y-15530476D01*
X14080000Y-15530476D01*
X14299048Y-15397143D02*
X14299048Y-15597143D01*
X14299048Y-15406667D02*
X14318095Y-15397143D01*
X14356190Y-15397143D01*
X14375238Y-15406667D01*
X14384762Y-15416190D01*
X14394286Y-15435238D01*
X14394286Y-15492381D01*
X14384762Y-15511428D01*
X14375238Y-15520952D01*
X14356190Y-15530476D01*
X14318095Y-15530476D01*
X14299048Y-15520952D01*
X14508571Y-15530476D02*
X14489524Y-15520952D01*
X14480000Y-15501905D01*
X14480000Y-15330476D01*
X14670476Y-15530476D02*
X14670476Y-15425714D01*
X14660952Y-15406667D01*
X14641905Y-15397143D01*
X14603809Y-15397143D01*
X14584762Y-15406667D01*
X14670476Y-15520952D02*
X14651428Y-15530476D01*
X14603809Y-15530476D01*
X14584762Y-15520952D01*
X14575238Y-15501905D01*
X14575238Y-15482857D01*
X14584762Y-15463809D01*
X14603809Y-15454286D01*
X14651428Y-15454286D01*
X14670476Y-15444762D01*
X14737143Y-15397143D02*
X14813333Y-15397143D01*
X14765714Y-15330476D02*
X14765714Y-15501905D01*
X14775238Y-15520952D01*
X14794286Y-15530476D01*
X14813333Y-15530476D01*
X14956190Y-15520952D02*
X14937143Y-15530476D01*
X14899048Y-15530476D01*
X14880000Y-15520952D01*
X14870476Y-15501905D01*
X14870476Y-15425714D01*
X14880000Y-15406667D01*
X14899048Y-15397143D01*
X14937143Y-15397143D01*
X14956190Y-15406667D01*
X14965714Y-15425714D01*
X14965714Y-15444762D01*
X14870476Y-15463809D01*
X15137143Y-15530476D02*
X15137143Y-15330476D01*
X15137143Y-15520952D02*
X15118095Y-15530476D01*
X15080000Y-15530476D01*
X15060952Y-15520952D01*
X15051428Y-15511428D01*
X15041905Y-15492381D01*
X15041905Y-15435238D01*
X15051428Y-15416190D01*
X15060952Y-15406667D01*
X15080000Y-15397143D01*
X15118095Y-15397143D01*
X15137143Y-15406667D01*
X15213333Y-15606667D02*
X15222857Y-15597143D01*
X15241905Y-15568571D01*
X15251428Y-15549524D01*
X15260952Y-15520952D01*
X15270476Y-15473333D01*
X15270476Y-15435238D01*
X15260952Y-15387619D01*
X15251428Y-15359048D01*
X15241905Y-15340000D01*
X15222857Y-15311428D01*
X15213333Y-15301905D01*
D12*
X8270000Y-15730000D02*
G75*
G03*
X8270000Y-15730000I-95000J0D01*
G01*
D10*
X8632381Y-15820476D02*
X8518095Y-15820476D01*
X8575238Y-15820476D02*
X8575238Y-15620476D01*
X8556190Y-15649048D01*
X8537143Y-15668095D01*
X8518095Y-15677619D01*
X8718095Y-15801428D02*
X8727619Y-15810952D01*
X8718095Y-15820476D01*
X8708571Y-15810952D01*
X8718095Y-15801428D01*
X8718095Y-15820476D01*
X8822857Y-15820476D02*
X8860952Y-15820476D01*
X8880000Y-15810952D01*
X8889524Y-15801428D01*
X8908571Y-15772857D01*
X8918095Y-15734762D01*
X8918095Y-15658571D01*
X8908571Y-15639524D01*
X8899048Y-15630000D01*
X8880000Y-15620476D01*
X8841905Y-15620476D01*
X8822857Y-15630000D01*
X8813333Y-15639524D01*
X8803810Y-15658571D01*
X8803810Y-15706190D01*
X8813333Y-15725238D01*
X8822857Y-15734762D01*
X8841905Y-15744286D01*
X8880000Y-15744286D01*
X8899048Y-15734762D01*
X8908571Y-15725238D01*
X8918095Y-15706190D01*
X9041905Y-15620476D02*
X9060952Y-15620476D01*
X9080000Y-15630000D01*
X9089524Y-15639524D01*
X9099048Y-15658571D01*
X9108571Y-15696667D01*
X9108571Y-15744286D01*
X9099048Y-15782381D01*
X9089524Y-15801428D01*
X9080000Y-15810952D01*
X9060952Y-15820476D01*
X9041905Y-15820476D01*
X9022857Y-15810952D01*
X9013333Y-15801428D01*
X9003810Y-15782381D01*
X8994286Y-15744286D01*
X8994286Y-15696667D01*
X9003810Y-15658571D01*
X9013333Y-15639524D01*
X9022857Y-15630000D01*
X9041905Y-15620476D01*
X9232381Y-15620476D02*
X9251429Y-15620476D01*
X9270476Y-15630000D01*
X9280000Y-15639524D01*
X9289524Y-15658571D01*
X9299048Y-15696667D01*
X9299048Y-15744286D01*
X9289524Y-15782381D01*
X9280000Y-15801428D01*
X9270476Y-15810952D01*
X9251429Y-15820476D01*
X9232381Y-15820476D01*
X9213333Y-15810952D01*
X9203810Y-15801428D01*
X9194286Y-15782381D01*
X9184762Y-15744286D01*
X9184762Y-15696667D01*
X9194286Y-15658571D01*
X9203810Y-15639524D01*
X9213333Y-15630000D01*
X9232381Y-15620476D01*
X9384762Y-15820476D02*
X9384762Y-15687143D01*
X9384762Y-15706190D02*
X9394286Y-15696667D01*
X9413333Y-15687143D01*
X9441905Y-15687143D01*
X9460952Y-15696667D01*
X9470476Y-15715714D01*
X9470476Y-15820476D01*
X9470476Y-15715714D02*
X9480000Y-15696667D01*
X9499048Y-15687143D01*
X9527619Y-15687143D01*
X9546667Y-15696667D01*
X9556190Y-15715714D01*
X9556190Y-15820476D01*
X9651429Y-15820476D02*
X9651429Y-15687143D01*
X9651429Y-15706190D02*
X9660952Y-15696667D01*
X9680000Y-15687143D01*
X9708571Y-15687143D01*
X9727619Y-15696667D01*
X9737143Y-15715714D01*
X9737143Y-15820476D01*
X9737143Y-15715714D02*
X9746667Y-15696667D01*
X9765714Y-15687143D01*
X9794286Y-15687143D01*
X9813333Y-15696667D01*
X9822857Y-15715714D01*
X9822857Y-15820476D01*
X10213333Y-15610952D02*
X10041905Y-15868095D01*
X10470476Y-15620476D02*
X10489524Y-15620476D01*
X10508571Y-15630000D01*
X10518095Y-15639524D01*
X10527619Y-15658571D01*
X10537143Y-15696667D01*
X10537143Y-15744286D01*
X10527619Y-15782381D01*
X10518095Y-15801428D01*
X10508571Y-15810952D01*
X10489524Y-15820476D01*
X10470476Y-15820476D01*
X10451429Y-15810952D01*
X10441905Y-15801428D01*
X10432381Y-15782381D01*
X10422857Y-15744286D01*
X10422857Y-15696667D01*
X10432381Y-15658571D01*
X10441905Y-15639524D01*
X10451429Y-15630000D01*
X10470476Y-15620476D01*
X10622857Y-15801428D02*
X10632381Y-15810952D01*
X10622857Y-15820476D01*
X10613333Y-15810952D01*
X10622857Y-15801428D01*
X10622857Y-15820476D01*
X10756190Y-15620476D02*
X10775238Y-15620476D01*
X10794286Y-15630000D01*
X10803810Y-15639524D01*
X10813333Y-15658571D01*
X10822857Y-15696667D01*
X10822857Y-15744286D01*
X10813333Y-15782381D01*
X10803810Y-15801428D01*
X10794286Y-15810952D01*
X10775238Y-15820476D01*
X10756190Y-15820476D01*
X10737143Y-15810952D01*
X10727619Y-15801428D01*
X10718095Y-15782381D01*
X10708571Y-15744286D01*
X10708571Y-15696667D01*
X10718095Y-15658571D01*
X10727619Y-15639524D01*
X10737143Y-15630000D01*
X10756190Y-15620476D01*
X10889524Y-15620476D02*
X11022857Y-15620476D01*
X10937143Y-15820476D01*
X11184762Y-15687143D02*
X11184762Y-15820476D01*
X11137143Y-15610952D02*
X11089524Y-15753809D01*
X11213333Y-15753809D01*
X11318095Y-15706190D02*
X11299048Y-15696667D01*
X11289524Y-15687143D01*
X11280000Y-15668095D01*
X11280000Y-15658571D01*
X11289524Y-15639524D01*
X11299048Y-15630000D01*
X11318095Y-15620476D01*
X11356190Y-15620476D01*
X11375238Y-15630000D01*
X11384762Y-15639524D01*
X11394286Y-15658571D01*
X11394286Y-15668095D01*
X11384762Y-15687143D01*
X11375238Y-15696667D01*
X11356190Y-15706190D01*
X11318095Y-15706190D01*
X11299048Y-15715714D01*
X11289524Y-15725238D01*
X11280000Y-15744286D01*
X11280000Y-15782381D01*
X11289524Y-15801428D01*
X11299048Y-15810952D01*
X11318095Y-15820476D01*
X11356190Y-15820476D01*
X11375238Y-15810952D01*
X11384762Y-15801428D01*
X11394286Y-15782381D01*
X11394286Y-15744286D01*
X11384762Y-15725238D01*
X11375238Y-15715714D01*
X11356190Y-15706190D01*
X11470476Y-15620476D02*
X11470476Y-15658571D01*
X11546667Y-15620476D02*
X11546667Y-15658571D01*
X11841905Y-15896667D02*
X11832381Y-15887143D01*
X11813333Y-15858571D01*
X11803809Y-15839524D01*
X11794286Y-15810952D01*
X11784762Y-15763333D01*
X11784762Y-15725238D01*
X11794286Y-15677619D01*
X11803809Y-15649048D01*
X11813333Y-15630000D01*
X11832381Y-15601428D01*
X11841905Y-15591905D01*
X12013333Y-15620476D02*
X11918095Y-15620476D01*
X11908571Y-15715714D01*
X11918095Y-15706190D01*
X11937143Y-15696667D01*
X11984762Y-15696667D01*
X12003809Y-15706190D01*
X12013333Y-15715714D01*
X12022857Y-15734762D01*
X12022857Y-15782381D01*
X12013333Y-15801428D01*
X12003809Y-15810952D01*
X11984762Y-15820476D01*
X11937143Y-15820476D01*
X11918095Y-15810952D01*
X11908571Y-15801428D01*
X12137143Y-15706190D02*
X12118095Y-15696667D01*
X12108571Y-15687143D01*
X12099048Y-15668095D01*
X12099048Y-15658571D01*
X12108571Y-15639524D01*
X12118095Y-15630000D01*
X12137143Y-15620476D01*
X12175238Y-15620476D01*
X12194286Y-15630000D01*
X12203809Y-15639524D01*
X12213333Y-15658571D01*
X12213333Y-15668095D01*
X12203809Y-15687143D01*
X12194286Y-15696667D01*
X12175238Y-15706190D01*
X12137143Y-15706190D01*
X12118095Y-15715714D01*
X12108571Y-15725238D01*
X12099048Y-15744286D01*
X12099048Y-15782381D01*
X12108571Y-15801428D01*
X12118095Y-15810952D01*
X12137143Y-15820476D01*
X12175238Y-15820476D01*
X12194286Y-15810952D01*
X12203809Y-15801428D01*
X12213333Y-15782381D01*
X12213333Y-15744286D01*
X12203809Y-15725238D01*
X12194286Y-15715714D01*
X12175238Y-15706190D01*
X12451428Y-15820476D02*
X12451428Y-15620476D01*
X12537143Y-15820476D02*
X12537143Y-15715714D01*
X12527619Y-15696667D01*
X12508571Y-15687143D01*
X12480000Y-15687143D01*
X12460952Y-15696667D01*
X12451428Y-15706190D01*
X12660952Y-15820476D02*
X12641905Y-15810952D01*
X12632381Y-15801428D01*
X12622857Y-15782381D01*
X12622857Y-15725238D01*
X12632381Y-15706190D01*
X12641905Y-15696667D01*
X12660952Y-15687143D01*
X12689524Y-15687143D01*
X12708571Y-15696667D01*
X12718095Y-15706190D01*
X12727619Y-15725238D01*
X12727619Y-15782381D01*
X12718095Y-15801428D01*
X12708571Y-15810952D01*
X12689524Y-15820476D01*
X12660952Y-15820476D01*
X12841905Y-15820476D02*
X12822857Y-15810952D01*
X12813333Y-15791905D01*
X12813333Y-15620476D01*
X12994286Y-15810952D02*
X12975238Y-15820476D01*
X12937143Y-15820476D01*
X12918095Y-15810952D01*
X12908571Y-15791905D01*
X12908571Y-15715714D01*
X12918095Y-15696667D01*
X12937143Y-15687143D01*
X12975238Y-15687143D01*
X12994286Y-15696667D01*
X13003809Y-15715714D01*
X13003809Y-15734762D01*
X12908571Y-15753809D01*
X13080000Y-15810952D02*
X13099048Y-15820476D01*
X13137143Y-15820476D01*
X13156190Y-15810952D01*
X13165714Y-15791905D01*
X13165714Y-15782381D01*
X13156190Y-15763333D01*
X13137143Y-15753809D01*
X13108571Y-15753809D01*
X13089524Y-15744286D01*
X13080000Y-15725238D01*
X13080000Y-15715714D01*
X13089524Y-15696667D01*
X13108571Y-15687143D01*
X13137143Y-15687143D01*
X13156190Y-15696667D01*
X13232381Y-15896667D02*
X13241905Y-15887143D01*
X13260952Y-15858571D01*
X13270476Y-15839524D01*
X13280000Y-15810952D01*
X13289524Y-15763333D01*
X13289524Y-15725238D01*
X13280000Y-15677619D01*
X13270476Y-15649048D01*
X13260952Y-15630000D01*
X13241905Y-15601428D01*
X13232381Y-15591905D01*
X13594286Y-15896667D02*
X13584762Y-15887143D01*
X13565714Y-15858571D01*
X13556190Y-15839524D01*
X13546667Y-15810952D01*
X13537143Y-15763333D01*
X13537143Y-15725238D01*
X13546667Y-15677619D01*
X13556190Y-15649048D01*
X13565714Y-15630000D01*
X13584762Y-15601428D01*
X13594286Y-15591905D01*
X13670476Y-15687143D02*
X13670476Y-15820476D01*
X13670476Y-15706190D02*
X13680000Y-15696667D01*
X13699048Y-15687143D01*
X13727619Y-15687143D01*
X13746667Y-15696667D01*
X13756190Y-15715714D01*
X13756190Y-15820476D01*
X13880000Y-15820476D02*
X13860952Y-15810952D01*
X13851428Y-15801428D01*
X13841905Y-15782381D01*
X13841905Y-15725238D01*
X13851428Y-15706190D01*
X13860952Y-15696667D01*
X13880000Y-15687143D01*
X13908571Y-15687143D01*
X13927619Y-15696667D01*
X13937143Y-15706190D01*
X13946667Y-15725238D01*
X13946667Y-15782381D01*
X13937143Y-15801428D01*
X13927619Y-15810952D01*
X13908571Y-15820476D01*
X13880000Y-15820476D01*
X14003809Y-15687143D02*
X14080000Y-15687143D01*
X14032381Y-15620476D02*
X14032381Y-15791905D01*
X14041905Y-15810952D01*
X14060952Y-15820476D01*
X14080000Y-15820476D01*
X14299048Y-15687143D02*
X14299048Y-15887143D01*
X14299048Y-15696667D02*
X14318095Y-15687143D01*
X14356190Y-15687143D01*
X14375238Y-15696667D01*
X14384762Y-15706190D01*
X14394286Y-15725238D01*
X14394286Y-15782381D01*
X14384762Y-15801428D01*
X14375238Y-15810952D01*
X14356190Y-15820476D01*
X14318095Y-15820476D01*
X14299048Y-15810952D01*
X14508571Y-15820476D02*
X14489524Y-15810952D01*
X14480000Y-15791905D01*
X14480000Y-15620476D01*
X14670476Y-15820476D02*
X14670476Y-15715714D01*
X14660952Y-15696667D01*
X14641905Y-15687143D01*
X14603809Y-15687143D01*
X14584762Y-15696667D01*
X14670476Y-15810952D02*
X14651428Y-15820476D01*
X14603809Y-15820476D01*
X14584762Y-15810952D01*
X14575238Y-15791905D01*
X14575238Y-15772857D01*
X14584762Y-15753809D01*
X14603809Y-15744286D01*
X14651428Y-15744286D01*
X14670476Y-15734762D01*
X14737143Y-15687143D02*
X14813333Y-15687143D01*
X14765714Y-15620476D02*
X14765714Y-15791905D01*
X14775238Y-15810952D01*
X14794286Y-15820476D01*
X14813333Y-15820476D01*
X14956190Y-15810952D02*
X14937143Y-15820476D01*
X14899048Y-15820476D01*
X14880000Y-15810952D01*
X14870476Y-15791905D01*
X14870476Y-15715714D01*
X14880000Y-15696667D01*
X14899048Y-15687143D01*
X14937143Y-15687143D01*
X14956190Y-15696667D01*
X14965714Y-15715714D01*
X14965714Y-15734762D01*
X14870476Y-15753809D01*
X15137143Y-15820476D02*
X15137143Y-15620476D01*
X15137143Y-15810952D02*
X15118095Y-15820476D01*
X15080000Y-15820476D01*
X15060952Y-15810952D01*
X15051428Y-15801428D01*
X15041905Y-15782381D01*
X15041905Y-15725238D01*
X15051428Y-15706190D01*
X15060952Y-15696667D01*
X15080000Y-15687143D01*
X15118095Y-15687143D01*
X15137143Y-15696667D01*
X15213333Y-15896667D02*
X15222857Y-15887143D01*
X15241905Y-15858571D01*
X15251428Y-15839524D01*
X15260952Y-15810952D01*
X15270476Y-15763333D01*
X15270476Y-15725238D01*
X15260952Y-15677619D01*
X15251428Y-15649048D01*
X15241905Y-15630000D01*
X15222857Y-15601428D01*
X15213333Y-15591905D01*
X8170000Y-15940000D02*
X8170000Y-16140000D01*
X8070000Y-16040000D02*
X8270000Y-16040000D01*
X8508571Y-15930476D02*
X8632381Y-15930476D01*
X8565714Y-16006667D01*
X8594286Y-16006667D01*
X8613333Y-16016190D01*
X8622857Y-16025714D01*
X8632381Y-16044762D01*
X8632381Y-16092381D01*
X8622857Y-16111428D01*
X8613333Y-16120952D01*
X8594286Y-16130476D01*
X8537143Y-16130476D01*
X8518095Y-16120952D01*
X8508571Y-16111428D01*
X8718095Y-16111428D02*
X8727619Y-16120952D01*
X8718095Y-16130476D01*
X8708571Y-16120952D01*
X8718095Y-16111428D01*
X8718095Y-16130476D01*
X8851429Y-15930476D02*
X8870476Y-15930476D01*
X8889524Y-15940000D01*
X8899048Y-15949524D01*
X8908571Y-15968571D01*
X8918095Y-16006667D01*
X8918095Y-16054286D01*
X8908571Y-16092381D01*
X8899048Y-16111428D01*
X8889524Y-16120952D01*
X8870476Y-16130476D01*
X8851429Y-16130476D01*
X8832381Y-16120952D01*
X8822857Y-16111428D01*
X8813333Y-16092381D01*
X8803810Y-16054286D01*
X8803810Y-16006667D01*
X8813333Y-15968571D01*
X8822857Y-15949524D01*
X8832381Y-15940000D01*
X8851429Y-15930476D01*
X9041905Y-15930476D02*
X9060952Y-15930476D01*
X9080000Y-15940000D01*
X9089524Y-15949524D01*
X9099048Y-15968571D01*
X9108571Y-16006667D01*
X9108571Y-16054286D01*
X9099048Y-16092381D01*
X9089524Y-16111428D01*
X9080000Y-16120952D01*
X9060952Y-16130476D01*
X9041905Y-16130476D01*
X9022857Y-16120952D01*
X9013333Y-16111428D01*
X9003810Y-16092381D01*
X8994286Y-16054286D01*
X8994286Y-16006667D01*
X9003810Y-15968571D01*
X9013333Y-15949524D01*
X9022857Y-15940000D01*
X9041905Y-15930476D01*
X9232381Y-15930476D02*
X9251429Y-15930476D01*
X9270476Y-15940000D01*
X9280000Y-15949524D01*
X9289524Y-15968571D01*
X9299048Y-16006667D01*
X9299048Y-16054286D01*
X9289524Y-16092381D01*
X9280000Y-16111428D01*
X9270476Y-16120952D01*
X9251429Y-16130476D01*
X9232381Y-16130476D01*
X9213333Y-16120952D01*
X9203810Y-16111428D01*
X9194286Y-16092381D01*
X9184762Y-16054286D01*
X9184762Y-16006667D01*
X9194286Y-15968571D01*
X9203810Y-15949524D01*
X9213333Y-15940000D01*
X9232381Y-15930476D01*
X9384762Y-16130476D02*
X9384762Y-15997143D01*
X9384762Y-16016190D02*
X9394286Y-16006667D01*
X9413333Y-15997143D01*
X9441905Y-15997143D01*
X9460952Y-16006667D01*
X9470476Y-16025714D01*
X9470476Y-16130476D01*
X9470476Y-16025714D02*
X9480000Y-16006667D01*
X9499048Y-15997143D01*
X9527619Y-15997143D01*
X9546667Y-16006667D01*
X9556190Y-16025714D01*
X9556190Y-16130476D01*
X9651429Y-16130476D02*
X9651429Y-15997143D01*
X9651429Y-16016190D02*
X9660952Y-16006667D01*
X9680000Y-15997143D01*
X9708571Y-15997143D01*
X9727619Y-16006667D01*
X9737143Y-16025714D01*
X9737143Y-16130476D01*
X9737143Y-16025714D02*
X9746667Y-16006667D01*
X9765714Y-15997143D01*
X9794286Y-15997143D01*
X9813333Y-16006667D01*
X9822857Y-16025714D01*
X9822857Y-16130476D01*
X10213333Y-15920952D02*
X10041905Y-16178095D01*
X10470476Y-15930476D02*
X10489524Y-15930476D01*
X10508571Y-15940000D01*
X10518095Y-15949524D01*
X10527619Y-15968571D01*
X10537143Y-16006667D01*
X10537143Y-16054286D01*
X10527619Y-16092381D01*
X10518095Y-16111428D01*
X10508571Y-16120952D01*
X10489524Y-16130476D01*
X10470476Y-16130476D01*
X10451429Y-16120952D01*
X10441905Y-16111428D01*
X10432381Y-16092381D01*
X10422857Y-16054286D01*
X10422857Y-16006667D01*
X10432381Y-15968571D01*
X10441905Y-15949524D01*
X10451429Y-15940000D01*
X10470476Y-15930476D01*
X10622857Y-16111428D02*
X10632381Y-16120952D01*
X10622857Y-16130476D01*
X10613333Y-16120952D01*
X10622857Y-16111428D01*
X10622857Y-16130476D01*
X10822857Y-16130476D02*
X10708571Y-16130476D01*
X10765714Y-16130476D02*
X10765714Y-15930476D01*
X10746667Y-15959048D01*
X10727619Y-15978095D01*
X10708571Y-15987619D01*
X11013333Y-16130476D02*
X10899048Y-16130476D01*
X10956190Y-16130476D02*
X10956190Y-15930476D01*
X10937143Y-15959048D01*
X10918095Y-15978095D01*
X10899048Y-15987619D01*
X11127619Y-16016190D02*
X11108571Y-16006667D01*
X11099048Y-15997143D01*
X11089524Y-15978095D01*
X11089524Y-15968571D01*
X11099048Y-15949524D01*
X11108571Y-15940000D01*
X11127619Y-15930476D01*
X11165714Y-15930476D01*
X11184762Y-15940000D01*
X11194286Y-15949524D01*
X11203809Y-15968571D01*
X11203809Y-15978095D01*
X11194286Y-15997143D01*
X11184762Y-16006667D01*
X11165714Y-16016190D01*
X11127619Y-16016190D01*
X11108571Y-16025714D01*
X11099048Y-16035238D01*
X11089524Y-16054286D01*
X11089524Y-16092381D01*
X11099048Y-16111428D01*
X11108571Y-16120952D01*
X11127619Y-16130476D01*
X11165714Y-16130476D01*
X11184762Y-16120952D01*
X11194286Y-16111428D01*
X11203809Y-16092381D01*
X11203809Y-16054286D01*
X11194286Y-16035238D01*
X11184762Y-16025714D01*
X11165714Y-16016190D01*
X11394286Y-16130476D02*
X11280000Y-16130476D01*
X11337143Y-16130476D02*
X11337143Y-15930476D01*
X11318095Y-15959048D01*
X11299048Y-15978095D01*
X11280000Y-15987619D01*
X11470476Y-15930476D02*
X11470476Y-15968571D01*
X11546667Y-15930476D02*
X11546667Y-15968571D01*
X11841905Y-16206667D02*
X11832381Y-16197143D01*
X11813333Y-16168571D01*
X11803809Y-16149524D01*
X11794286Y-16120952D01*
X11784762Y-16073333D01*
X11784762Y-16035238D01*
X11794286Y-15987619D01*
X11803809Y-15959048D01*
X11813333Y-15940000D01*
X11832381Y-15911428D01*
X11841905Y-15901905D01*
X12022857Y-16130476D02*
X11908571Y-16130476D01*
X11965714Y-16130476D02*
X11965714Y-15930476D01*
X11946667Y-15959048D01*
X11927619Y-15978095D01*
X11908571Y-15987619D01*
X12213333Y-16130476D02*
X12099048Y-16130476D01*
X12156190Y-16130476D02*
X12156190Y-15930476D01*
X12137143Y-15959048D01*
X12118095Y-15978095D01*
X12099048Y-15987619D01*
X12384762Y-15930476D02*
X12346667Y-15930476D01*
X12327619Y-15940000D01*
X12318095Y-15949524D01*
X12299048Y-15978095D01*
X12289524Y-16016190D01*
X12289524Y-16092381D01*
X12299048Y-16111428D01*
X12308571Y-16120952D01*
X12327619Y-16130476D01*
X12365714Y-16130476D01*
X12384762Y-16120952D01*
X12394286Y-16111428D01*
X12403809Y-16092381D01*
X12403809Y-16044762D01*
X12394286Y-16025714D01*
X12384762Y-16016190D01*
X12365714Y-16006667D01*
X12327619Y-16006667D01*
X12308571Y-16016190D01*
X12299048Y-16025714D01*
X12289524Y-16044762D01*
X12641905Y-16130476D02*
X12641905Y-15930476D01*
X12727619Y-16130476D02*
X12727619Y-16025714D01*
X12718095Y-16006667D01*
X12699048Y-15997143D01*
X12670476Y-15997143D01*
X12651428Y-16006667D01*
X12641905Y-16016190D01*
X12851428Y-16130476D02*
X12832381Y-16120952D01*
X12822857Y-16111428D01*
X12813333Y-16092381D01*
X12813333Y-16035238D01*
X12822857Y-16016190D01*
X12832381Y-16006667D01*
X12851428Y-15997143D01*
X12880000Y-15997143D01*
X12899048Y-16006667D01*
X12908571Y-16016190D01*
X12918095Y-16035238D01*
X12918095Y-16092381D01*
X12908571Y-16111428D01*
X12899048Y-16120952D01*
X12880000Y-16130476D01*
X12851428Y-16130476D01*
X13032381Y-16130476D02*
X13013333Y-16120952D01*
X13003809Y-16101905D01*
X13003809Y-15930476D01*
X13184762Y-16120952D02*
X13165714Y-16130476D01*
X13127619Y-16130476D01*
X13108571Y-16120952D01*
X13099048Y-16101905D01*
X13099048Y-16025714D01*
X13108571Y-16006667D01*
X13127619Y-15997143D01*
X13165714Y-15997143D01*
X13184762Y-16006667D01*
X13194286Y-16025714D01*
X13194286Y-16044762D01*
X13099048Y-16063809D01*
X13270476Y-16120952D02*
X13289524Y-16130476D01*
X13327619Y-16130476D01*
X13346667Y-16120952D01*
X13356190Y-16101905D01*
X13356190Y-16092381D01*
X13346667Y-16073333D01*
X13327619Y-16063809D01*
X13299048Y-16063809D01*
X13280000Y-16054286D01*
X13270476Y-16035238D01*
X13270476Y-16025714D01*
X13280000Y-16006667D01*
X13299048Y-15997143D01*
X13327619Y-15997143D01*
X13346667Y-16006667D01*
X13422857Y-16206667D02*
X13432381Y-16197143D01*
X13451428Y-16168571D01*
X13460952Y-16149524D01*
X13470476Y-16120952D01*
X13480000Y-16073333D01*
X13480000Y-16035238D01*
X13470476Y-15987619D01*
X13460952Y-15959048D01*
X13451428Y-15940000D01*
X13432381Y-15911428D01*
X13422857Y-15901905D01*
X13784762Y-16206667D02*
X13775238Y-16197143D01*
X13756190Y-16168571D01*
X13746667Y-16149524D01*
X13737143Y-16120952D01*
X13727619Y-16073333D01*
X13727619Y-16035238D01*
X13737143Y-15987619D01*
X13746667Y-15959048D01*
X13756190Y-15940000D01*
X13775238Y-15911428D01*
X13784762Y-15901905D01*
X13860952Y-15997143D02*
X13860952Y-16130476D01*
X13860952Y-16016190D02*
X13870476Y-16006667D01*
X13889524Y-15997143D01*
X13918095Y-15997143D01*
X13937143Y-16006667D01*
X13946667Y-16025714D01*
X13946667Y-16130476D01*
X14070476Y-16130476D02*
X14051428Y-16120952D01*
X14041905Y-16111428D01*
X14032381Y-16092381D01*
X14032381Y-16035238D01*
X14041905Y-16016190D01*
X14051428Y-16006667D01*
X14070476Y-15997143D01*
X14099048Y-15997143D01*
X14118095Y-16006667D01*
X14127619Y-16016190D01*
X14137143Y-16035238D01*
X14137143Y-16092381D01*
X14127619Y-16111428D01*
X14118095Y-16120952D01*
X14099048Y-16130476D01*
X14070476Y-16130476D01*
X14194286Y-15997143D02*
X14270476Y-15997143D01*
X14222857Y-15930476D02*
X14222857Y-16101905D01*
X14232381Y-16120952D01*
X14251428Y-16130476D01*
X14270476Y-16130476D01*
X14489524Y-15997143D02*
X14489524Y-16197143D01*
X14489524Y-16006667D02*
X14508571Y-15997143D01*
X14546667Y-15997143D01*
X14565714Y-16006667D01*
X14575238Y-16016190D01*
X14584762Y-16035238D01*
X14584762Y-16092381D01*
X14575238Y-16111428D01*
X14565714Y-16120952D01*
X14546667Y-16130476D01*
X14508571Y-16130476D01*
X14489524Y-16120952D01*
X14699048Y-16130476D02*
X14680000Y-16120952D01*
X14670476Y-16101905D01*
X14670476Y-15930476D01*
X14860952Y-16130476D02*
X14860952Y-16025714D01*
X14851428Y-16006667D01*
X14832381Y-15997143D01*
X14794286Y-15997143D01*
X14775238Y-16006667D01*
X14860952Y-16120952D02*
X14841905Y-16130476D01*
X14794286Y-16130476D01*
X14775238Y-16120952D01*
X14765714Y-16101905D01*
X14765714Y-16082857D01*
X14775238Y-16063809D01*
X14794286Y-16054286D01*
X14841905Y-16054286D01*
X14860952Y-16044762D01*
X14927619Y-15997143D02*
X15003809Y-15997143D01*
X14956190Y-15930476D02*
X14956190Y-16101905D01*
X14965714Y-16120952D01*
X14984762Y-16130476D01*
X15003809Y-16130476D01*
X15146667Y-16120952D02*
X15127619Y-16130476D01*
X15089524Y-16130476D01*
X15070476Y-16120952D01*
X15060952Y-16101905D01*
X15060952Y-16025714D01*
X15070476Y-16006667D01*
X15089524Y-15997143D01*
X15127619Y-15997143D01*
X15146667Y-16006667D01*
X15156190Y-16025714D01*
X15156190Y-16044762D01*
X15060952Y-16063809D01*
X15327619Y-16130476D02*
X15327619Y-15930476D01*
X15327619Y-16120952D02*
X15308571Y-16130476D01*
X15270476Y-16130476D01*
X15251428Y-16120952D01*
X15241905Y-16111428D01*
X15232381Y-16092381D01*
X15232381Y-16035238D01*
X15241905Y-16016190D01*
X15251428Y-16006667D01*
X15270476Y-15997143D01*
X15308571Y-15997143D01*
X15327619Y-16006667D01*
X15403809Y-16206667D02*
X15413333Y-16197143D01*
X15432381Y-16168571D01*
X15441905Y-16149524D01*
X15451428Y-16120952D01*
X15460952Y-16073333D01*
X15460952Y-16035238D01*
X15451428Y-15987619D01*
X15441905Y-15959048D01*
X15432381Y-15940000D01*
X15413333Y-15911428D01*
X15403809Y-15901905D01*
X8240711Y-16430711D02*
X8240711Y-16289289D01*
X8099289Y-16289289D01*
X8099289Y-16430711D01*
X8240711Y-16430711D01*
X8613333Y-16317143D02*
X8613333Y-16450476D01*
X8565714Y-16240952D02*
X8518095Y-16383809D01*
X8641905Y-16383809D01*
X8718095Y-16431428D02*
X8727619Y-16440952D01*
X8718095Y-16450476D01*
X8708571Y-16440952D01*
X8718095Y-16431428D01*
X8718095Y-16450476D01*
X8918095Y-16450476D02*
X8803810Y-16450476D01*
X8860952Y-16450476D02*
X8860952Y-16250476D01*
X8841905Y-16279048D01*
X8822857Y-16298095D01*
X8803810Y-16307619D01*
X9041905Y-16250476D02*
X9060952Y-16250476D01*
X9080000Y-16260000D01*
X9089524Y-16269524D01*
X9099048Y-16288571D01*
X9108571Y-16326667D01*
X9108571Y-16374286D01*
X9099048Y-16412381D01*
X9089524Y-16431428D01*
X9080000Y-16440952D01*
X9060952Y-16450476D01*
X9041905Y-16450476D01*
X9022857Y-16440952D01*
X9013333Y-16431428D01*
X9003810Y-16412381D01*
X8994286Y-16374286D01*
X8994286Y-16326667D01*
X9003810Y-16288571D01*
X9013333Y-16269524D01*
X9022857Y-16260000D01*
X9041905Y-16250476D01*
X9232381Y-16250476D02*
X9251429Y-16250476D01*
X9270476Y-16260000D01*
X9280000Y-16269524D01*
X9289524Y-16288571D01*
X9299048Y-16326667D01*
X9299048Y-16374286D01*
X9289524Y-16412381D01*
X9280000Y-16431428D01*
X9270476Y-16440952D01*
X9251429Y-16450476D01*
X9232381Y-16450476D01*
X9213333Y-16440952D01*
X9203810Y-16431428D01*
X9194286Y-16412381D01*
X9184762Y-16374286D01*
X9184762Y-16326667D01*
X9194286Y-16288571D01*
X9203810Y-16269524D01*
X9213333Y-16260000D01*
X9232381Y-16250476D01*
X9384762Y-16450476D02*
X9384762Y-16317143D01*
X9384762Y-16336190D02*
X9394286Y-16326667D01*
X9413333Y-16317143D01*
X9441905Y-16317143D01*
X9460952Y-16326667D01*
X9470476Y-16345714D01*
X9470476Y-16450476D01*
X9470476Y-16345714D02*
X9480000Y-16326667D01*
X9499048Y-16317143D01*
X9527619Y-16317143D01*
X9546667Y-16326667D01*
X9556190Y-16345714D01*
X9556190Y-16450476D01*
X9651429Y-16450476D02*
X9651429Y-16317143D01*
X9651429Y-16336190D02*
X9660952Y-16326667D01*
X9680000Y-16317143D01*
X9708571Y-16317143D01*
X9727619Y-16326667D01*
X9737143Y-16345714D01*
X9737143Y-16450476D01*
X9737143Y-16345714D02*
X9746667Y-16326667D01*
X9765714Y-16317143D01*
X9794286Y-16317143D01*
X9813333Y-16326667D01*
X9822857Y-16345714D01*
X9822857Y-16450476D01*
X10213333Y-16240952D02*
X10041905Y-16498095D01*
X10470476Y-16250476D02*
X10489524Y-16250476D01*
X10508571Y-16260000D01*
X10518095Y-16269524D01*
X10527619Y-16288571D01*
X10537143Y-16326667D01*
X10537143Y-16374286D01*
X10527619Y-16412381D01*
X10518095Y-16431428D01*
X10508571Y-16440952D01*
X10489524Y-16450476D01*
X10470476Y-16450476D01*
X10451429Y-16440952D01*
X10441905Y-16431428D01*
X10432381Y-16412381D01*
X10422857Y-16374286D01*
X10422857Y-16326667D01*
X10432381Y-16288571D01*
X10441905Y-16269524D01*
X10451429Y-16260000D01*
X10470476Y-16250476D01*
X10622857Y-16431428D02*
X10632381Y-16440952D01*
X10622857Y-16450476D01*
X10613333Y-16440952D01*
X10622857Y-16431428D01*
X10622857Y-16450476D01*
X10822857Y-16450476D02*
X10708571Y-16450476D01*
X10765714Y-16450476D02*
X10765714Y-16250476D01*
X10746667Y-16279048D01*
X10727619Y-16298095D01*
X10708571Y-16307619D01*
X10994286Y-16250476D02*
X10956190Y-16250476D01*
X10937143Y-16260000D01*
X10927619Y-16269524D01*
X10908571Y-16298095D01*
X10899048Y-16336190D01*
X10899048Y-16412381D01*
X10908571Y-16431428D01*
X10918095Y-16440952D01*
X10937143Y-16450476D01*
X10975238Y-16450476D01*
X10994286Y-16440952D01*
X11003810Y-16431428D01*
X11013333Y-16412381D01*
X11013333Y-16364762D01*
X11003810Y-16345714D01*
X10994286Y-16336190D01*
X10975238Y-16326667D01*
X10937143Y-16326667D01*
X10918095Y-16336190D01*
X10908571Y-16345714D01*
X10899048Y-16364762D01*
X11203809Y-16450476D02*
X11089524Y-16450476D01*
X11146667Y-16450476D02*
X11146667Y-16250476D01*
X11127619Y-16279048D01*
X11108571Y-16298095D01*
X11089524Y-16307619D01*
X11375238Y-16317143D02*
X11375238Y-16450476D01*
X11327619Y-16240952D02*
X11280000Y-16383809D01*
X11403809Y-16383809D01*
X11470476Y-16250476D02*
X11470476Y-16288571D01*
X11546667Y-16250476D02*
X11546667Y-16288571D01*
X11841905Y-16526667D02*
X11832381Y-16517143D01*
X11813333Y-16488571D01*
X11803809Y-16469524D01*
X11794286Y-16440952D01*
X11784762Y-16393333D01*
X11784762Y-16355238D01*
X11794286Y-16307619D01*
X11803809Y-16279048D01*
X11813333Y-16260000D01*
X11832381Y-16231428D01*
X11841905Y-16221905D01*
X11908571Y-16269524D02*
X11918095Y-16260000D01*
X11937143Y-16250476D01*
X11984762Y-16250476D01*
X12003809Y-16260000D01*
X12013333Y-16269524D01*
X12022857Y-16288571D01*
X12022857Y-16307619D01*
X12013333Y-16336190D01*
X11899048Y-16450476D01*
X12022857Y-16450476D01*
X12118095Y-16450476D02*
X12156190Y-16450476D01*
X12175238Y-16440952D01*
X12184762Y-16431428D01*
X12203809Y-16402857D01*
X12213333Y-16364762D01*
X12213333Y-16288571D01*
X12203809Y-16269524D01*
X12194286Y-16260000D01*
X12175238Y-16250476D01*
X12137143Y-16250476D01*
X12118095Y-16260000D01*
X12108571Y-16269524D01*
X12099048Y-16288571D01*
X12099048Y-16336190D01*
X12108571Y-16355238D01*
X12118095Y-16364762D01*
X12137143Y-16374286D01*
X12175238Y-16374286D01*
X12194286Y-16364762D01*
X12203809Y-16355238D01*
X12213333Y-16336190D01*
X12451428Y-16450476D02*
X12451428Y-16250476D01*
X12537143Y-16450476D02*
X12537143Y-16345714D01*
X12527619Y-16326667D01*
X12508571Y-16317143D01*
X12480000Y-16317143D01*
X12460952Y-16326667D01*
X12451428Y-16336190D01*
X12660952Y-16450476D02*
X12641905Y-16440952D01*
X12632381Y-16431428D01*
X12622857Y-16412381D01*
X12622857Y-16355238D01*
X12632381Y-16336190D01*
X12641905Y-16326667D01*
X12660952Y-16317143D01*
X12689524Y-16317143D01*
X12708571Y-16326667D01*
X12718095Y-16336190D01*
X12727619Y-16355238D01*
X12727619Y-16412381D01*
X12718095Y-16431428D01*
X12708571Y-16440952D01*
X12689524Y-16450476D01*
X12660952Y-16450476D01*
X12841905Y-16450476D02*
X12822857Y-16440952D01*
X12813333Y-16421905D01*
X12813333Y-16250476D01*
X12994286Y-16440952D02*
X12975238Y-16450476D01*
X12937143Y-16450476D01*
X12918095Y-16440952D01*
X12908571Y-16421905D01*
X12908571Y-16345714D01*
X12918095Y-16326667D01*
X12937143Y-16317143D01*
X12975238Y-16317143D01*
X12994286Y-16326667D01*
X13003809Y-16345714D01*
X13003809Y-16364762D01*
X12908571Y-16383809D01*
X13080000Y-16440952D02*
X13099048Y-16450476D01*
X13137143Y-16450476D01*
X13156190Y-16440952D01*
X13165714Y-16421905D01*
X13165714Y-16412381D01*
X13156190Y-16393333D01*
X13137143Y-16383809D01*
X13108571Y-16383809D01*
X13089524Y-16374286D01*
X13080000Y-16355238D01*
X13080000Y-16345714D01*
X13089524Y-16326667D01*
X13108571Y-16317143D01*
X13137143Y-16317143D01*
X13156190Y-16326667D01*
X13232381Y-16526667D02*
X13241905Y-16517143D01*
X13260952Y-16488571D01*
X13270476Y-16469524D01*
X13280000Y-16440952D01*
X13289524Y-16393333D01*
X13289524Y-16355238D01*
X13280000Y-16307619D01*
X13270476Y-16279048D01*
X13260952Y-16260000D01*
X13241905Y-16231428D01*
X13232381Y-16221905D01*
X13594286Y-16526667D02*
X13584762Y-16517143D01*
X13565714Y-16488571D01*
X13556190Y-16469524D01*
X13546667Y-16440952D01*
X13537143Y-16393333D01*
X13537143Y-16355238D01*
X13546667Y-16307619D01*
X13556190Y-16279048D01*
X13565714Y-16260000D01*
X13584762Y-16231428D01*
X13594286Y-16221905D01*
X13670476Y-16317143D02*
X13670476Y-16450476D01*
X13670476Y-16336190D02*
X13680000Y-16326667D01*
X13699048Y-16317143D01*
X13727619Y-16317143D01*
X13746667Y-16326667D01*
X13756190Y-16345714D01*
X13756190Y-16450476D01*
X13880000Y-16450476D02*
X13860952Y-16440952D01*
X13851428Y-16431428D01*
X13841905Y-16412381D01*
X13841905Y-16355238D01*
X13851428Y-16336190D01*
X13860952Y-16326667D01*
X13880000Y-16317143D01*
X13908571Y-16317143D01*
X13927619Y-16326667D01*
X13937143Y-16336190D01*
X13946667Y-16355238D01*
X13946667Y-16412381D01*
X13937143Y-16431428D01*
X13927619Y-16440952D01*
X13908571Y-16450476D01*
X13880000Y-16450476D01*
X14003809Y-16317143D02*
X14080000Y-16317143D01*
X14032381Y-16250476D02*
X14032381Y-16421905D01*
X14041905Y-16440952D01*
X14060952Y-16450476D01*
X14080000Y-16450476D01*
X14299048Y-16317143D02*
X14299048Y-16517143D01*
X14299048Y-16326667D02*
X14318095Y-16317143D01*
X14356190Y-16317143D01*
X14375238Y-16326667D01*
X14384762Y-16336190D01*
X14394286Y-16355238D01*
X14394286Y-16412381D01*
X14384762Y-16431428D01*
X14375238Y-16440952D01*
X14356190Y-16450476D01*
X14318095Y-16450476D01*
X14299048Y-16440952D01*
X14508571Y-16450476D02*
X14489524Y-16440952D01*
X14480000Y-16421905D01*
X14480000Y-16250476D01*
X14670476Y-16450476D02*
X14670476Y-16345714D01*
X14660952Y-16326667D01*
X14641905Y-16317143D01*
X14603809Y-16317143D01*
X14584762Y-16326667D01*
X14670476Y-16440952D02*
X14651428Y-16450476D01*
X14603809Y-16450476D01*
X14584762Y-16440952D01*
X14575238Y-16421905D01*
X14575238Y-16402857D01*
X14584762Y-16383809D01*
X14603809Y-16374286D01*
X14651428Y-16374286D01*
X14670476Y-16364762D01*
X14737143Y-16317143D02*
X14813333Y-16317143D01*
X14765714Y-16250476D02*
X14765714Y-16421905D01*
X14775238Y-16440952D01*
X14794286Y-16450476D01*
X14813333Y-16450476D01*
X14956190Y-16440952D02*
X14937143Y-16450476D01*
X14899048Y-16450476D01*
X14880000Y-16440952D01*
X14870476Y-16421905D01*
X14870476Y-16345714D01*
X14880000Y-16326667D01*
X14899048Y-16317143D01*
X14937143Y-16317143D01*
X14956190Y-16326667D01*
X14965714Y-16345714D01*
X14965714Y-16364762D01*
X14870476Y-16383809D01*
X15137143Y-16450476D02*
X15137143Y-16250476D01*
X15137143Y-16440952D02*
X15118095Y-16450476D01*
X15080000Y-16450476D01*
X15060952Y-16440952D01*
X15051428Y-16431428D01*
X15041905Y-16412381D01*
X15041905Y-16355238D01*
X15051428Y-16336190D01*
X15060952Y-16326667D01*
X15080000Y-16317143D01*
X15118095Y-16317143D01*
X15137143Y-16326667D01*
X15213333Y-16526667D02*
X15222857Y-16517143D01*
X15241905Y-16488571D01*
X15251428Y-16469524D01*
X15260952Y-16440952D01*
X15270476Y-16393333D01*
X15270476Y-16355238D01*
X15260952Y-16307619D01*
X15251428Y-16279048D01*
X15241905Y-16260000D01*
X15222857Y-16231428D01*
X15213333Y-16221905D01*
M02*
