G04 #@! TF.GenerationSoftware,KiCad,Pcbnew,(6.0.10)*
G04 #@! TF.CreationDate,2023-01-19T22:05:10+01:00*
G04 #@! TF.ProjectId,SofleKeyboard,536f666c-654b-4657-9962-6f6172642e6b,rev?*
G04 #@! TF.SameCoordinates,Original*
G04 #@! TF.FileFunction,Profile,NP*
%FSLAX46Y46*%
G04 Gerber Fmt 4.6, Leading zero omitted, Abs format (unit mm)*
G04 Created by KiCad (PCBNEW (6.0.10)) date 2023-01-19 22:05:10*
%MOMM*%
%LPD*%
G01*
G04 APERTURE LIST*
G04 #@! TA.AperFunction,Profile*
%ADD10C,0.200000*%
G04 #@! TD*
G04 #@! TA.AperFunction,Profile*
%ADD11C,0.150000*%
G04 #@! TD*
G04 APERTURE END LIST*
D10*
X171160668Y-33746143D02*
X174856854Y-34220078D01*
X178957844Y-34981704D01*
X183365860Y-35983537D01*
X192711865Y-38517893D01*
X202112654Y-41443278D01*
X210786012Y-44379827D01*
X217949725Y-46947673D01*
X224619352Y-49457789D01*
X224667646Y-124509454D01*
X214865580Y-127086909D01*
X209695730Y-128438173D01*
X204524702Y-129728270D01*
X199486021Y-130880055D01*
X194713210Y-131816385D01*
X192468234Y-132179646D01*
X190339797Y-132460115D01*
X188344590Y-132648148D01*
X186499304Y-132734102D01*
X149652090Y-132735002D01*
X145686094Y-132801444D01*
X141805244Y-132998648D01*
X138006369Y-133323429D01*
X134286294Y-133772603D01*
X130641847Y-134342987D01*
X127069853Y-135031397D01*
X123567139Y-135834648D01*
X120130533Y-136749557D01*
X116756861Y-137772940D01*
X113442949Y-138901612D01*
X110185625Y-140132390D01*
X106981714Y-141462091D01*
X103828044Y-142887528D01*
X100721441Y-144405520D01*
X97658731Y-146012882D01*
X94100000Y-147900000D01*
X82800000Y-128300000D01*
X84188667Y-125255766D01*
X84995090Y-122705183D01*
X85682006Y-120398604D01*
X86259389Y-118302505D01*
X86737215Y-116383359D01*
X87125459Y-114607641D01*
X87434097Y-112941825D01*
X87673104Y-111352386D01*
X87852455Y-109805799D01*
X87982126Y-108268539D01*
X88132329Y-105087893D01*
X88275488Y-97363393D01*
X88275442Y-97363386D01*
X88315843Y-39059215D01*
X88316830Y-39011382D01*
X88319783Y-38964024D01*
X88324689Y-38917201D01*
X88331536Y-38870972D01*
X88340310Y-38825396D01*
X88350999Y-38780533D01*
X88363590Y-38736443D01*
X88378071Y-38693184D01*
X88394429Y-38650817D01*
X88412651Y-38609400D01*
X88432724Y-38568994D01*
X88454637Y-38529658D01*
X88478375Y-38491451D01*
X88503926Y-38454433D01*
X88531279Y-38418663D01*
X88560419Y-38384202D01*
X88591334Y-38351107D01*
X88624012Y-38319439D01*
X88658439Y-38289257D01*
X88694604Y-38260621D01*
X88732493Y-38233591D01*
X88772094Y-38208225D01*
X88813394Y-38184583D01*
X88856380Y-38162725D01*
X88901040Y-38142711D01*
X88947360Y-38124599D01*
X88995329Y-38108449D01*
X89044933Y-38094321D01*
X89096160Y-38082274D01*
X89148997Y-38072367D01*
X89203432Y-38064661D01*
X89259450Y-38059215D01*
X92198499Y-37851715D01*
X95045137Y-37699518D01*
X100620299Y-37454486D01*
X103428380Y-37308374D01*
X106303168Y-37111017D01*
X109284442Y-36835774D01*
X112411980Y-36456010D01*
X115818434Y-36016164D01*
X119657015Y-35565143D01*
X124546288Y-35047869D01*
X130206593Y-34530199D01*
X136358274Y-34077992D01*
X139530986Y-33897018D01*
X142721671Y-33757107D01*
X145895370Y-33666490D01*
X149017126Y-33633401D01*
X167967062Y-33607381D01*
X171160668Y-33746143D01*
D11*
X123200000Y-46700000D02*
X123200000Y-41500000D01*
X117800000Y-41500000D02*
X123200000Y-41500000D01*
X117800000Y-46700000D02*
X117800000Y-41500000D01*
X123200000Y-46700000D02*
X117800000Y-46700000D01*
X136800000Y-39000000D02*
X142200000Y-39000000D01*
X142200000Y-44200000D02*
X142200000Y-39000000D01*
X136800000Y-44200000D02*
X136800000Y-39000000D01*
X142200000Y-44200000D02*
X136800000Y-44200000D01*
X161300000Y-39270000D02*
X155900000Y-39270000D01*
X155900000Y-39270000D02*
X155900000Y-34070000D01*
X155900000Y-34070000D02*
X161300000Y-34070000D01*
X161300000Y-39270000D02*
X161300000Y-34070000D01*
X180300000Y-44200000D02*
X180300000Y-39000000D01*
X180300000Y-44200000D02*
X174900000Y-44200000D01*
X174900000Y-44200000D02*
X174900000Y-39000000D01*
X174900000Y-39000000D02*
X180300000Y-39000000D01*
X194000000Y-49900000D02*
X199400000Y-49900000D01*
X199400000Y-55100000D02*
X199400000Y-49900000D01*
X194000000Y-55100000D02*
X194000000Y-49900000D01*
X199400000Y-55100000D02*
X194000000Y-55100000D01*
X123200000Y-65800000D02*
X117800000Y-65800000D01*
X117800000Y-60600000D02*
X123200000Y-60600000D01*
X117800000Y-65800000D02*
X117800000Y-60600000D01*
X123200000Y-65800000D02*
X123200000Y-60600000D01*
X136800000Y-63300000D02*
X136800000Y-58100000D01*
X136800000Y-58100000D02*
X142200000Y-58100000D01*
X142200000Y-63300000D02*
X136800000Y-63300000D01*
X142200000Y-63300000D02*
X142200000Y-58100000D01*
X155900000Y-58360000D02*
X155900000Y-53160000D01*
X161300000Y-58360000D02*
X161300000Y-53160000D01*
X155900000Y-53160000D02*
X161300000Y-53160000D01*
X161300000Y-58360000D02*
X155900000Y-58360000D01*
X180300000Y-63200000D02*
X174900000Y-63200000D01*
X174900000Y-58000000D02*
X180300000Y-58000000D01*
X174900000Y-63200000D02*
X174900000Y-58000000D01*
X180300000Y-63200000D02*
X180300000Y-58000000D01*
X194000000Y-74000000D02*
X194000000Y-68800000D01*
X194000000Y-68800000D02*
X199400000Y-68800000D01*
X199400000Y-74000000D02*
X194000000Y-74000000D01*
X199400000Y-74000000D02*
X199400000Y-68800000D01*
X218400000Y-74000000D02*
X218400000Y-68800000D01*
X218400000Y-74000000D02*
X213000000Y-74000000D01*
X213000000Y-74000000D02*
X213000000Y-68800000D01*
X213000000Y-68800000D02*
X218400000Y-68800000D01*
X117800000Y-84800000D02*
X117800000Y-79600000D01*
X123200000Y-84800000D02*
X117800000Y-84800000D01*
X117800000Y-79600000D02*
X123200000Y-79600000D01*
X123200000Y-84800000D02*
X123200000Y-79600000D01*
X142200000Y-82300000D02*
X142200000Y-77100000D01*
X136800000Y-82300000D02*
X136800000Y-77100000D01*
X136800000Y-77100000D02*
X142200000Y-77100000D01*
X142200000Y-82300000D02*
X136800000Y-82300000D01*
X155900000Y-77460000D02*
X155900000Y-72260000D01*
X161300000Y-77460000D02*
X155900000Y-77460000D01*
X161300000Y-77460000D02*
X161300000Y-72260000D01*
X155900000Y-72260000D02*
X161300000Y-72260000D01*
X174900000Y-77100000D02*
X180300000Y-77100000D01*
X174900000Y-82300000D02*
X174900000Y-77100000D01*
X180300000Y-82300000D02*
X174900000Y-82300000D01*
X180300000Y-82300000D02*
X180300000Y-77100000D01*
X199400000Y-93200000D02*
X194000000Y-93200000D01*
X199400000Y-93200000D02*
X199400000Y-88000000D01*
X194000000Y-88000000D02*
X199400000Y-88000000D01*
X194000000Y-93200000D02*
X194000000Y-88000000D01*
X213000000Y-88000000D02*
X218400000Y-88000000D01*
X218400000Y-93200000D02*
X218400000Y-88000000D01*
X213000000Y-93200000D02*
X213000000Y-88000000D01*
X218400000Y-93200000D02*
X213000000Y-93200000D01*
X123200000Y-103800000D02*
X123200000Y-98600000D01*
X117800000Y-98600000D02*
X123200000Y-98600000D01*
X117800000Y-103800000D02*
X117800000Y-98600000D01*
X123200000Y-103800000D02*
X117800000Y-103800000D01*
X136800000Y-96200000D02*
X142200000Y-96200000D01*
X142200000Y-101400000D02*
X136800000Y-101400000D01*
X142200000Y-101400000D02*
X142200000Y-96200000D01*
X136800000Y-101400000D02*
X136800000Y-96200000D01*
X161300000Y-96460000D02*
X161300000Y-91260000D01*
X155900000Y-96460000D02*
X155900000Y-91260000D01*
X155900000Y-91260000D02*
X161300000Y-91260000D01*
X161300000Y-96460000D02*
X155900000Y-96460000D01*
X174900000Y-96200000D02*
X180300000Y-96200000D01*
X180300000Y-101400000D02*
X180300000Y-96200000D01*
X174900000Y-101400000D02*
X174900000Y-96200000D01*
X180300000Y-101400000D02*
X174900000Y-101400000D01*
X194000000Y-107000000D02*
X199400000Y-107000000D01*
X199400000Y-112200000D02*
X194000000Y-112200000D01*
X199400000Y-112200000D02*
X199400000Y-107000000D01*
X194000000Y-112200000D02*
X194000000Y-107000000D01*
X218450000Y-112200000D02*
X218450000Y-107000000D01*
X213050000Y-107000000D02*
X218450000Y-107000000D01*
X218450000Y-112200000D02*
X213050000Y-112200000D01*
X213050000Y-112200000D02*
X213050000Y-107000000D01*
X92502116Y-132711731D02*
X87998784Y-135311731D01*
X95202116Y-137388269D02*
X90698784Y-139988269D01*
X90698784Y-139988269D02*
X87998784Y-135311731D01*
X92502116Y-132711731D02*
X95202116Y-137388269D01*
X142800000Y-126400000D02*
X142800000Y-121000000D01*
X148000000Y-121000000D02*
X148000000Y-126400000D01*
X142800000Y-126400000D02*
X148000000Y-126400000D01*
X142800000Y-121000000D02*
X148000000Y-121000000D01*
X167100000Y-118700000D02*
X167100000Y-124100000D01*
X161900000Y-118700000D02*
X167100000Y-118700000D01*
X161900000Y-124100000D02*
X161900000Y-118700000D01*
X161900000Y-124100000D02*
X167100000Y-124100000D01*
X174900000Y-120500000D02*
X174900000Y-115300000D01*
X180300000Y-120500000D02*
X180300000Y-115300000D01*
X180300000Y-120500000D02*
X174900000Y-120500000D01*
X174900000Y-115300000D02*
X180300000Y-115300000D01*
X119785803Y-123983616D02*
X114594990Y-125472057D01*
X113161676Y-120473496D02*
X118352489Y-118985055D01*
X114594990Y-125472057D02*
X113161676Y-120473496D01*
X119785803Y-123983616D02*
X118352489Y-118985055D01*
X213100000Y-55100000D02*
X213100000Y-49900000D01*
X213100000Y-49900000D02*
X218500000Y-49900000D01*
X218500000Y-55100000D02*
X213100000Y-55100000D01*
X218500000Y-55100000D02*
X218500000Y-49900000D01*
M02*
