<?xml version="1.0" encoding="UTF-8" standalone="no"?>
<!-- Created with Inkscape (http://www.inkscape.org/) -->

<svg
   width="110.65267mm"
   height="48.512402mm"
   viewBox="0 0 110.65267 48.512402"
   version="1.1"
   id="svg36697"
   inkscape:version="1.1 (c68e22c387, 2021-05-23)"
   sodipodi:docname="drawing.svg"
   xmlns:inkscape="http://www.inkscape.org/namespaces/inkscape"
   xmlns:sodipodi="http://sodipodi.sourceforge.net/DTD/sodipodi-0.dtd"
   xmlns="http://www.w3.org/2000/svg"
   xmlns:svg="http://www.w3.org/2000/svg">
  <sodipodi:namedview
     id="namedview36699"
     pagecolor="#ffffff"
     bordercolor="#666666"
     borderopacity="1.0"
     inkscape:pageshadow="2"
     inkscape:pageopacity="0.0"
     inkscape:pagecheckerboard="0"
     inkscape:document-units="mm"
     showgrid="false"
     inkscape:zoom="0.77771465"
     inkscape:cx="369.02995"
     inkscape:cy="277.09392"
     inkscape:window-width="2560"
     inkscape:window-height="1377"
     inkscape:window-x="1912"
     inkscape:window-y="-8"
     inkscape:window-maximized="1"
     inkscape:current-layer="layer1" />
  <defs
     id="defs36694" />
  <g
     inkscape:label="Layer 1"
     inkscape:groupmode="layer"
     id="layer1"
     transform="translate(-7.6118073,-75.085774)">
    <g
       id="g34601-0-3"
       transform="matrix(1.7584436,0,0,1.7584436,-76.975303,-1360.6148)">
      <g
         id="g34340-6-6"
         transform="translate(-14.289926,-1.4488914)">
        <path
           id="path3435-1-6-3-47-01-2-3-8-7-9"
           style="fill:none;stroke:#000000;stroke-width:0.531078;stroke-linecap:round"
           transform="matrix(-0.02075808,0.37602019,-0.37602019,-0.02075808,487.01291,821.84849)"
           d="m 67.705473,1051.3794 -6.388267,4.1705 -6.805902,-3.4471 -0.417636,-7.6177 6.388267,-4.1705 6.805902,3.4471 z m -5.970638,11.7882 -6.388267,4.1705 -6.805902,-3.4471 -0.417636,-7.6177 6.388267,-4.1705 6.805902,3.4471 z m 7.223534,11.0648 -6.388267,4.1705 -6.805902,-3.4471 -0.417636,-7.6177 6.388267,-4.1705 6.805902,3.4471 z m -5.970638,11.7881 -6.388267,4.1705 -6.805902,-3.4471 -0.417636,-7.6177 6.388267,-4.1705 6.805902,3.4471 z m 7.223533,11.0649 -6.388267,4.1705 -6.805902,-3.4471 -0.417636,-7.6177 6.388267,-4.1705 6.805902,3.4471 z m -5.970638,11.7881 -6.388267,4.1705 -6.805902,-3.4471 -0.417636,-7.6177 6.388267,-4.1705 6.805902,3.4471 z m 7.223534,11.0648 -6.388267,4.1705 -6.805902,-3.4471 -0.417636,-7.6177 6.388267,-4.1705 6.805902,3.4471 z" />
        <path
           id="path3435-1-6-3-47-01-2-3-8-8-2-92-2"
           style="fill:none;stroke:#000000;stroke-width:1;stroke-linecap:round;stroke-miterlimit:4;stroke-dasharray:none"
           d="m 90.263811,835.43517 -1.43558,-2.48869 1.43746,-2.4876 2.87307,10e-4 1.43559,2.48868 -1.43746,2.48761 z m -4.30866,-2.48978 -1.43558,-2.48869 1.43745,-2.4876 2.87308,10e-4 1.43559,2.48868 -1.43746,2.48761 z m -4.31054,2.48651 -1.435583,-2.48869 1.437453,-2.4876 2.87309,10e-4 1.43558,2.48868 -1.43746,2.48761 z m -4.308623,-2.48978 -1.435584,-2.48869 1.437456,-2.4876 2.873079,10e-4 1.435582,2.48869 -1.437455,2.4876 z m -4.310573,2.48651 -1.435584,-2.48869 1.437457,-2.4876 2.873078,10e-4 1.435584,2.48868 -1.437456,2.48761 z m -4.308624,-2.48978 -1.435584,-2.48869 1.437456,-2.4876 2.873079,10e-4 1.435584,2.48869 -1.437457,2.4876 z m -4.310535,2.48651 -1.435584,-2.48869 1.437457,-2.4876 2.873078,10e-4 1.435584,2.48869 -1.437457,2.4876 z" />
        <path
           id="path3435-1-6-3-47-01-2-3-8-8-2-9-5-2"
           style="fill:none;stroke:#000000;stroke-width:0.2;stroke-linecap:round"
           d="m 90.26003,845.38766 -1.43558,-2.48869 1.43746,-2.4876 2.87307,10e-4 1.43559,2.48868 -1.43746,2.48761 z m -4.30866,-2.48978 -1.43558,-2.48869 1.43745,-2.4876 2.87308,10e-4 1.43559,2.48868 -1.43746,2.48761 z m -4.31054,2.48651 -1.43558,-2.48869 1.43745,-2.4876 2.87309,10e-4 1.43558,2.48868 -1.43746,2.48761 z m -4.308624,-2.48978 -1.435584,-2.48869 1.437456,-2.4876 2.873082,10e-4 1.43558,2.48869 -1.43746,2.4876 z m -4.310573,2.48651 -1.435584,-2.48869 1.437457,-2.4876 2.873078,0.001 1.435584,2.48868 -1.437456,2.48761 z m -4.308624,-2.48978 -1.435584,-2.48869 1.437456,-2.4876 2.873079,0.001 1.435584,2.48869 -1.437457,2.4876 z m -4.310535,2.48651 -1.435584,-2.48869 1.437457,-2.4876 2.873078,10e-4 1.435584,2.48869 -1.437457,2.4876 z" />
        <g
           id="g32652-3-9">
          <path
             style="opacity:1;fill:none;fill-opacity:1;stroke:#000000;stroke-width:0.6px;stroke-linecap:round;stroke-miterlimit:4;stroke-dasharray:none;stroke-opacity:1"
             d="m 90.2619,840.411 -1.4356,-2.488 1.4375,-2.488 2.8731,0.001 1.4356,2.489 -1.4375,2.487 z m -4.3086,-2.489 -1.4356,-2.489 1.4374,-2.488 2.8731,10e-4 1.4356,2.489 -1.4375,2.488 z m -4.3106,2.486 -1.4356,-2.489 1.4375,-2.487 2.8731,10e-4 1.4356,2.489 -1.4375,2.487 z m -4.3086,-2.49 -1.4356,-2.488 1.4375,-2.488 2.873,10e-4 1.4356,2.489 -1.4374,2.487 z m -4.3106,2.487 -1.4356,-2.489 1.4375,-2.487 2.8731,10e-4 1.4356,2.488 -1.4375,2.488 z m -4.3086,-2.49 -1.4356,-2.489 1.4375,-2.487 2.8731,0.001 1.4355,2.488 -1.4374,2.488 z m -4.3105,2.487 -1.4356,-2.489 1.4374,-2.488 2.8731,0.001 1.4356,2.489 -1.4375,2.488 z"
             id="path32650-8-3" />
        </g>
        <g
           id="g34310-3-4">
          <path
             style="opacity:1;fill:none;fill-opacity:1;stroke:#000000;stroke-width:0.765539px;stroke-linecap:round;stroke-opacity:1"
             d="m 90.2657,830.459 -1.4356,-2.489 1.4375,-2.488 2.8731,10e-4 1.4355,2.489 -1.4374,2.488 z m -4.3087,-2.49 -1.4355,-2.489 1.4374,-2.487 2.8731,10e-4 1.4356,2.488 -1.4375,2.488 z m -4.3105,2.486 -1.4356,-2.488 1.4375,-2.488 2.8731,10e-4 1.4356,2.489 -1.4375,2.487 z m -4.3086,-2.489 -1.4356,-2.489 1.4375,-2.488 2.873,10e-4 1.4356,2.489 -1.4374,2.488 z m -4.3106,2.486 -1.4356,-2.489 1.4375,-2.487 2.8731,10e-4 1.4356,2.488 -1.4375,2.488 z m -4.3086,-2.49 -1.4356,-2.488 1.4375,-2.488 2.8731,10e-4 1.4355,2.489 -1.4374,2.487 z m -4.3105,2.487 -1.4356,-2.489 1.4374,-2.488 2.8731,0.002 1.4356,2.488 -1.4375,2.488 z"
             id="path34308-5-0" />
        </g>
      </g>
      <g
         id="g34340-8-6-1"
         transform="rotate(180,86.711601,830.97955)">
        <path
           id="path3435-1-6-3-47-01-2-3-8-1-4-6"
           style="fill:none;stroke:#000000;stroke-width:0.531078;stroke-linecap:round"
           transform="matrix(-0.02075808,0.37602019,-0.37602019,-0.02075808,487.01291,821.84849)"
           d="m 67.705473,1051.3794 -6.388267,4.1705 -6.805902,-3.4471 -0.417636,-7.6177 6.388267,-4.1705 6.805902,3.4471 z m -5.970638,11.7882 -6.388267,4.1705 -6.805902,-3.4471 -0.417636,-7.6177 6.388267,-4.1705 6.805902,3.4471 z m 7.223534,11.0648 -6.388267,4.1705 -6.805902,-3.4471 -0.417636,-7.6177 6.388267,-4.1705 6.805902,3.4471 z m -5.970638,11.7881 -6.388267,4.1705 -6.805902,-3.4471 -0.417636,-7.6177 6.388267,-4.1705 6.805902,3.4471 z m 7.223533,11.0649 -6.388267,4.1705 -6.805902,-3.4471 -0.417636,-7.6177 6.388267,-4.1705 6.805902,3.4471 z m -5.970638,11.7881 -6.388267,4.1705 -6.805902,-3.4471 -0.417636,-7.6177 6.388267,-4.1705 6.805902,3.4471 z m 7.223534,11.0648 -6.388267,4.1705 -6.805902,-3.4471 -0.417636,-7.6177 6.388267,-4.1705 6.805902,3.4471 z" />
        <path
           id="path3435-1-6-3-47-01-2-3-8-8-2-98-9-6"
           style="fill:none;stroke:#000000;stroke-width:1;stroke-linecap:round;stroke-miterlimit:4;stroke-dasharray:none"
           d="m 90.263811,835.43517 -1.43558,-2.48869 1.43746,-2.4876 2.87307,10e-4 1.43559,2.48868 -1.43746,2.48761 z m -4.30866,-2.48978 -1.43558,-2.48869 1.43745,-2.4876 2.87308,10e-4 1.43559,2.48868 -1.43746,2.48761 z m -4.31054,2.48651 -1.435583,-2.48869 1.437453,-2.4876 2.87309,10e-4 1.43558,2.48868 -1.43746,2.48761 z m -4.308623,-2.48978 -1.435584,-2.48869 1.437456,-2.4876 2.873079,10e-4 1.435582,2.48869 -1.437455,2.4876 z m -4.310573,2.48651 -1.435584,-2.48869 1.437457,-2.4876 2.873078,10e-4 1.435584,2.48868 -1.437456,2.48761 z m -4.308624,-2.48978 -1.435584,-2.48869 1.437456,-2.4876 2.873079,10e-4 1.435584,2.48869 -1.437457,2.4876 z m -4.310535,2.48651 -1.435584,-2.48869 1.437457,-2.4876 2.873078,10e-4 1.435584,2.48869 -1.437457,2.4876 z" />
        <path
           id="path3435-1-6-3-47-01-2-3-8-8-2-9-6-1-0"
           style="fill:none;stroke:#000000;stroke-width:0.2;stroke-linecap:round"
           d="m 90.26003,845.38766 -1.43558,-2.48869 1.43746,-2.4876 2.87307,10e-4 1.43559,2.48868 -1.43746,2.48761 z m -4.30866,-2.48978 -1.43558,-2.48869 1.43745,-2.4876 2.87308,10e-4 1.43559,2.48868 -1.43746,2.48761 z m -4.31054,2.48651 -1.43558,-2.48869 1.43745,-2.4876 2.87309,10e-4 1.43558,2.48868 -1.43746,2.48761 z m -4.308624,-2.48978 -1.435584,-2.48869 1.437456,-2.4876 2.873082,10e-4 1.43558,2.48869 -1.43746,2.4876 z m -4.310573,2.48651 -1.435584,-2.48869 1.437457,-2.4876 2.873078,0.001 1.435584,2.48868 -1.437456,2.48761 z m -4.308624,-2.48978 -1.435584,-2.48869 1.437456,-2.4876 2.873079,0.001 1.435584,2.48869 -1.437457,2.4876 z m -4.310535,2.48651 -1.435584,-2.48869 1.437457,-2.4876 2.873078,10e-4 1.435584,2.48869 -1.437457,2.4876 z" />
        <g
           id="g32652-1-8-7">
          <path
             style="opacity:1;fill:none;fill-opacity:1;stroke:#000000;stroke-width:0.6px;stroke-linecap:round;stroke-miterlimit:4;stroke-dasharray:none;stroke-opacity:1"
             d="m 90.2619,840.411 -1.4356,-2.488 1.4375,-2.488 2.8731,0.001 1.4356,2.489 -1.4375,2.487 z m -4.3086,-2.489 -1.4356,-2.489 1.4374,-2.488 2.8731,10e-4 1.4356,2.489 -1.4375,2.488 z m -4.3106,2.486 -1.4356,-2.489 1.4375,-2.487 2.8731,10e-4 1.4356,2.489 -1.4375,2.487 z m -4.3086,-2.49 -1.4356,-2.488 1.4375,-2.488 2.873,10e-4 1.4356,2.489 -1.4374,2.487 z m -4.3106,2.487 -1.4356,-2.489 1.4375,-2.487 2.8731,10e-4 1.4356,2.488 -1.4375,2.488 z m -4.3086,-2.49 -1.4356,-2.489 1.4375,-2.487 2.8731,0.001 1.4355,2.488 -1.4374,2.488 z m -4.3105,2.487 -1.4356,-2.489 1.4374,-2.488 2.8731,0.001 1.4356,2.489 -1.4375,2.488 z"
             id="path32650-1-5-3" />
        </g>
        <g
           id="g34310-1-7-3">
          <path
             style="opacity:1;fill:none;fill-opacity:1;stroke:#000000;stroke-width:0.765539px;stroke-linecap:round;stroke-opacity:1"
             d="m 90.2657,830.459 -1.4356,-2.489 1.4375,-2.488 2.8731,10e-4 1.4355,2.489 -1.4374,2.488 z m -4.3087,-2.49 -1.4355,-2.489 1.4374,-2.487 2.8731,10e-4 1.4356,2.488 -1.4375,2.488 z m -4.3105,2.486 -1.4356,-2.488 1.4375,-2.488 2.8731,10e-4 1.4356,2.489 -1.4375,2.487 z m -4.3086,-2.489 -1.4356,-2.489 1.4375,-2.488 2.873,10e-4 1.4356,2.489 -1.4374,2.488 z m -4.3106,2.486 -1.4356,-2.489 1.4375,-2.487 2.8731,10e-4 1.4356,2.488 -1.4375,2.488 z m -4.3086,-2.49 -1.4356,-2.488 1.4375,-2.488 2.8731,10e-4 1.4355,2.489 -1.4374,2.487 z m -4.3105,2.487 -1.4356,-2.489 1.4374,-2.488 2.8731,0.002 1.4356,2.488 -1.4375,2.488 z"
             id="path34308-3-8-5" />
        </g>
      </g>
    </g>
  </g>
</svg>
